<svg id="svg" version="1.1" xmlns="http://www.w3.org/2000/svg" xmlns:xlink="http://www.w3.org/1999/xlink" width="400" height="400" viewBox="0, 0, 400,400"><g id="svgg"><path id="path0" d="M337.766 146.800 C 337.766 150.870,337.825 152.535,337.898 150.500 C 337.971 148.465,337.971 145.135,337.898 143.100 C 337.825 141.065,337.766 142.730,337.766 146.800 M291.000 219.835 C 289.900 220.145,287.650 220.514,286.000 220.655 C 284.350 220.796,282.550 221.135,282.000 221.408 C 281.450 221.682,280.190 222.034,279.200 222.191 C 278.210 222.348,277.021 222.716,276.558 223.009 C 276.096 223.302,275.016 223.672,274.158 223.831 C 273.301 223.990,272.240 224.346,271.800 224.621 C 271.360 224.896,270.417 225.243,269.705 225.392 C 268.992 225.540,268.322 225.803,268.216 225.975 C 268.109 226.147,266.262 227.167,264.111 228.241 C 260.351 230.118,258.287 231.319,256.619 232.600 C 256.189 232.930,255.664 233.200,255.452 233.200 C 255.240 233.200,254.782 233.471,254.434 233.802 C 254.085 234.134,252.360 235.551,250.600 236.953 C 247.477 239.439,238.000 248.823,238.000 249.429 C 238.000 249.596,237.721 250.018,237.380 250.366 C 236.274 251.497,233.310 255.822,233.024 256.723 C 232.871 257.205,232.600 257.600,232.422 257.600 C 232.243 257.600,231.873 258.140,231.600 258.800 C 231.327 259.460,230.959 260.000,230.783 260.000 C 230.607 260.000,230.348 260.528,230.206 261.172 C 230.064 261.817,229.702 262.550,229.400 262.800 C 229.098 263.050,228.738 263.770,228.600 264.400 C 228.462 265.030,228.095 265.755,227.785 266.013 C 227.475 266.270,227.108 267.086,226.969 267.826 C 226.830 268.566,226.475 269.372,226.180 269.616 C 225.885 269.861,225.442 271.035,225.195 272.224 C 224.948 273.413,224.594 274.480,224.408 274.595 C 224.222 274.710,223.943 275.568,223.788 276.502 C 223.632 277.436,223.280 278.650,223.004 279.200 C 222.728 279.750,222.376 281.280,222.223 282.600 C 222.069 283.920,221.686 285.888,221.372 286.973 C 220.677 289.369,220.539 310.863,221.207 312.620 C 221.432 313.209,221.864 315.156,222.168 316.946 C 222.473 318.736,222.912 320.740,223.145 321.400 C 223.829 323.340,224.820 326.502,225.175 327.875 C 225.505 329.151,226.928 332.471,227.629 333.600 C 227.834 333.930,228.192 334.650,228.424 335.200 C 229.652 338.108,231.629 341.727,232.536 342.729 C 232.901 343.133,233.200 343.755,233.200 344.112 C 233.200 344.468,233.429 344.904,233.710 345.080 C 234.205 345.391,235.333 346.902,236.255 348.490 C 237.478 350.595,245.945 359.430,249.586 362.400 C 250.530 363.170,251.610 364.070,251.986 364.400 C 252.362 364.730,253.014 365.228,253.435 365.506 C 253.856 365.784,254.688 366.336,255.284 366.732 C 256.909 367.811,258.114 369.521,257.880 370.417 C 257.755 370.895,257.876 371.200,258.191 371.200 C 258.475 371.200,258.801 371.560,258.916 372.000 C 259.077 372.616,259.462 372.800,260.586 372.800 C 261.556 372.800,261.955 372.949,261.772 373.245 C 261.408 373.834,262.334 374.386,263.700 374.394 C 264.408 374.398,264.800 374.614,264.800 375.000 C 264.800 375.433,265.244 375.600,266.400 375.600 C 267.733 375.600,268.000 375.733,268.000 376.400 C 268.000 377.111,268.267 377.200,270.400 377.200 C 272.533 377.200,272.800 377.289,272.800 378.000 C 272.800 378.701,273.067 378.800,274.953 378.800 C 276.770 378.800,277.139 378.925,277.316 379.600 C 277.502 380.311,277.862 380.400,280.563 380.400 C 283.333 380.400,283.600 380.470,283.600 381.200 C 283.600 381.969,283.867 382.000,290.553 382.000 C 297.170 382.000,297.517 382.039,297.716 382.800 C 297.902 383.511,298.262 383.600,300.963 383.600 C 303.733 383.600,304.000 383.530,304.000 382.800 C 304.000 382.028,304.267 382.000,311.637 382.000 C 318.938 382.000,319.284 381.965,319.484 381.200 C 319.669 380.491,320.030 380.400,322.647 380.400 C 325.333 380.400,325.600 380.328,325.600 379.600 C 325.600 378.889,325.867 378.800,328.000 378.800 C 330.133 378.800,330.400 378.711,330.400 378.000 C 330.400 377.333,330.667 377.200,332.000 377.200 C 333.333 377.200,333.600 377.067,333.600 376.400 C 333.600 375.699,333.867 375.600,335.757 375.600 C 337.218 375.600,337.983 375.423,338.125 375.051 C 338.241 374.748,338.981 374.380,339.768 374.232 C 340.631 374.070,341.200 373.733,341.200 373.382 C 341.200 373.062,341.560 372.800,342.000 372.800 C 342.533 372.800,342.800 372.533,342.800 372.000 C 342.800 371.333,343.067 371.200,344.400 371.200 C 345.733 371.200,346.000 371.067,346.000 370.400 C 346.000 369.748,346.267 369.600,347.437 369.600 C 348.538 369.600,348.924 369.413,349.084 368.800 C 349.200 368.357,349.630 368.000,350.047 368.000 C 350.533 368.000,350.800 367.717,350.800 367.200 C 350.800 366.667,351.067 366.400,351.600 366.400 C 352.133 366.400,352.400 366.133,352.400 365.600 C 352.400 364.958,352.667 364.800,353.753 364.800 C 354.770 364.800,355.159 364.601,355.316 364.000 C 355.431 363.560,355.812 363.200,356.163 363.200 C 356.533 363.200,356.800 362.865,356.800 362.400 C 356.800 361.867,357.067 361.600,357.600 361.600 C 358.133 361.600,358.400 361.333,358.400 360.800 C 358.400 360.267,358.667 360.000,359.200 360.000 C 359.733 360.000,360.000 359.733,360.000 359.200 C 360.000 358.667,360.267 358.400,360.800 358.400 C 361.244 358.400,361.600 358.133,361.600 357.800 C 361.600 357.470,361.874 357.200,362.210 357.200 C 362.545 357.200,362.991 356.750,363.200 356.200 C 363.409 355.650,363.855 355.200,364.190 355.200 C 364.620 355.200,364.800 354.788,364.800 353.800 C 364.800 352.667,364.952 352.400,365.600 352.400 C 366.133 352.400,366.400 352.133,366.400 351.600 C 366.400 351.067,366.667 350.800,367.200 350.800 C 367.733 350.800,368.000 350.533,368.000 350.000 C 368.000 349.467,368.267 349.200,368.800 349.200 C 369.467 349.200,369.600 348.933,369.600 347.600 C 369.600 346.267,369.733 346.000,370.400 346.000 C 370.917 346.000,371.200 345.733,371.200 345.247 C 371.200 344.830,371.557 344.400,372.000 344.284 C 372.574 344.134,372.800 343.738,372.800 342.884 C 372.800 342.030,373.026 341.634,373.600 341.484 C 374.213 341.324,374.400 340.938,374.400 339.837 C 374.400 338.826,374.578 338.400,375.000 338.400 C 375.433 338.400,375.600 337.956,375.600 336.800 C 375.600 335.467,375.733 335.200,376.400 335.200 C 377.067 335.200,377.200 334.933,377.200 333.600 C 377.200 332.267,377.333 332.000,378.000 332.000 C 378.711 332.000,378.800 331.733,378.800 329.600 C 378.800 327.467,378.889 327.200,379.600 327.200 C 380.301 327.200,380.400 326.933,380.400 325.047 C 380.400 323.230,380.525 322.861,381.200 322.684 C 381.910 322.498,382.000 322.138,382.000 319.484 C 382.000 316.830,382.090 316.470,382.800 316.284 C 383.583 316.079,383.600 315.738,383.600 300.000 C 383.600 284.262,383.583 283.921,382.800 283.716 C 382.090 283.530,382.000 283.170,382.000 280.516 C 382.000 277.862,381.910 277.502,381.200 277.316 C 380.525 277.139,380.400 276.770,380.400 274.953 C 380.400 273.067,380.301 272.800,379.600 272.800 C 378.889 272.800,378.800 272.533,378.800 270.400 C 378.800 268.267,378.711 268.000,378.000 268.000 C 377.333 268.000,377.200 267.733,377.200 266.400 C 377.200 265.067,377.067 264.800,376.400 264.800 C 375.733 264.800,375.600 264.533,375.600 263.200 C 375.600 262.133,375.433 261.633,375.100 261.700 C 374.798 261.760,374.549 261.268,374.471 260.455 C 374.383 259.529,374.102 259.047,373.571 258.908 C 372.996 258.758,372.800 258.353,372.800 257.316 C 372.800 256.262,372.606 255.875,372.000 255.716 C 371.557 255.600,371.200 255.170,371.200 254.753 C 371.200 254.267,370.917 254.000,370.400 254.000 C 369.733 254.000,369.600 253.733,369.600 252.400 C 369.600 251.067,369.467 250.800,368.800 250.800 C 368.267 250.800,368.000 250.533,368.000 250.000 C 368.000 249.467,367.733 249.200,367.200 249.200 C 366.667 249.200,366.400 248.933,366.400 248.400 C 366.400 247.867,366.133 247.600,365.600 247.600 C 364.958 247.600,364.800 247.333,364.800 246.247 C 364.800 245.230,364.601 244.841,364.000 244.684 C 363.560 244.569,363.200 244.209,363.200 243.884 C 363.200 243.559,362.840 243.199,362.400 243.084 C 361.960 242.969,361.600 242.588,361.600 242.237 C 361.600 241.867,361.265 241.600,360.800 241.600 C 360.267 241.600,360.000 241.333,360.000 240.800 C 360.000 240.267,359.733 240.000,359.200 240.000 C 358.667 240.000,358.400 239.733,358.400 239.200 C 358.400 238.667,358.133 238.400,357.600 238.400 C 357.083 238.400,356.800 238.133,356.800 237.647 C 356.800 237.230,356.443 236.800,356.000 236.684 C 355.560 236.569,355.200 236.188,355.200 235.837 C 355.200 235.376,354.814 235.200,353.800 235.200 C 352.667 235.200,352.400 235.048,352.400 234.400 C 352.400 233.867,352.133 233.600,351.600 233.600 C 351.067 233.600,350.800 233.333,350.800 232.800 C 350.800 232.283,350.533 232.000,350.047 232.000 C 349.630 232.000,349.200 231.643,349.084 231.200 C 348.924 230.587,348.538 230.400,347.437 230.400 C 346.256 230.400,346.000 230.254,346.000 229.582 C 346.000 229.133,345.775 228.794,345.500 228.830 C 343.719 229.061,342.800 228.764,342.800 227.957 C 342.800 227.351,342.621 227.183,342.163 227.359 C 341.745 227.519,341.458 227.343,341.328 226.845 C 341.019 225.666,338.852 225.393,337.902 226.414 C 337.105 227.269,336.202 227.215,334.600 226.219 C 334.160 225.945,333.080 225.491,332.200 225.209 C 331.320 224.926,330.420 224.555,330.200 224.384 C 329.980 224.212,329.080 223.938,328.200 223.775 C 327.320 223.613,326.240 223.246,325.800 222.960 C 325.360 222.674,324.190 222.317,323.200 222.165 C 322.210 222.014,321.040 221.700,320.600 221.468 C 320.160 221.236,318.180 220.824,316.200 220.553 C 314.220 220.282,311.790 219.875,310.800 219.648 C 308.037 219.014,293.423 219.152,291.000 219.835 M312.044 246.104 C 313.058 246.597,314.408 247.621,315.044 248.379 L 316.200 249.759 316.200 266.979 L 316.200 284.200 332.400 284.400 C 351.128 284.631,351.838 284.742,353.871 287.737 L 355.000 289.400 355.000 300.600 L 355.000 311.800 353.787 313.600 C 351.925 316.361,351.996 316.352,333.143 316.377 C 318.336 316.397,316.459 316.470,316.243 317.033 C 316.109 317.381,316.000 325.169,316.000 334.340 L 316.000 351.014 315.024 352.450 C 313.117 355.257,312.386 355.400,299.970 355.400 C 283.483 355.400,284.606 356.893,284.296 334.565 C 284.171 325.564,283.944 317.885,283.792 317.500 C 283.534 316.850,282.376 316.800,267.457 316.798 C 249.622 316.795,246.400 316.334,246.400 313.786 C 246.400 313.608,246.085 313.115,245.700 312.689 C 245.068 311.991,245.000 310.817,245.000 300.628 L 245.000 289.341 246.000 287.858 C 246.550 287.043,247.810 285.886,248.800 285.288 L 250.600 284.200 267.300 284.080 L 284.000 283.959 284.000 267.035 L 284.000 250.110 285.236 248.555 C 287.673 245.488,288.447 245.315,300.000 245.258 C 309.804 245.209,310.272 245.242,312.044 246.104 " stroke="none" fill="#75a44b" fill-rule="evenodd"></path><path id="path1" d="M269.043 32.363 C 268.896 33.465,268.615 34.467,268.418 34.589 C 268.220 34.711,267.852 35.484,267.599 36.306 C 267.134 37.817,266.769 38.707,265.243 42.044 C 264.779 43.058,264.399 44.138,264.397 44.444 C 264.396 44.750,264.037 45.540,263.600 46.200 C 263.163 46.860,262.804 47.650,262.803 47.956 C 262.801 48.262,262.440 49.297,262.000 50.256 C 261.560 51.215,260.840 52.785,260.400 53.744 C 259.960 54.703,259.600 55.694,259.600 55.945 C 259.600 56.197,259.240 57.075,258.800 57.896 C 258.360 58.716,258.000 59.625,258.000 59.915 C 258.000 60.205,257.662 61.107,257.248 61.921 C 256.067 64.245,255.363 65.866,253.390 70.800 C 252.378 73.330,251.202 76.132,250.775 77.026 C 250.349 77.921,250.000 78.883,250.000 79.165 C 250.000 79.446,249.759 80.154,249.465 80.738 C 248.036 83.574,247.197 85.437,247.185 85.800 C 247.178 86.020,246.825 86.920,246.400 87.800 C 245.975 88.680,245.621 89.649,245.614 89.953 C 245.606 90.257,245.225 91.112,244.767 91.853 C 243.973 93.138,243.969 93.211,244.667 93.429 C 245.070 93.555,245.670 93.825,246.000 94.030 C 246.330 94.234,247.050 94.586,247.600 94.812 C 248.150 95.037,249.140 95.469,249.800 95.772 C 250.460 96.075,251.450 96.519,252.000 96.758 C 252.550 96.998,253.270 97.347,253.600 97.534 C 254.247 97.901,256.605 98.994,259.800 100.409 C 260.900 100.896,262.070 101.455,262.400 101.650 C 262.730 101.846,263.450 102.202,264.000 102.442 C 264.550 102.682,265.720 103.203,266.600 103.600 C 267.480 103.997,268.650 104.518,269.200 104.758 C 269.750 104.998,270.470 105.355,270.800 105.551 C 271.422 105.921,275.724 107.963,279.675 109.763 C 280.927 110.333,282.120 110.800,282.326 110.800 C 282.533 110.800,282.922 111.065,283.191 111.389 C 283.460 111.714,284.286 112.092,285.026 112.231 C 285.766 112.370,286.570 112.723,286.813 113.016 C 287.056 113.309,287.770 113.662,288.400 113.800 C 289.030 113.938,289.759 114.310,290.021 114.626 C 290.283 114.942,290.681 115.200,290.905 115.200 C 291.129 115.200,292.052 115.546,292.956 115.970 C 293.860 116.393,296.400 117.585,298.600 118.617 C 300.800 119.650,303.680 120.992,305.000 121.600 C 306.320 122.208,308.975 123.446,310.900 124.352 C 312.825 125.259,315.975 126.732,317.900 127.627 C 319.825 128.522,322.840 129.934,324.600 130.765 C 326.360 131.596,328.880 132.771,330.200 133.376 C 331.520 133.981,333.109 134.747,333.731 135.079 C 334.544 135.512,335.386 135.603,336.726 135.402 L 338.591 135.122 337.696 134.397 C 337.203 133.998,336.800 133.285,336.800 132.812 C 336.800 132.340,336.656 132.042,336.481 132.150 C 335.854 132.537,335.208 131.737,335.051 130.380 C 334.939 129.411,334.699 129.017,334.246 129.056 C 333.867 129.088,333.600 128.809,333.600 128.383 C 333.600 127.982,333.240 127.540,332.800 127.400 C 332.232 127.220,332.000 126.795,332.000 125.936 C 332.000 125.062,331.778 124.667,331.200 124.516 C 330.714 124.389,330.400 123.970,330.400 123.450 C 330.400 122.978,330.040 122.368,329.600 122.093 C 329.148 121.810,328.800 121.160,328.800 120.597 C 328.800 119.867,328.586 119.600,328.000 119.600 C 327.248 119.600,326.975 118.859,327.163 117.330 C 327.254 116.597,326.350 116.235,325.961 116.849 C 325.721 117.229,325.610 116.996,325.606 116.100 C 325.602 115.214,325.409 114.800,325.000 114.800 C 324.627 114.800,324.400 114.422,324.400 113.800 C 324.400 113.250,324.071 112.471,323.669 112.069 C 323.268 111.668,322.819 111.026,322.672 110.644 C 322.526 110.262,322.224 110.062,322.002 110.199 C 321.494 110.513,320.743 108.614,321.054 107.803 C 321.214 107.387,321.033 107.200,320.468 107.200 C 319.838 107.200,319.622 106.902,319.525 105.900 C 319.449 105.107,319.201 104.640,318.891 104.703 C 318.606 104.761,318.275 104.276,318.141 103.603 C 317.976 102.779,317.664 102.400,317.150 102.400 C 316.653 102.400,316.384 102.097,316.354 101.500 C 316.261 99.694,316.191 99.467,315.690 99.364 C 315.410 99.307,315.365 99.352,315.590 99.463 C 316.238 99.785,316.067 100.400,315.400 100.145 C 315.054 100.012,314.800 99.414,314.800 98.734 C 314.800 98.084,314.656 97.642,314.481 97.750 C 313.901 98.108,313.254 97.402,313.099 96.240 C 313.015 95.611,312.677 94.894,312.348 94.648 C 312.019 94.402,311.632 93.883,311.486 93.496 C 311.341 93.109,310.992 92.839,310.711 92.896 C 310.395 92.960,310.151 92.486,310.071 91.655 C 309.986 90.760,309.699 90.246,309.214 90.120 C 308.440 89.917,307.807 87.846,308.279 87.059 C 308.430 86.807,308.239 86.855,307.854 87.168 C 307.470 87.480,307.186 87.570,307.225 87.368 C 307.413 86.380,307.133 85.632,306.500 85.428 C 305.798 85.200,304.800 83.494,304.800 82.520 C 304.800 82.234,304.632 82.000,304.427 82.000 C 304.222 82.000,303.939 81.637,303.798 81.194 C 303.657 80.751,303.388 80.484,303.199 80.601 C 302.721 80.896,302.438 80.329,302.325 78.855 C 302.273 78.165,302.115 77.600,301.974 77.600 C 301.144 77.600,299.200 75.075,299.200 73.997 C 299.200 73.067,299.022 72.800,298.400 72.800 C 297.867 72.800,297.600 72.533,297.600 72.000 C 297.600 71.467,297.333 71.200,296.800 71.200 C 296.148 71.200,296.000 70.933,296.000 69.763 C 296.000 68.679,295.810 68.275,295.229 68.123 C 294.700 67.985,294.374 67.430,294.193 66.361 C 294.032 65.408,293.710 64.800,293.365 64.800 C 293.054 64.800,292.800 64.440,292.800 64.000 C 292.800 63.556,292.533 63.200,292.200 63.200 C 291.846 63.200,291.597 62.831,291.594 62.300 C 291.588 61.452,290.819 59.770,290.806 60.576 C 290.803 60.784,290.546 60.605,290.235 60.181 C 289.925 59.756,289.756 59.272,289.859 59.104 C 289.963 58.937,289.677 58.800,289.224 58.800 C 288.465 58.800,288.105 57.739,288.364 56.266 C 288.396 56.082,288.058 55.836,287.611 55.719 C 287.159 55.600,286.800 55.174,286.800 54.753 C 286.800 54.267,286.517 54.000,286.000 54.000 C 285.333 54.000,285.200 53.733,285.200 52.400 C 285.200 51.067,285.067 50.800,284.400 50.800 C 283.644 50.800,283.420 50.224,283.497 48.473 C 283.510 48.184,283.427 48.040,283.312 48.154 C 282.988 48.478,282.000 47.329,282.000 46.629 C 282.000 46.283,281.865 46.021,281.700 46.047 C 280.699 46.205,280.400 45.872,280.400 44.600 C 280.400 43.830,280.265 43.221,280.100 43.247 C 279.216 43.387,278.800 43.116,278.800 42.400 C 278.800 41.867,278.533 41.600,278.000 41.600 C 277.355 41.600,277.200 41.333,277.200 40.227 C 277.200 39.205,276.995 38.789,276.400 38.600 C 275.960 38.460,275.600 37.998,275.600 37.573 C 275.600 37.148,275.330 36.800,275.000 36.800 C 274.578 36.800,274.400 36.374,274.400 35.363 C 274.400 34.303,274.207 33.875,273.663 33.732 C 273.217 33.616,272.783 32.961,272.563 32.070 C 272.237 30.750,272.052 30.588,270.754 30.479 L 269.309 30.358 269.043 32.363 M114.502 151.370 C 112.172 152.552,108.849 155.773,108.138 157.540 C 107.815 158.343,107.288 159.574,106.968 160.274 C 106.468 161.370,106.402 167.934,106.495 207.074 L 106.604 252.600 107.751 254.769 C 109.114 257.349,112.067 260.292,114.520 261.517 L 116.288 262.400 172.005 262.400 L 227.723 262.400 229.253 260.743 C 230.094 259.832,230.891 258.744,231.023 258.326 C 231.305 257.438,234.145 253.143,235.989 250.814 L 237.270 249.196 237.335 239.818 C 237.412 228.699,237.315 228.931,240.908 231.280 C 249.760 237.071,249.208 236.907,252.151 234.621 C 253.441 233.620,254.642 232.800,254.820 232.800 C 254.997 232.800,255.386 232.575,255.682 232.300 C 257.449 230.662,268.195 224.800,269.430 224.800 C 269.733 224.800,270.570 224.441,271.290 224.001 C 272.011 223.562,272.965 223.202,273.411 223.201 C 273.857 223.201,274.577 222.953,275.011 222.651 C 275.799 222.103,276.935 221.780,282.200 220.613 C 283.740 220.271,286.128 219.718,287.507 219.385 C 288.886 219.051,292.891 218.665,296.407 218.526 L 302.800 218.275 302.800 186.285 C 302.800 150.004,303.023 152.416,299.543 151.024 C 297.760 150.310,293.456 151.287,292.010 152.733 C 291.677 153.066,290.323 153.850,289.002 154.474 C 287.681 155.097,286.330 155.786,286.000 156.004 C 285.670 156.222,284.950 156.580,284.400 156.799 C 283.850 157.019,283.130 157.367,282.800 157.573 C 282.470 157.779,281.120 158.454,279.800 159.074 C 278.480 159.693,277.310 160.303,277.200 160.429 C 277.090 160.555,275.830 161.238,274.400 161.947 C 271.413 163.428,269.429 164.522,268.704 165.090 C 268.427 165.307,267.134 166.062,265.832 166.766 C 264.529 167.471,262.530 168.667,261.390 169.424 C 260.250 170.181,259.199 170.800,259.054 170.800 C 258.910 170.800,257.895 171.430,256.800 172.200 C 255.705 172.970,254.709 173.600,254.588 173.600 C 254.467 173.600,253.880 173.934,253.284 174.341 C 252.688 174.749,250.940 175.895,249.400 176.889 C 247.860 177.882,244.738 179.908,242.463 181.391 C 237.068 184.906,237.444 185.584,237.197 171.881 C 237.010 161.485,236.928 160.458,236.150 158.790 C 234.907 156.125,231.451 152.542,229.010 151.387 L 226.923 150.400 171.561 150.454 L 116.200 150.509 114.502 151.370 M289.027 246.633 C 284.606 248.252,284.620 248.190,284.483 267.579 C 284.405 278.698,284.224 284.330,283.934 284.679 C 283.592 285.091,280.135 285.200,267.411 285.200 C 244.249 285.200,245.600 284.237,245.600 300.749 L 245.600 311.538 246.918 313.266 C 249.065 316.081,248.383 315.988,266.851 315.994 C 279.681 315.999,283.596 316.115,283.911 316.500 C 284.601 317.342,284.829 321.238,285.027 335.600 C 285.305 355.789,284.163 354.375,300.200 354.373 C 316.553 354.371,315.127 356.340,315.284 333.539 C 315.348 324.223,315.546 316.375,315.724 316.100 C 315.974 315.713,319.837 315.600,332.798 315.600 C 349.767 315.600,350.772 315.520,352.200 314.058 C 354.294 311.913,354.200 312.538,354.200 300.779 L 354.200 289.738 353.061 288.244 C 351.353 286.005,351.306 286.000,333.223 286.000 C 318.123 286.000,316.445 285.935,315.949 285.336 C 315.497 284.789,315.427 281.668,315.552 267.734 L 315.704 250.796 314.625 249.167 C 312.686 246.236,311.681 246.015,300.400 246.037 C 292.902 246.052,290.230 246.192,289.027 246.633 " stroke="none" fill="#FFFFFF" fill-rule="evenodd"></path><path id="path2" d="M74.667 30.667 C 74.520 30.813,74.400 107.493,74.400 201.067 L 74.400 371.200 165.800 371.200 C 255.871 371.200,257.200 371.189,257.200 370.427 C 257.200 370.002,256.840 369.540,256.400 369.400 C 255.960 369.260,255.600 368.883,255.600 368.560 C 255.600 368.238,255.285 367.860,254.900 367.720 C 254.196 367.464,250.546 364.653,249.800 363.792 C 249.580 363.538,249.026 363.132,248.570 362.889 C 247.799 362.478,243.794 358.962,242.545 357.600 C 241.509 356.469,238.200 352.546,237.000 351.025 C 236.340 350.189,235.395 349.050,234.900 348.494 C 234.405 347.938,234.000 347.342,234.000 347.170 C 234.000 346.998,233.775 346.619,233.500 346.329 C 232.727 345.511,230.800 342.595,230.800 342.242 C 230.800 342.068,230.440 341.469,230.000 340.909 C 229.560 340.350,229.200 339.578,229.200 339.195 C 229.200 338.812,228.942 338.283,228.626 338.021 C 228.310 337.759,227.936 337.017,227.794 336.372 C 227.652 335.728,227.378 335.200,227.184 335.200 C 226.991 335.200,226.616 334.478,226.351 333.595 C 226.087 332.713,225.630 331.791,225.335 331.546 C 225.041 331.302,224.800 330.716,224.800 330.245 C 224.800 329.774,224.440 328.716,224.000 327.896 C 223.560 327.075,223.194 325.997,223.186 325.501 C 223.179 325.006,222.825 323.880,222.400 323.000 C 221.975 322.120,221.613 320.770,221.596 320.000 C 221.579 319.230,221.297 317.880,220.970 317.000 C 219.458 312.933,219.178 288.850,220.594 284.679 C 220.929 283.690,221.308 282.008,221.436 280.941 C 221.563 279.873,222.012 278.157,222.434 277.126 C 222.855 276.095,223.200 274.922,223.200 274.520 C 223.200 274.117,223.560 273.116,224.000 272.296 C 224.440 271.475,224.800 270.374,224.800 269.850 C 224.800 269.327,225.052 268.689,225.361 268.433 C 225.669 268.177,226.043 267.480,226.192 266.884 C 226.341 266.288,226.691 265.530,226.970 265.200 C 227.932 264.064,228.036 263.200,227.211 263.200 C 226.791 263.200,226.336 263.380,226.200 263.600 C 225.888 264.104,118.144 264.157,117.833 263.653 C 117.715 263.462,116.770 263.211,115.734 263.094 C 114.675 262.974,113.643 262.600,113.380 262.241 C 113.123 261.888,112.716 261.600,112.477 261.600 C 112.110 261.600,110.716 260.530,109.490 259.309 C 108.458 258.281,107.547 256.929,107.346 256.126 C 107.218 255.617,106.960 255.200,106.773 255.200 C 105.290 255.200,105.022 159.743,106.500 158.110 C 106.885 157.685,107.200 157.152,107.200 156.926 C 107.200 155.950,110.177 152.747,112.486 151.239 L 114.993 149.600 171.843 149.600 C 228.086 149.600,228.703 149.609,229.709 150.400 C 230.269 150.840,230.887 151.200,231.084 151.200 C 231.280 151.200,232.242 152.004,233.221 152.986 C 238.101 157.884,238.000 157.502,238.000 171.021 C 238.000 183.161,238.096 183.698,239.893 181.600 C 240.270 181.160,240.768 180.800,241.000 180.800 C 241.232 180.800,241.730 180.440,242.107 180.000 C 242.484 179.560,243.160 179.200,243.609 179.200 C 244.058 179.200,244.526 178.937,244.650 178.615 C 244.773 178.294,245.235 177.916,245.676 177.776 C 246.118 177.636,246.821 177.179,247.239 176.761 C 247.658 176.342,248.360 176.000,248.800 176.000 C 249.240 176.000,249.600 175.769,249.600 175.488 C 249.600 175.206,250.095 174.756,250.700 174.487 C 252.289 173.782,254.022 172.706,254.866 171.900 C 255.270 171.515,255.960 171.200,256.400 171.200 C 256.840 171.200,257.200 171.030,257.200 170.822 C 257.200 170.614,257.626 170.209,258.148 169.922 C 258.669 169.635,259.839 168.991,260.748 168.492 C 261.656 167.992,262.400 167.407,262.400 167.192 C 262.400 166.976,262.687 166.800,263.037 166.800 C 263.387 166.800,264.131 166.440,264.691 166.000 C 265.250 165.560,265.926 165.200,266.192 165.200 C 266.458 165.200,267.002 164.840,267.400 164.400 C 267.798 163.960,268.456 163.600,268.862 163.600 C 269.268 163.600,269.960 163.240,270.400 162.800 C 270.840 162.360,271.520 162.000,271.911 162.000 C 272.302 162.000,272.930 161.640,273.307 161.200 C 273.684 160.760,274.314 160.400,274.707 160.400 C 275.100 160.400,275.730 160.040,276.107 159.600 C 276.484 159.160,277.250 158.800,277.809 158.800 C 278.368 158.800,278.927 158.535,279.051 158.211 C 279.176 157.887,279.904 157.504,280.671 157.360 C 281.437 157.217,282.157 156.857,282.271 156.560 C 282.384 156.264,283.077 155.909,283.811 155.772 C 284.544 155.634,285.238 155.279,285.351 154.983 C 285.465 154.687,286.197 154.324,286.979 154.178 C 287.761 154.031,288.400 153.753,288.400 153.561 C 288.400 153.368,289.008 152.957,289.751 152.646 C 290.494 152.336,291.225 151.883,291.375 151.641 C 291.525 151.398,291.923 151.200,292.261 151.200 C 292.598 151.200,293.331 150.840,293.891 150.400 C 296.258 148.538,302.072 149.751,303.481 152.400 C 303.656 152.730,303.852 167.690,303.915 185.645 L 304.031 218.289 309.523 218.487 C 313.527 218.631,315.361 218.863,316.288 219.342 C 316.988 219.704,318.204 220.000,318.990 220.000 C 319.777 220.000,321.444 220.360,322.696 220.800 C 323.948 221.240,325.294 221.600,325.688 221.600 C 326.081 221.600,327.075 221.960,327.896 222.400 C 328.716 222.840,329.751 223.201,330.194 223.203 C 330.637 223.204,331.540 223.563,332.200 224.000 C 332.860 224.437,333.783 224.796,334.251 224.797 C 334.719 224.799,335.326 225.070,335.600 225.400 C 335.874 225.730,336.616 226.000,337.249 226.000 L 338.400 226.000 338.400 191.004 L 338.400 156.009 337.500 156.076 C 336.964 156.115,334.812 154.939,332.186 153.171 C 329.758 151.537,327.484 150.020,327.133 149.800 C 326.781 149.580,324.387 147.960,321.813 146.200 C 319.238 144.440,316.832 142.816,316.466 142.592 C 316.100 142.367,315.008 141.647,314.040 140.992 C 313.072 140.336,312.013 139.620,311.687 139.400 C 311.360 139.180,303.152 133.742,293.447 127.314 C 283.741 120.887,275.440 115.346,275.000 115.000 C 274.383 114.515,263.711 107.354,260.097 105.000 C 253.371 100.619,249.336 97.824,249.080 97.369 C 248.904 97.056,248.404 96.800,247.968 96.800 C 247.532 96.800,247.078 96.548,246.960 96.239 C 246.841 95.931,246.442 95.576,246.072 95.451 C 243.312 94.516,242.285 92.115,243.938 90.462 C 244.343 90.057,244.785 89.045,244.920 88.213 C 245.055 87.381,245.443 86.394,245.783 86.019 C 246.122 85.644,246.400 84.884,246.400 84.330 C 246.400 83.776,246.760 82.907,247.200 82.400 C 247.640 81.893,248.000 81.079,248.000 80.593 C 248.000 80.106,248.334 79.279,248.742 78.754 C 249.150 78.229,249.608 77.125,249.760 76.300 C 249.912 75.475,250.200 74.800,250.400 74.800 C 250.600 74.800,250.888 74.125,251.040 73.300 C 251.192 72.475,251.650 71.371,252.058 70.846 C 252.466 70.321,252.800 69.479,252.800 68.975 C 252.800 68.470,253.057 67.800,253.371 67.486 C 253.685 67.172,254.064 66.266,254.213 65.472 C 254.362 64.678,254.730 63.824,255.031 63.574 C 255.332 63.324,255.696 62.463,255.840 61.660 C 255.984 60.857,256.335 59.930,256.620 59.600 C 256.904 59.270,257.263 58.460,257.417 57.800 C 257.570 57.140,257.914 56.420,258.182 56.200 C 258.449 55.980,258.779 55.103,258.917 54.250 C 259.054 53.398,259.419 52.408,259.729 52.050 C 260.039 51.693,260.421 50.860,260.577 50.200 C 260.734 49.540,261.094 48.730,261.376 48.400 C 261.659 48.070,262.002 47.205,262.140 46.477 C 262.277 45.749,262.662 44.881,262.995 44.548 C 263.328 44.215,263.600 43.414,263.600 42.768 C 263.600 42.087,263.937 41.304,264.400 40.907 C 264.840 40.530,265.200 39.746,265.200 39.165 C 265.200 38.584,265.560 37.650,266.000 37.091 C 266.440 36.531,266.800 35.647,266.800 35.126 C 266.800 34.605,267.097 33.753,267.461 33.234 C 267.825 32.715,268.169 31.865,268.226 31.345 L 268.330 30.400 171.631 30.400 C 118.447 30.400,74.813 30.520,74.667 30.667 M238.000 239.200 C 238.000 243.600,238.135 247.177,238.300 247.149 C 238.465 247.120,240.760 244.842,243.400 242.086 L 248.200 237.074 246.973 236.565 C 246.298 236.286,245.511 235.774,245.224 235.428 C 244.937 235.083,244.494 234.800,244.240 234.800 C 243.986 234.800,243.470 234.440,243.093 234.000 C 242.716 233.560,242.055 233.200,241.624 233.200 C 241.193 233.200,240.696 232.956,240.520 232.658 C 240.220 232.150,238.726 231.200,238.226 231.200 C 238.102 231.200,238.000 234.800,238.000 239.200 " stroke="none" fill="#df6fa4" fill-rule="evenodd"></path><path id="path3" d="M246.900 96.100 C 246.991 96.375,247.411 96.661,247.833 96.736 C 248.255 96.811,248.870 97.185,249.200 97.568 C 249.684 98.130,257.294 103.339,260.056 105.000 C 261.392 105.803,274.223 114.390,275.000 115.000 C 275.440 115.346,283.741 120.887,293.447 127.314 C 303.152 133.742,311.360 139.180,311.687 139.400 C 312.013 139.620,313.072 140.336,314.040 140.992 C 315.008 141.647,316.100 142.367,316.466 142.592 C 316.832 142.816,319.239 144.440,321.816 146.200 C 324.392 147.960,326.987 149.694,327.582 150.054 C 328.177 150.413,330.513 151.967,332.774 153.505 C 338.717 157.551,338.400 157.950,338.400 146.404 L 338.400 136.902 336.728 136.635 C 335.808 136.488,333.513 135.638,331.628 134.746 C 329.742 133.854,326.760 132.454,325.000 131.635 C 323.240 130.816,320.180 129.387,318.200 128.460 C 316.220 127.534,313.880 126.440,313.000 126.029 C 312.120 125.619,309.870 124.562,308.000 123.681 C 306.130 122.800,303.250 121.454,301.600 120.690 C 296.644 118.394,292.403 116.409,288.600 114.605 C 286.620 113.666,284.190 112.534,283.200 112.089 C 281.068 111.131,275.896 108.708,269.800 105.813 C 267.380 104.663,264.590 103.355,263.600 102.906 C 259.823 101.192,255.312 99.067,253.088 97.956 C 251.816 97.320,250.466 96.794,250.088 96.787 C 249.710 96.780,249.051 96.510,248.624 96.187 C 247.674 95.469,246.673 95.419,246.900 96.100 M337.898 150.500 C 337.825 152.535,337.766 150.870,337.766 146.800 C 337.766 142.730,337.825 141.065,337.898 143.100 C 337.971 145.135,337.971 148.465,337.898 150.500 M292.200 218.655 C 291.100 218.737,289.030 219.070,287.600 219.395 C 286.170 219.720,283.740 220.267,282.200 220.610 C 276.899 221.791,275.798 222.104,275.011 222.651 C 274.577 222.953,273.857 223.201,273.411 223.201 C 272.965 223.202,272.011 223.562,271.290 224.001 C 270.570 224.441,269.733 224.800,269.430 224.800 C 268.780 224.800,259.083 229.729,257.786 230.718 C 257.295 231.093,256.557 231.620,256.146 231.888 C 255.736 232.157,254.500 233.014,253.400 233.794 C 252.300 234.574,250.500 235.824,249.400 236.572 C 246.673 238.428,239.611 245.627,237.187 249.022 C 234.104 253.339,231.427 257.333,231.124 258.070 C 230.972 258.438,230.213 259.643,229.437 260.747 C 228.662 261.850,227.913 263.207,227.774 263.760 C 227.635 264.314,227.281 264.967,226.986 265.211 C 226.692 265.455,226.338 266.170,226.200 266.800 C 226.062 267.430,225.690 268.159,225.374 268.421 C 225.058 268.683,224.800 269.327,224.800 269.850 C 224.800 270.374,224.440 271.475,224.000 272.296 C 223.560 273.116,223.200 274.117,223.200 274.520 C 223.200 274.922,222.855 276.095,222.434 277.126 C 222.012 278.157,221.563 279.873,221.436 280.941 C 221.308 282.008,220.929 283.690,220.594 284.679 C 219.178 288.850,219.458 312.933,220.970 317.000 C 221.297 317.880,221.579 319.230,221.596 320.000 C 221.613 320.770,221.975 322.120,222.400 323.000 C 222.825 323.880,223.179 325.006,223.186 325.501 C 223.194 325.997,223.560 327.075,224.000 327.896 C 224.440 328.716,224.800 329.774,224.800 330.245 C 224.800 330.716,225.041 331.302,225.335 331.546 C 225.630 331.791,226.087 332.713,226.351 333.595 C 226.616 334.478,226.991 335.200,227.184 335.200 C 227.378 335.200,227.652 335.728,227.794 336.372 C 227.936 337.017,228.310 337.759,228.626 338.021 C 228.942 338.283,229.200 338.812,229.200 339.195 C 229.200 339.578,229.560 340.350,230.000 340.909 C 230.440 341.469,230.800 342.068,230.800 342.242 C 230.800 342.595,232.727 345.511,233.500 346.329 C 233.775 346.619,234.000 346.998,234.000 347.170 C 234.000 347.342,234.405 347.938,234.900 348.494 C 235.395 349.050,236.340 350.189,237.000 351.025 C 238.200 352.546,241.509 356.469,242.545 357.600 C 243.794 358.962,247.799 362.478,248.570 362.889 C 249.026 363.132,249.580 363.538,249.800 363.792 C 250.546 364.653,254.196 367.464,254.900 367.720 C 255.285 367.860,255.600 368.238,255.600 368.560 C 255.600 368.883,255.960 369.260,256.400 369.400 C 256.847 369.542,257.200 370.005,257.200 370.451 C 257.200 370.889,257.380 371.136,257.600 371.000 C 258.253 370.596,258.032 369.470,257.086 368.378 C 256.302 367.475,255.597 366.923,253.279 365.400 C 252.944 365.180,252.362 364.730,251.986 364.400 C 251.610 364.070,250.530 363.170,249.586 362.400 C 245.945 359.430,237.478 350.595,236.255 348.490 C 235.333 346.902,234.205 345.391,233.710 345.080 C 233.429 344.904,233.200 344.468,233.200 344.112 C 233.200 343.755,232.901 343.133,232.536 342.729 C 231.629 341.727,229.652 338.108,228.424 335.200 C 228.192 334.650,227.834 333.930,227.629 333.600 C 226.928 332.471,225.505 329.151,225.175 327.875 C 224.820 326.502,223.829 323.340,223.145 321.400 C 222.912 320.740,222.473 318.736,222.168 316.946 C 221.864 315.156,221.432 313.209,221.207 312.620 C 220.539 310.863,220.677 289.369,221.372 286.973 C 221.686 285.888,222.069 283.920,222.223 282.600 C 222.376 281.280,222.728 279.750,223.004 279.200 C 223.280 278.650,223.632 277.436,223.788 276.502 C 223.943 275.568,224.222 274.710,224.408 274.595 C 224.594 274.480,224.948 273.413,225.195 272.224 C 225.442 271.035,225.885 269.861,226.180 269.616 C 226.475 269.372,226.830 268.566,226.969 267.826 C 227.108 267.086,227.475 266.270,227.785 266.013 C 228.095 265.755,228.462 265.030,228.600 264.400 C 228.738 263.770,229.098 263.050,229.400 262.800 C 229.702 262.550,230.064 261.817,230.206 261.172 C 230.348 260.528,230.607 260.000,230.783 260.000 C 230.959 260.000,231.327 259.460,231.600 258.800 C 231.873 258.140,232.243 257.600,232.422 257.600 C 232.600 257.600,232.871 257.205,233.024 256.723 C 233.310 255.822,236.274 251.497,237.380 250.366 C 237.721 250.018,238.000 249.596,238.000 249.429 C 238.000 248.823,247.477 239.439,250.600 236.953 C 252.360 235.551,254.085 234.134,254.434 233.802 C 254.782 233.471,255.240 233.200,255.452 233.200 C 255.664 233.200,256.189 232.930,256.619 232.600 C 258.287 231.319,260.351 230.118,264.111 228.241 C 266.262 227.167,268.109 226.147,268.216 225.975 C 268.322 225.803,268.992 225.540,269.705 225.392 C 270.417 225.243,271.360 224.896,271.800 224.621 C 272.240 224.346,273.301 223.990,274.158 223.831 C 275.016 223.672,276.096 223.302,276.558 223.009 C 277.021 222.716,278.210 222.348,279.200 222.191 C 280.190 222.034,281.450 221.682,282.000 221.408 C 282.550 221.135,284.350 220.797,286.000 220.658 C 287.650 220.519,289.990 220.136,291.200 219.807 C 293.813 219.097,307.902 218.983,310.800 219.648 C 311.790 219.875,314.220 220.282,316.200 220.553 C 318.180 220.824,320.160 221.236,320.600 221.468 C 321.040 221.700,322.210 222.014,323.200 222.165 C 324.190 222.317,325.360 222.674,325.800 222.960 C 326.240 223.246,327.267 223.603,328.083 223.755 C 328.899 223.906,330.069 224.292,330.683 224.612 C 331.297 224.933,331.946 225.196,332.125 225.198 C 332.303 225.199,333.407 225.653,334.576 226.206 C 335.746 226.759,336.995 227.100,337.351 226.963 C 338.320 226.592,338.134 226.000,337.049 226.000 C 336.526 226.000,335.874 225.730,335.600 225.400 C 335.326 225.070,334.719 224.799,334.251 224.797 C 333.783 224.796,332.860 224.437,332.200 224.000 C 331.540 223.563,330.637 223.204,330.194 223.203 C 329.751 223.201,328.716 222.840,327.896 222.400 C 327.075 221.960,326.081 221.600,325.688 221.600 C 325.294 221.600,323.948 221.240,322.696 220.800 C 321.444 220.360,319.777 220.000,318.990 220.000 C 318.204 220.000,316.984 219.689,316.280 219.309 C 315.028 218.634,298.514 218.185,292.200 218.655 M288.136 246.154 C 287.220 246.619,285.915 247.700,285.236 248.555 L 284.000 250.110 284.000 267.035 L 284.000 283.959 267.300 284.080 L 250.600 284.200 248.800 285.288 C 247.810 285.886,246.550 287.043,246.000 287.858 L 245.000 289.341 245.000 300.628 C 245.000 310.817,245.068 311.991,245.700 312.689 C 246.085 313.115,246.400 313.608,246.400 313.786 C 246.400 316.334,249.622 316.795,267.457 316.798 C 282.376 316.800,283.534 316.850,283.792 317.500 C 283.944 317.885,284.171 325.564,284.296 334.565 C 284.606 356.893,283.483 355.400,299.970 355.400 C 312.386 355.400,313.117 355.257,315.024 352.450 L 316.000 351.014 316.000 334.340 C 316.000 325.169,316.109 317.381,316.243 317.033 C 316.459 316.470,318.336 316.397,333.143 316.377 C 351.996 316.352,351.925 316.361,353.787 313.600 L 355.000 311.800 355.000 300.600 L 355.000 289.400 353.871 287.737 C 351.838 284.742,351.128 284.631,332.400 284.400 L 316.200 284.200 316.200 266.979 L 316.200 249.759 315.044 248.379 C 312.569 245.427,311.482 245.201,300.000 245.258 C 290.463 245.305,289.692 245.364,288.136 246.154 M311.874 246.777 C 312.900 247.244,313.962 248.165,314.622 249.161 L 315.696 250.785 315.548 267.728 C 315.426 281.664,315.497 284.790,315.949 285.336 C 316.444 285.935,318.128 286.000,333.223 286.000 C 351.306 286.000,351.353 286.005,353.061 288.244 L 354.200 289.738 354.200 300.779 C 354.200 312.538,354.294 311.913,352.200 314.058 C 350.772 315.520,349.767 315.600,332.798 315.600 C 319.837 315.600,315.974 315.713,315.724 316.100 C 315.546 316.375,315.348 324.310,315.284 333.734 C 315.198 346.383,315.041 351.027,314.684 351.474 C 314.418 351.806,313.665 352.601,313.011 353.239 L 311.822 354.400 300.211 354.387 L 288.600 354.375 287.496 353.403 C 285.493 351.641,285.422 351.121,285.140 336.200 C 284.866 321.722,284.592 317.357,283.904 316.500 C 283.594 316.115,279.685 315.999,266.851 315.994 C 248.383 315.988,249.065 316.081,246.918 313.266 L 245.600 311.538 245.600 300.749 C 245.600 284.237,244.249 285.200,267.411 285.200 C 280.135 285.200,283.592 285.091,283.934 284.679 C 284.224 284.330,284.405 278.698,284.483 267.579 C 284.643 244.858,283.748 246.070,300.400 246.037 C 309.199 246.020,310.371 246.095,311.874 246.777 " stroke="none" fill="#85a89a" fill-rule="evenodd"></path><path id="path4" d="M268.353 30.700 C 268.327 30.865,268.332 31.150,268.364 31.334 C 268.396 31.518,268.058 32.259,267.611 32.982 C 267.165 33.704,266.800 34.695,266.800 35.184 C 266.800 35.673,266.440 36.531,266.000 37.091 C 265.560 37.650,265.200 38.584,265.200 39.165 C 265.200 39.746,264.840 40.530,264.400 40.907 C 263.937 41.304,263.600 42.087,263.600 42.768 C 263.600 43.414,263.328 44.215,262.995 44.548 C 262.662 44.881,262.277 45.749,262.140 46.477 C 262.002 47.205,261.659 48.070,261.376 48.400 C 261.094 48.730,260.734 49.540,260.577 50.200 C 260.421 50.860,260.039 51.693,259.729 52.050 C 259.419 52.408,259.054 53.398,258.917 54.250 C 258.779 55.103,258.449 55.980,258.182 56.200 C 257.914 56.420,257.570 57.140,257.417 57.800 C 257.263 58.460,256.904 59.270,256.620 59.600 C 256.335 59.930,255.984 60.857,255.840 61.660 C 255.696 62.463,255.332 63.324,255.031 63.574 C 254.730 63.824,254.362 64.678,254.213 65.472 C 254.064 66.266,253.685 67.172,253.371 67.486 C 253.057 67.800,252.800 68.470,252.800 68.975 C 252.800 69.479,252.466 70.321,252.058 70.846 C 251.650 71.371,251.192 72.475,251.040 73.300 C 250.888 74.125,250.600 74.800,250.400 74.800 C 250.200 74.800,249.912 75.475,249.760 76.300 C 249.608 77.125,249.150 78.229,248.742 78.754 C 248.334 79.279,248.000 80.106,248.000 80.593 C 248.000 81.079,247.640 81.893,247.200 82.400 C 246.760 82.907,246.400 83.776,246.400 84.330 C 246.400 84.884,246.122 85.644,245.783 86.019 C 245.443 86.394,245.055 87.381,244.920 88.213 C 244.785 89.045,244.343 90.057,243.938 90.462 C 242.846 91.554,243.031 94.400,244.194 94.400 C 244.473 94.400,244.926 94.670,245.200 95.000 C 245.474 95.330,246.182 95.600,246.773 95.600 C 247.364 95.600,248.196 95.864,248.624 96.187 C 249.051 96.510,249.710 96.780,250.088 96.787 C 250.466 96.794,251.816 97.320,253.088 97.956 C 255.312 99.067,259.823 101.192,263.600 102.906 C 264.590 103.355,267.380 104.663,269.800 105.813 C 275.896 108.708,281.068 111.131,283.200 112.089 C 284.190 112.534,286.620 113.666,288.600 114.605 C 292.403 116.409,296.644 118.394,301.600 120.690 C 303.250 121.454,306.130 122.800,308.000 123.681 C 309.870 124.562,312.120 125.619,313.000 126.029 C 313.880 126.440,316.220 127.534,318.200 128.460 C 320.180 129.387,323.240 130.816,325.000 131.635 C 326.760 132.454,329.742 133.854,331.628 134.746 C 335.822 136.730,338.560 137.307,338.328 136.158 C 338.202 135.533,337.880 135.422,336.494 135.526 C 335.542 135.598,334.332 135.397,333.706 135.064 C 333.098 134.740,331.520 133.981,330.200 133.376 C 328.880 132.771,326.360 131.596,324.600 130.765 C 322.840 129.934,319.825 128.522,317.900 127.627 C 315.975 126.732,312.825 125.259,310.900 124.352 C 308.975 123.446,306.320 122.208,305.000 121.600 C 303.680 120.992,300.800 119.650,298.600 118.617 C 296.400 117.585,293.860 116.393,292.956 115.970 C 292.052 115.546,291.129 115.200,290.905 115.200 C 290.681 115.200,290.283 114.942,290.021 114.626 C 289.759 114.310,289.030 113.938,288.400 113.800 C 287.770 113.662,287.056 113.309,286.813 113.016 C 286.570 112.723,285.766 112.370,285.026 112.231 C 284.286 112.092,283.460 111.714,283.191 111.389 C 282.922 111.065,282.533 110.800,282.326 110.800 C 282.120 110.800,280.927 110.333,279.675 109.763 C 275.724 107.963,271.422 105.921,270.800 105.551 C 270.470 105.355,269.750 104.998,269.200 104.758 C 268.650 104.518,267.480 103.997,266.600 103.600 C 265.720 103.203,264.550 102.682,264.000 102.442 C 263.450 102.202,262.730 101.846,262.400 101.650 C 262.070 101.455,260.900 100.896,259.800 100.409 C 256.605 98.994,254.247 97.901,253.600 97.534 C 253.270 97.347,252.550 96.998,252.000 96.758 C 251.450 96.519,250.460 96.075,249.800 95.772 C 249.140 95.469,248.150 95.037,247.600 94.812 C 247.050 94.586,246.330 94.234,246.000 94.030 C 245.670 93.825,245.070 93.555,244.667 93.429 C 243.969 93.211,243.973 93.138,244.767 91.853 C 245.225 91.112,245.606 90.257,245.614 89.953 C 245.621 89.649,245.975 88.680,246.400 87.800 C 246.825 86.920,247.178 86.020,247.185 85.800 C 247.197 85.437,248.036 83.574,249.465 80.738 C 249.759 80.154,250.000 79.446,250.000 79.165 C 250.000 78.883,250.349 77.921,250.775 77.026 C 251.202 76.132,252.378 73.330,253.390 70.800 C 255.363 65.866,256.067 64.245,257.248 61.921 C 257.662 61.107,258.000 60.205,258.000 59.915 C 258.000 59.625,258.360 58.716,258.800 57.896 C 259.240 57.075,259.600 56.197,259.600 55.945 C 259.600 55.694,259.982 54.658,260.450 53.644 C 262.538 49.114,262.800 48.480,262.803 47.956 C 262.804 47.650,263.163 46.860,263.600 46.200 C 264.037 45.540,264.396 44.750,264.397 44.444 C 264.400 43.927,265.307 41.751,266.638 39.068 C 266.947 38.445,267.200 37.718,267.200 37.452 C 267.200 37.187,267.567 36.256,268.015 35.385 C 269.003 33.466,269.519 30.400,268.854 30.400 C 268.604 30.400,268.379 30.535,268.353 30.700 M112.486 151.239 C 110.177 152.747,107.200 155.950,107.200 156.926 C 107.200 157.152,106.885 157.685,106.500 158.110 C 105.022 159.743,105.290 255.200,106.773 255.200 C 106.960 255.200,107.218 255.617,107.346 256.126 C 107.547 256.929,108.458 258.281,109.490 259.309 C 110.716 260.530,112.110 261.600,112.477 261.600 C 112.716 261.600,113.123 261.888,113.380 262.241 C 113.643 262.600,114.675 262.974,115.734 263.094 C 116.770 263.211,117.715 263.462,117.833 263.653 C 118.144 264.157,225.888 264.104,226.200 263.600 C 226.336 263.380,226.752 263.194,227.124 263.187 C 227.496 263.181,228.149 262.696,228.576 262.112 L 229.352 261.048 228.387 261.724 C 227.492 262.351,223.371 262.400,171.855 262.400 L 116.288 262.400 114.520 261.517 C 112.067 260.292,109.114 257.349,107.751 254.769 L 106.604 252.600 106.495 207.093 C 106.390 163.139,106.413 161.528,107.146 159.893 C 107.563 158.962,108.026 157.801,108.175 157.314 C 108.598 155.926,112.388 152.441,114.639 151.370 L 116.677 150.400 171.800 150.400 L 226.923 150.400 229.010 151.387 C 231.451 152.542,234.907 156.125,236.150 158.790 C 236.928 160.458,237.010 161.485,237.197 171.881 C 237.444 185.584,237.068 184.906,242.463 181.391 C 244.738 179.908,247.860 177.882,249.400 176.889 C 250.940 175.895,252.688 174.749,253.284 174.341 C 253.880 173.934,254.467 173.600,254.588 173.600 C 254.709 173.600,255.705 172.970,256.800 172.200 C 257.895 171.430,258.910 170.800,259.054 170.800 C 259.199 170.800,260.250 170.181,261.390 169.424 C 262.530 168.667,264.529 167.471,265.832 166.766 C 267.134 166.062,268.427 165.307,268.704 165.090 C 269.429 164.522,271.413 163.428,274.400 161.947 C 275.830 161.238,277.090 160.555,277.200 160.429 C 277.310 160.303,278.480 159.693,279.800 159.074 C 281.120 158.454,282.470 157.779,282.800 157.573 C 283.130 157.367,283.850 157.019,284.400 156.799 C 284.950 156.580,285.670 156.222,286.000 156.004 C 286.330 155.786,287.681 155.097,289.002 154.474 C 290.323 153.850,291.677 153.066,292.010 152.733 C 293.456 151.287,297.760 150.310,299.543 151.024 C 303.023 152.416,302.800 149.995,302.800 186.347 C 302.800 214.929,302.867 218.400,303.415 218.400 C 304.094 218.400,304.159 153.674,303.481 152.400 C 302.072 149.751,296.258 148.538,293.891 150.400 C 293.331 150.840,292.598 151.200,292.261 151.200 C 291.923 151.200,291.525 151.398,291.375 151.641 C 291.225 151.883,290.494 152.336,289.751 152.646 C 289.008 152.957,288.400 153.368,288.400 153.561 C 288.400 153.753,287.761 154.031,286.979 154.178 C 286.197 154.324,285.465 154.687,285.351 154.983 C 285.238 155.279,284.544 155.634,283.811 155.772 C 283.077 155.909,282.384 156.264,282.271 156.560 C 282.157 156.857,281.437 157.217,280.671 157.360 C 279.904 157.504,279.176 157.887,279.051 158.211 C 278.927 158.535,278.368 158.800,277.809 158.800 C 277.250 158.800,276.484 159.160,276.107 159.600 C 275.730 160.040,275.100 160.400,274.707 160.400 C 274.314 160.400,273.684 160.760,273.307 161.200 C 272.930 161.640,272.302 162.000,271.911 162.000 C 271.520 162.000,270.840 162.360,270.400 162.800 C 269.960 163.240,269.268 163.600,268.862 163.600 C 268.456 163.600,267.798 163.960,267.400 164.400 C 267.002 164.840,266.458 165.200,266.192 165.200 C 265.926 165.200,265.250 165.560,264.691 166.000 C 264.131 166.440,263.387 166.800,263.037 166.800 C 262.687 166.800,262.400 166.976,262.400 167.192 C 262.400 167.407,261.656 167.992,260.748 168.492 C 259.839 168.991,258.669 169.635,258.148 169.922 C 257.626 170.209,257.200 170.614,257.200 170.822 C 257.200 171.030,256.840 171.200,256.400 171.200 C 255.960 171.200,255.270 171.515,254.866 171.900 C 254.022 172.706,252.289 173.782,250.700 174.487 C 250.095 174.756,249.600 175.206,249.600 175.488 C 249.600 175.769,249.240 176.000,248.800 176.000 C 248.360 176.000,247.658 176.342,247.239 176.761 C 246.821 177.179,246.118 177.636,245.676 177.776 C 245.235 177.916,244.773 178.294,244.650 178.615 C 244.526 178.937,244.058 179.200,243.609 179.200 C 243.160 179.200,242.484 179.560,242.107 180.000 C 241.730 180.440,241.232 180.800,241.000 180.800 C 240.768 180.800,240.270 181.160,239.893 181.600 C 238.096 183.698,238.000 183.161,238.000 171.021 C 238.000 157.502,238.101 157.884,233.221 152.986 C 232.242 152.004,231.280 151.200,231.084 151.200 C 230.887 151.200,230.269 150.840,229.709 150.400 C 228.703 149.609,228.086 149.600,171.843 149.600 L 114.993 149.600 112.486 151.239 M237.724 230.100 C 237.326 230.714,237.026 245.652,237.382 247.072 C 237.914 249.191,238.060 247.430,238.016 239.436 C 237.991 234.906,238.079 231.200,238.212 231.200 C 238.723 231.200,240.215 232.143,240.520 232.658 C 240.696 232.956,241.193 233.200,241.624 233.200 C 242.055 233.200,242.716 233.560,243.093 234.000 C 243.470 234.440,243.980 234.800,244.227 234.800 C 244.474 234.800,244.987 235.144,245.367 235.564 C 245.748 235.984,246.503 236.440,247.046 236.576 C 247.589 236.712,247.924 237.000,247.791 237.215 C 247.658 237.430,248.014 237.394,248.582 237.136 L 249.614 236.665 248.232 235.833 C 247.471 235.375,245.803 234.380,244.525 233.622 C 243.246 232.865,241.347 231.650,240.304 230.922 C 238.150 229.420,238.161 229.424,237.724 230.100 " stroke="none" fill="#8eb1d4" fill-rule="evenodd"></path></g></svg>