<svg id="svg" version="1.1" xmlns="http://www.w3.org/2000/svg" xmlns:xlink="http://www.w3.org/1999/xlink" width="400" height="322.44897959183675" viewBox="0, 0, 400,322.44897959183675">
    <g id="svgg">
        <path id="path0" d="M11.079 0.726 C 10.997 0.859,10.612 0.968,10.223 0.968 C 6.753 0.969,1.910 5.764,0.658 10.437 C -0.256 13.846,-0.397 242.558,0.512 246.184 C 1.660 250.761,4.471 254.028,8.710 255.713 C 10.093 256.263,16.220 256.298,139.516 256.452 L 268.871 256.613 268.956 266.685 L 269.041 276.758 274.117 276.847 L 279.194 276.935 279.279 285.877 L 279.365 294.819 283.312 294.909 L 287.258 295.000 287.342 308.468 L 287.426 321.935 333.875 321.935 L 380.323 321.935 380.323 307.589 L 380.323 293.243 385.242 293.154 L 390.161 293.065 390.245 279.435 L 390.330 265.806 395.165 265.806 L 400.000 265.806 400.000 233.548 L 400.000 201.290 395.323 201.290 L 390.645 201.290 390.645 195.806 L 390.645 190.323 385.815 190.323 L 380.984 190.323 380.895 185.242 L 380.806 180.161 375.968 180.000 L 371.129 179.839 370.968 95.000 L 370.806 10.161 370.086 8.614 C 368.417 5.032,365.305 2.122,362.251 1.288 C 361.456 1.072,360.613 0.838,360.376 0.769 C 359.549 0.529,11.227 0.486,11.079 0.726 M344.759 99.839 L 344.840 173.065 339.517 173.065 L 334.194 173.065 334.194 168.306 L 334.194 163.548 325.726 163.548 L 317.258 163.549 317.346 144.677 L 317.434 125.806 312.749 125.806 L 308.065 125.806 308.065 120.968 L 308.065 116.129 297.751 116.129 L 287.437 116.129 287.347 120.887 L 287.258 125.645 282.175 125.734 L 277.092 125.823 277.175 165.008 L 277.258 204.194 272.574 204.194 L 267.891 204.194 268.013 201.774 L 268.135 199.355 254.874 199.355 L 241.613 199.355 241.613 213.065 L 241.613 226.774 245.444 226.774 C 249.755 226.774,250.108 226.937,249.940 228.851 L 249.839 230.005 137.984 230.083 L 26.129 230.161 26.129 128.817 C 26.129 73.077,26.217 27.242,26.325 26.962 C 26.503 26.497,40.748 26.458,185.599 26.532 L 344.677 26.613 344.759 99.839 M172.192 62.013 C 171.608 62.145,170.694 62.233,170.161 62.211 C 169.629 62.188,168.938 62.278,168.625 62.411 C 168.312 62.544,167.623 62.589,167.093 62.511 C 166.563 62.433,166.129 62.475,166.129 62.603 C 166.129 62.731,165.512 62.922,164.758 63.028 C 162.914 63.288,162.465 63.385,162.091 63.602 C 161.917 63.703,161.210 63.888,160.520 64.013 C 158.701 64.341,149.432 67.602,149.032 68.053 C 148.944 68.154,147.809 68.785,146.511 69.456 C 132.323 76.794,117.647 93.765,114.658 106.290 C 114.531 106.823,114.315 107.403,114.178 107.581 C 114.041 107.758,113.827 108.448,113.703 109.113 C 113.578 109.778,113.339 110.323,113.171 110.323 C 113.003 110.323,112.953 110.464,113.060 110.638 C 113.303 111.031,112.647 113.548,112.301 113.548 C 112.162 113.548,112.111 113.984,112.189 114.516 C 112.267 115.048,112.206 115.485,112.053 115.486 C 111.900 115.487,111.730 116.530,111.676 117.804 C 111.622 119.077,111.477 120.274,111.354 120.463 C 111.232 120.652,111.122 121.169,111.110 121.613 C 111.098 122.056,111.062 123.480,111.028 124.777 C 110.990 126.253,110.847 127.060,110.645 126.935 C 110.447 126.813,110.323 127.353,110.323 128.341 C 110.323 129.224,110.455 129.995,110.618 130.054 C 110.780 130.113,110.995 131.540,111.097 133.226 C 111.198 134.911,111.430 137.231,111.614 138.381 C 111.797 139.531,111.876 140.656,111.790 140.881 C 111.704 141.106,111.758 141.290,111.910 141.290 C 112.063 141.290,112.264 141.762,112.359 142.339 C 114.889 157.851,127.501 175.977,141.813 184.672 C 143.211 185.521,144.718 186.458,145.161 186.754 C 148.573 189.030,160.277 193.268,164.548 193.774 C 165.418 193.877,166.129 194.049,166.129 194.158 C 166.129 194.266,166.601 194.375,167.177 194.399 C 167.754 194.424,168.734 194.512,169.355 194.595 C 169.976 194.679,171.109 194.768,171.874 194.793 C 172.638 194.818,173.197 194.948,173.114 195.081 C 172.929 195.380,181.711 195.406,181.938 195.107 C 182.028 194.989,183.044 194.817,184.196 194.725 C 185.348 194.633,187.150 194.397,188.201 194.201 C 189.251 194.005,190.304 193.919,190.539 194.009 C 190.775 194.099,190.968 194.049,190.968 193.896 C 190.968 193.744,191.440 193.545,192.016 193.454 C 193.589 193.208,198.092 191.964,199.194 191.472 C 199.726 191.234,200.524 190.933,200.968 190.804 C 203.428 190.085,210.232 186.636,213.756 184.320 C 224.348 177.362,233.046 167.317,237.888 156.452 C 238.560 154.944,239.307 153.274,239.547 152.742 C 239.787 152.210,240.283 150.794,240.650 149.597 C 241.016 148.399,241.451 147.419,241.616 147.419 C 241.780 147.419,241.843 147.230,241.754 146.999 C 241.665 146.767,241.960 145.062,242.409 143.208 C 242.858 141.355,243.225 139.440,243.225 138.952 C 243.226 138.464,243.335 138.065,243.468 138.065 C 243.743 138.065,243.782 137.078,243.841 128.548 C 244.001 105.336,232.762 84.683,213.141 72.132 C 209.153 69.581,200.559 65.484,199.195 65.484 C 198.928 65.484,198.710 65.330,198.710 65.142 C 198.710 64.954,198.570 64.887,198.400 64.992 C 198.230 65.097,197.831 65.035,197.513 64.854 C 196.765 64.428,190.635 62.968,188.548 62.719 C 187.661 62.613,186.718 62.455,186.452 62.368 C 185.116 61.931,173.810 61.650,172.192 62.013 M157.388 92.450 C 158.026 92.822,160.363 94.185,162.581 95.478 C 164.798 96.772,169.516 99.501,173.065 101.543 C 176.613 103.585,180.895 106.049,182.581 107.019 C 184.266 107.989,186.226 109.128,186.935 109.550 C 187.645 109.973,189.387 110.980,190.806 111.790 C 192.226 112.599,193.879 113.551,194.480 113.907 C 196.131 114.883,203.854 119.337,205.323 120.160 C 206.032 120.558,208.427 121.941,210.645 123.233 C 212.863 124.526,215.726 126.178,217.009 126.905 C 219.860 128.521,219.905 128.377,215.791 130.740 C 211.838 133.009,203.898 137.582,197.742 141.134 C 195.347 142.517,193.024 143.854,192.581 144.106 C 192.137 144.358,189.815 145.704,187.419 147.097 C 185.024 148.491,181.395 150.587,179.355 151.757 C 177.315 152.926,175.065 154.235,174.355 154.664 C 173.645 155.093,171.250 156.474,169.032 157.732 C 166.815 158.991,164.419 160.369,163.710 160.795 C 161.673 162.017,154.937 165.806,154.801 165.806 C 154.733 165.806,154.715 148.963,154.761 128.377 L 154.844 90.948 155.536 91.361 C 155.917 91.588,156.751 92.078,157.388 92.450 M307.097 168.548 L 307.097 210.968 312.266 210.968 L 317.435 210.968 317.346 192.258 L 317.258 173.548 325.408 173.548 L 333.558 173.548 333.472 194.516 L 333.387 215.484 338.710 215.484 L 344.032 215.484 344.032 199.597 L 344.032 183.710 351.855 183.623 L 359.677 183.537 359.677 202.575 L 359.677 221.613 365.000 221.613 L 370.323 221.613 370.322 206.048 L 370.321 190.484 374.193 190.583 L 378.065 190.683 378.065 196.141 L 378.065 201.598 383.790 201.686 L 389.516 201.774 389.598 232.500 L 389.681 263.226 385.002 263.226 C 382.428 263.226,380.291 263.262,380.253 263.306 C 380.215 263.351,380.106 268.177,380.011 274.032 L 379.839 284.677 375.081 284.767 L 370.323 284.856 370.323 298.396 L 370.323 311.935 333.871 311.935 L 297.419 311.935 297.419 302.903 L 297.419 293.871 293.387 293.871 L 289.355 293.871 289.355 282.903 L 289.355 271.935 284.194 271.935 L 279.032 271.935 279.032 263.074 L 279.032 254.212 274.597 254.122 L 270.161 254.032 270.076 244.758 L 269.990 235.484 265.505 235.484 C 259.471 235.484,260.000 235.967,260.000 230.459 L 260.000 225.826 256.048 225.736 L 252.097 225.645 252.010 218.087 C 251.943 212.256,252.017 210.470,252.333 210.270 C 252.558 210.127,256.008 210.040,260.000 210.076 L 267.258 210.143 259.839 210.323 L 252.419 210.502 259.758 210.574 L 267.097 210.645 267.097 214.508 L 267.097 218.371 272.339 218.460 L 277.581 218.548 277.665 232.984 L 277.749 247.419 282.745 247.419 L 287.742 247.419 287.742 186.774 L 287.742 126.129 297.419 126.129 L 307.097 126.129 307.097 168.548 M361.514 129.069 C 363.899 130.074,366.686 133.677,365.972 134.832 C 365.860 135.013,365.922 135.161,366.110 135.161 C 367.249 135.161,366.129 140.221,364.548 142.218 C 362.488 144.818,357.629 145.907,354.677 144.429 C 344.755 139.460,351.296 124.764,361.514 129.069 M389.182 218.387 C 389.182 227.347,389.223 231.012,389.274 226.532 C 389.325 222.052,389.325 214.722,389.274 210.242 C 389.223 205.762,389.182 209.427,389.182 218.387 " stroke="none" fill="#040404" fill-rule="evenodd"></path>
        <path id="path1" d="M98.655 0.242 C 146.618 0.287,225.005 0.287,272.849 0.242 C 320.693 0.197,281.452 0.160,185.645 0.160 C 89.839 0.160,50.693 0.197,98.655 0.242 M7.097 1.309 C 7.097 1.497,6.952 1.561,6.774 1.452 C 6.597 1.342,6.452 1.372,6.452 1.517 C 6.452 1.663,6.134 1.926,5.747 2.101 C 5.359 2.276,4.983 2.603,4.912 2.828 C 4.840 3.053,5.443 2.835,6.251 2.344 C 7.663 1.487,8.104 0.968,7.419 0.968 C 7.242 0.968,7.097 1.121,7.097 1.309 M366.129 2.757 C 366.129 2.854,366.775 3.589,367.565 4.391 C 368.356 5.192,369.091 6.129,369.200 6.472 C 369.309 6.816,369.522 7.097,369.674 7.097 C 369.825 7.097,370.044 7.532,370.161 8.065 C 370.278 8.597,370.503 9.032,370.661 9.032 C 370.818 9.032,370.864 9.250,370.762 9.516 C 370.660 9.783,370.752 10.000,370.968 10.000 C 371.373 10.000,371.146 8.401,370.694 8.068 C 370.571 7.977,370.301 7.515,370.092 7.041 C 369.401 5.467,366.129 1.929,366.129 2.757 M3.400 3.724 C 2.874 4.144,2.552 4.595,2.684 4.727 C 2.815 4.858,3.310 4.579,3.783 4.106 C 4.895 2.994,4.636 2.736,3.400 3.724 M1.152 6.959 C 0.595 7.516,0.449 8.547,0.973 8.223 C 1.153 8.111,1.217 7.885,1.115 7.720 C 1.013 7.554,1.068 7.419,1.237 7.419 C 1.406 7.419,1.627 7.202,1.730 6.935 C 1.968 6.315,1.788 6.322,1.152 6.959 M370.990 11.210 C 371.079 12.156,371.569 12.683,371.590 11.855 C 371.603 11.367,371.468 10.968,371.290 10.968 C 371.113 10.968,370.978 11.077,370.990 11.210 M344.194 100.000 C 344.194 148.387,344.302 172.903,344.516 172.903 C 344.730 172.903,344.839 148.387,344.839 100.000 C 344.839 51.613,344.730 27.097,344.516 27.097 C 344.302 27.097,344.194 51.613,344.194 100.000 M174.516 61.290 C 174.516 61.483,175.753 61.613,177.581 61.613 C 179.409 61.613,180.645 61.483,180.645 61.290 C 180.645 61.098,179.409 60.968,177.581 60.968 C 175.753 60.968,174.516 61.098,174.516 61.290 M163.871 62.581 C 163.871 62.758,164.080 62.903,164.336 62.903 C 164.591 62.903,164.890 62.758,165.000 62.581 C 165.110 62.403,164.900 62.258,164.535 62.258 C 164.170 62.258,163.871 62.403,163.871 62.581 M190.000 62.581 C 190.000 62.758,190.290 62.903,190.645 62.903 C 191.000 62.903,191.290 62.758,191.290 62.581 C 191.290 62.403,191.000 62.258,190.645 62.258 C 190.290 62.258,190.000 62.403,190.000 62.581 M191.935 62.903 C 191.935 63.081,192.153 63.226,192.419 63.226 C 192.685 63.226,192.903 63.081,192.903 62.903 C 192.903 62.726,192.685 62.581,192.419 62.581 C 192.153 62.581,191.935 62.726,191.935 62.903 M157.419 64.194 C 157.419 64.371,157.637 64.516,157.903 64.516 C 158.169 64.516,158.387 64.371,158.387 64.194 C 158.387 64.016,158.169 63.871,157.903 63.871 C 157.637 63.871,157.419 64.016,157.419 64.194 M156.129 64.516 C 156.129 64.694,156.347 64.839,156.613 64.839 C 156.879 64.839,157.097 64.694,157.097 64.516 C 157.097 64.339,156.879 64.194,156.613 64.194 C 156.347 64.194,156.129 64.339,156.129 64.516 M153.235 65.471 C 152.974 65.636,152.885 65.888,153.037 66.031 C 153.190 66.174,153.379 66.108,153.459 65.885 C 153.538 65.662,153.726 65.556,153.876 65.648 C 154.026 65.741,154.240 65.669,154.352 65.489 C 154.604 65.080,153.872 65.069,153.235 65.471 M201.290 65.806 C 201.290 65.984,201.508 66.129,201.774 66.129 C 202.040 66.129,202.258 65.984,202.258 65.806 C 202.258 65.629,202.040 65.484,201.774 65.484 C 201.508 65.484,201.290 65.629,201.290 65.806 M151.301 66.364 C 150.878 66.840,150.890 66.873,151.408 66.674 C 151.727 66.552,152.122 66.452,152.284 66.452 C 152.447 66.452,152.581 66.306,152.581 66.129 C 152.581 65.632,151.828 65.770,151.301 66.364 M204.516 67.116 C 204.516 67.304,204.649 67.375,204.811 67.275 C 204.973 67.175,205.171 67.275,205.251 67.498 C 205.330 67.721,205.520 67.786,205.672 67.644 C 205.825 67.501,205.736 67.249,205.475 67.084 C 204.846 66.687,204.516 66.698,204.516 67.116 M148.629 67.319 C 148.319 67.400,148.065 67.578,148.065 67.714 C 148.065 67.850,147.491 68.150,146.791 68.382 C 146.091 68.613,145.442 68.999,145.349 69.240 C 145.211 69.601,145.362 69.598,146.220 69.219 C 148.412 68.250,149.657 67.571,149.667 67.339 C 149.678 67.083,149.541 67.081,148.629 67.319 M209.854 69.810 C 210.197 70.061,210.587 70.197,210.722 70.114 C 210.857 70.030,210.968 70.100,210.968 70.269 C 210.968 70.438,211.185 70.660,211.452 70.762 C 212.477 71.155,211.876 70.265,210.817 69.822 C 209.402 69.231,209.056 69.227,209.854 69.810 M143.548 70.094 C 142.738 70.468,142.193 71.010,142.409 71.226 C 142.566 71.384,143.916 70.646,144.452 70.110 C 144.970 69.592,144.647 69.586,143.548 70.094 M140.769 71.855 C 140.415 72.165,139.852 72.575,139.518 72.765 C 139.183 72.955,138.844 73.306,138.765 73.545 C 138.624 73.968,140.598 72.752,141.004 72.165 C 141.112 72.009,141.326 71.904,141.480 71.932 C 141.633 71.961,141.810 71.828,141.874 71.637 C 142.049 71.112,141.490 71.222,140.769 71.855 M213.548 71.884 C 213.548 72.033,213.911 72.320,214.355 72.522 C 215.286 72.946,215.369 72.835,214.654 72.120 C 214.104 71.570,213.548 71.451,213.548 71.884 M215.484 73.226 C 215.484 73.403,215.593 73.549,215.726 73.550 C 215.859 73.551,216.970 74.352,218.194 75.329 C 219.419 76.307,220.507 77.020,220.613 76.914 C 220.719 76.808,220.515 76.509,220.161 76.250 C 218.820 75.270,217.597 74.330,216.751 73.629 C 215.790 72.833,215.484 72.735,215.484 73.226 M137.615 74.059 C 137.494 74.373,137.566 74.521,137.802 74.442 C 138.284 74.282,138.550 73.548,138.126 73.548 C 137.953 73.548,137.723 73.778,137.615 74.059 M135.806 75.356 C 135.540 75.611,134.673 76.389,133.879 77.085 C 133.085 77.780,132.508 78.422,132.597 78.511 C 132.685 78.599,133.373 78.104,134.125 77.410 C 134.877 76.715,135.781 75.993,136.133 75.804 C 136.486 75.616,136.774 75.321,136.774 75.150 C 136.774 74.721,136.383 74.804,135.806 75.356 M221.290 77.618 C 221.290 77.797,222.169 78.652,224.516 80.758 C 224.960 81.156,225.941 82.187,226.697 83.049 C 227.454 83.911,228.159 84.529,228.265 84.424 C 228.456 84.232,221.865 77.419,221.488 77.419 C 221.379 77.419,221.290 77.509,221.290 77.618 M129.871 80.516 C 128.828 81.559,128.427 82.258,128.871 82.258 C 129.107 82.258,131.613 79.787,131.613 79.554 C 131.613 79.073,130.946 79.441,129.871 80.516 M126.330 84.530 C 125.820 85.069,125.506 85.614,125.631 85.739 C 125.757 85.864,126.068 85.677,126.323 85.322 C 126.578 84.968,127.000 84.423,127.261 84.113 C 128.069 83.152,127.309 83.492,126.330 84.530 M229.032 85.756 C 229.032 85.906,229.323 86.292,229.677 86.613 C 230.387 87.255,230.503 87.068,229.989 86.108 C 229.652 85.479,229.032 85.251,229.032 85.756 M124.435 86.800 C 123.829 87.153,123.671 87.742,124.182 87.742 C 124.353 87.742,124.649 87.452,124.839 87.097 C 125.231 86.363,125.211 86.348,124.435 86.800 M231.516 88.952 C 232.013 89.617,232.601 90.353,232.823 90.588 C 233.044 90.822,233.226 91.120,233.226 91.251 C 233.226 91.381,233.604 91.988,234.065 92.599 C 234.795 93.564,234.875 93.604,234.678 92.903 C 234.553 92.460,234.270 91.952,234.049 91.774 C 233.828 91.597,233.404 90.980,233.106 90.403 C 232.808 89.827,232.446 89.355,232.302 89.355 C 232.157 89.355,231.874 88.992,231.672 88.548 C 231.470 88.105,231.148 87.742,230.958 87.742 C 230.768 87.742,231.019 88.286,231.516 88.952 M123.285 88.344 C 122.887 88.596,121.935 90.174,121.935 90.582 C 121.935 90.879,123.104 89.541,123.516 88.770 C 123.932 87.993,123.908 87.948,123.285 88.344 M120.741 92.097 C 120.445 92.718,120.085 93.226,119.940 93.226 C 119.796 93.226,119.677 93.371,119.677 93.548 C 119.677 94.218,120.285 93.834,120.697 92.903 C 120.932 92.371,121.219 91.935,121.335 91.935 C 121.450 91.935,121.627 91.718,121.730 91.452 C 122.112 90.456,121.258 91.013,120.741 92.097 M155.806 92.265 C 155.806 92.457,156.242 92.766,156.774 92.952 C 157.306 93.137,157.742 93.420,157.742 93.580 C 157.742 93.740,157.887 93.871,158.065 93.871 C 158.741 93.871,158.334 93.359,157.094 92.652 C 156.386 92.247,155.806 92.073,155.806 92.265 M158.710 93.860 C 158.710 94.031,158.990 94.321,159.334 94.505 C 160.327 95.036,160.485 94.894,159.677 94.194 C 158.836 93.463,158.710 93.420,158.710 93.860 M235.045 94.355 C 235.147 94.621,235.369 94.839,235.537 94.839 C 235.706 94.839,235.755 94.984,235.645 95.161 C 235.536 95.339,235.600 95.484,235.787 95.484 C 236.284 95.484,236.206 94.962,235.622 94.378 C 234.986 93.742,234.807 93.734,235.045 94.355 M160.645 95.102 C 160.645 95.352,162.682 96.452,163.147 96.452 C 163.269 96.452,163.010 96.199,162.572 95.890 C 162.133 95.580,161.665 95.363,161.532 95.406 C 161.399 95.449,161.290 95.339,161.290 95.161 C 161.290 94.984,161.145 94.839,160.968 94.839 C 160.790 94.839,160.645 94.957,160.645 95.102 M118.468 95.987 C 117.993 96.502,117.953 96.774,118.353 96.774 C 118.628 96.774,119.143 95.804,118.959 95.632 C 118.911 95.586,118.690 95.746,118.468 95.987 M164.839 97.581 C 165.899 98.187,166.423 98.194,165.626 97.591 C 165.282 97.330,164.782 97.118,164.516 97.118 C 164.236 97.119,164.371 97.313,164.839 97.581 M237.274 98.417 C 237.557 98.966,237.855 99.349,237.936 99.268 C 238.184 99.021,237.457 97.419,237.096 97.419 C 236.898 97.419,236.971 97.832,237.274 98.417 M166.452 98.414 C 166.452 98.595,166.996 98.969,167.661 99.246 C 168.327 99.523,168.944 99.857,169.032 99.988 C 169.224 100.272,170.505 100.968,170.835 100.968 C 171.341 100.968,169.524 99.664,168.505 99.295 C 167.908 99.079,167.419 98.802,167.419 98.679 C 167.419 98.557,167.202 98.373,166.935 98.270 C 166.669 98.168,166.452 98.233,166.452 98.414 M115.939 101.129 C 115.828 101.573,115.607 101.935,115.449 101.935 C 115.291 101.935,115.161 102.081,115.161 102.258 C 115.161 102.949,115.696 102.527,116.184 101.452 C 116.465 100.831,116.571 100.323,116.418 100.323 C 116.266 100.323,116.050 100.685,115.939 101.129 M171.290 101.231 C 171.290 101.481,173.328 102.581,173.792 102.581 C 173.915 102.581,173.656 102.328,173.217 102.019 C 172.778 101.710,172.310 101.492,172.177 101.535 C 172.044 101.578,171.935 101.468,171.935 101.290 C 171.935 101.113,171.790 100.968,171.613 100.968 C 171.435 100.968,171.290 101.086,171.290 101.231 M174.194 102.899 C 174.194 103.254,176.406 104.346,176.644 104.109 C 176.712 104.041,176.188 103.660,175.480 103.263 C 174.751 102.853,174.194 102.695,174.194 102.899 M114.712 103.736 C 114.359 104.655,114.527 105.013,115.010 104.374 C 115.271 104.029,115.484 103.630,115.484 103.487 C 115.484 103.025,114.914 103.209,114.712 103.736 M239.857 104.274 C 240.129 105.159,240.265 105.326,240.513 105.078 C 240.791 104.800,240.336 103.548,239.957 103.548 C 239.771 103.548,239.729 103.857,239.857 104.274 M177.097 104.505 C 177.097 104.676,177.378 104.966,177.721 105.150 C 178.714 105.682,178.872 105.539,178.065 104.839 C 177.223 104.109,177.097 104.065,177.097 104.505 M179.419 105.917 C 179.908 106.406,181.123 107.097,181.493 107.097 C 181.628 107.097,181.246 106.734,180.645 106.290 C 179.483 105.433,178.695 105.193,179.419 105.917 M182.742 107.742 C 182.632 107.920,182.934 108.215,183.412 108.397 C 184.542 108.826,184.638 108.687,183.697 107.983 C 183.234 107.637,182.865 107.544,182.742 107.742 M184.839 109.028 C 184.839 109.310,185.854 110.000,186.269 110.000 C 186.760 110.000,186.359 109.416,185.645 109.091 C 185.184 108.881,184.839 108.854,184.839 109.028 M187.161 110.433 C 187.626 110.898,188.859 111.613,189.195 111.613 C 189.516 111.613,188.612 110.788,187.837 110.374 C 186.908 109.876,186.629 109.901,187.161 110.433 M111.935 112.258 C 111.935 112.613,112.081 112.903,112.258 112.903 C 112.435 112.903,112.581 112.613,112.581 112.258 C 112.581 111.903,112.435 111.613,112.258 111.613 C 112.081 111.613,111.935 111.903,111.935 112.258 M190.323 112.206 C 190.323 112.454,191.710 113.226,192.155 113.226 C 192.260 113.226,191.976 112.935,191.525 112.581 C 190.636 111.882,190.323 111.784,190.323 112.206 M193.387 114.194 C 193.497 114.371,193.785 114.516,194.028 114.516 C 194.271 114.516,194.665 114.711,194.903 114.949 C 195.540 115.587,196.801 116.210,197.017 115.994 C 197.250 115.761,197.268 115.775,195.363 114.732 C 193.716 113.831,193.051 113.649,193.387 114.194 M242.903 114.839 C 242.903 115.194,243.048 115.484,243.226 115.484 C 243.403 115.484,243.548 115.194,243.548 114.839 C 243.548 114.484,243.403 114.194,243.226 114.194 C 243.048 114.194,242.903 114.484,242.903 114.839 M308.322 120.483 L 308.419 125.484 313.000 125.413 L 317.581 125.342 313.145 125.243 L 308.710 125.143 308.710 120.313 C 308.710 117.657,308.601 115.484,308.468 115.483 C 308.335 115.483,308.269 117.733,308.322 120.483 M197.806 116.562 C 198.271 117.027,199.504 117.742,199.841 117.742 C 200.161 117.742,199.257 116.917,198.482 116.503 C 197.554 116.006,197.274 116.030,197.806 116.562 M200.968 118.395 C 200.968 118.577,201.340 118.867,201.795 119.040 C 203.007 119.501,203.087 119.431,202.170 118.710 C 201.250 117.986,200.968 117.912,200.968 118.395 M205.548 121.078 C 205.998 121.528,207.242 122.258,207.559 122.258 C 208.124 122.258,207.587 121.658,206.602 121.189 C 205.225 120.532,204.976 120.506,205.548 121.078 M110.323 122.097 C 110.323 122.718,110.468 123.226,110.645 123.226 C 110.823 123.226,110.968 122.718,110.968 122.097 C 110.968 121.476,110.823 120.968,110.645 120.968 C 110.468 120.968,110.323 121.476,110.323 122.097 M208.710 122.911 C 208.710 123.093,209.082 123.383,209.537 123.556 C 210.742 124.014,210.833 123.949,210.000 123.226 C 209.182 122.517,208.710 122.401,208.710 122.911 M244.194 124.677 C 244.194 125.476,244.339 126.129,244.516 126.129 C 244.694 126.129,244.839 125.476,244.839 124.677 C 244.839 123.879,244.694 123.226,244.516 123.226 C 244.339 123.226,244.194 123.879,244.194 124.677 M211.613 124.521 C 211.613 124.705,211.978 124.993,212.424 125.163 C 212.870 125.333,213.667 125.791,214.194 126.181 C 214.918 126.716,216.137 126.876,215.457 126.347 C 214.624 125.699,211.613 124.269,211.613 124.521 M279.435 125.401 C 280.810 125.462,283.060 125.462,284.435 125.401 C 285.810 125.341,284.685 125.291,281.935 125.291 C 279.185 125.291,278.060 125.341,279.435 125.401 M288.145 126.343 C 287.625 126.553,287.545 248.065,288.065 248.065 C 288.278 248.065,288.387 227.634,288.387 187.419 L 288.387 126.774 297.419 126.774 C 303.226 126.774,306.452 126.659,306.452 126.452 C 306.452 126.122,288.950 126.018,288.145 126.343 M216.452 127.419 C 216.861 127.774,217.328 128.065,217.490 128.065 C 217.653 128.065,217.689 128.367,217.572 128.737 C 217.380 129.343,217.428 129.373,218.055 129.037 C 218.873 128.599,218.544 128.007,217.056 127.237 C 215.806 126.591,215.576 126.660,216.452 127.419 M359.355 129.032 C 359.355 129.210,359.573 129.355,359.839 129.355 C 360.105 129.355,360.323 129.210,360.323 129.032 C 360.323 128.855,360.105 128.710,359.839 128.710 C 359.573 128.710,359.355 128.855,359.355 129.032 M360.645 129.349 C 360.645 129.523,361.010 129.757,361.456 129.869 C 361.902 129.980,362.399 130.309,362.561 130.598 C 362.722 130.887,362.972 131.006,363.116 130.862 C 363.416 130.562,361.921 129.326,361.541 129.560 C 361.403 129.646,361.290 129.562,361.290 129.374 C 361.290 129.186,361.145 129.032,360.968 129.032 C 360.790 129.032,360.645 129.175,360.645 129.349 M215.565 129.918 C 214.552 130.422,214.174 130.968,214.839 130.968 C 215.016 130.968,215.161 130.823,215.161 130.645 C 215.161 130.468,215.270 130.358,215.403 130.401 C 215.536 130.444,216.004 130.226,216.443 129.917 C 217.431 129.220,216.965 129.221,215.565 129.918 M352.827 130.346 C 351.938 130.864,351.364 132.092,352.226 131.630 C 352.590 131.435,353.042 130.989,353.230 130.638 C 353.618 129.913,353.597 129.897,352.827 130.346 M244.194 132.258 C 244.194 133.277,244.317 133.833,244.516 133.710 C 244.694 133.600,244.839 132.947,244.839 132.258 C 244.839 131.569,244.694 130.916,244.516 130.806 C 244.317 130.683,244.194 131.240,244.194 132.258 M213.046 131.425 C 212.702 131.677,212.506 131.968,212.610 132.072 C 212.714 132.177,213.136 131.971,213.546 131.615 C 214.394 130.879,213.998 130.729,213.046 131.425 M363.871 131.571 C 363.871 131.891,364.755 132.903,365.034 132.903 C 365.266 132.903,364.553 131.674,364.192 131.451 C 364.015 131.341,363.871 131.396,363.871 131.571 M210.887 132.649 C 210.222 132.996,209.677 133.416,209.677 133.585 C 209.677 133.753,210.257 133.559,210.965 133.155 C 211.674 132.750,212.254 132.310,212.256 132.177 C 212.257 132.044,212.222 131.954,212.177 131.978 C 212.133 132.001,211.552 132.303,210.887 132.649 M350.841 132.769 C 350.720 133.083,350.792 133.231,351.028 133.152 C 351.510 132.991,351.776 132.258,351.352 132.258 C 351.178 132.258,350.949 132.488,350.841 132.769 M110.323 134.677 C 110.323 135.298,110.468 135.806,110.645 135.806 C 110.823 135.806,110.968 135.298,110.968 134.677 C 110.968 134.056,110.823 133.548,110.645 133.548 C 110.468 133.548,110.323 134.056,110.323 134.677 M350.323 134.032 C 350.323 134.298,350.468 134.516,350.645 134.516 C 350.823 134.516,350.968 134.298,350.968 134.032 C 350.968 133.766,350.823 133.548,350.645 133.548 C 350.468 133.548,350.323 133.766,350.323 134.032 M207.823 134.382 C 207.246 134.634,206.774 134.985,206.774 135.162 C 206.774 135.675,207.215 135.542,208.387 134.677 C 209.597 133.784,209.412 133.687,207.823 134.382 M205.304 135.957 C 204.911 136.255,204.836 136.435,205.104 136.441 C 205.338 136.447,205.748 136.234,206.014 135.968 C 206.636 135.346,206.122 135.338,205.304 135.957 M203.871 136.703 C 203.871 136.842,203.435 137.120,202.903 137.321 C 202.371 137.522,201.935 137.839,201.935 138.026 C 201.935 138.214,202.153 138.283,202.419 138.181 C 202.685 138.079,202.903 137.882,202.903 137.742 C 202.903 137.603,203.266 137.398,203.710 137.287 C 204.486 137.092,204.857 136.452,204.194 136.452 C 204.016 136.452,203.871 136.565,203.871 136.703 M200.968 138.356 C 200.968 138.516,200.532 138.798,200.000 138.984 C 199.468 139.169,199.032 139.478,199.032 139.670 C 199.032 139.862,199.612 139.688,200.320 139.284 C 201.559 138.576,201.966 138.065,201.290 138.065 C 201.113 138.065,200.968 138.195,200.968 138.356 M365.345 139.185 C 365.201 139.955,364.630 140.857,363.675 141.827 C 362.076 143.449,361.993 144.228,363.581 142.718 C 364.490 141.854,365.467 140.363,365.518 139.761 C 365.529 139.627,365.694 139.329,365.885 139.099 C 366.123 138.813,366.127 138.578,365.898 138.349 C 365.669 138.120,365.496 138.382,365.345 139.185 M350.323 139.145 C 350.323 139.677,351.100 141.290,351.356 141.290 C 351.540 141.290,351.581 141.044,351.450 140.726 C 351.322 140.415,351.144 139.907,351.055 139.597 C 350.921 139.131,350.323 138.762,350.323 139.145 M197.562 140.474 C 197.217 140.734,197.081 140.947,197.258 140.947 C 197.435 140.947,197.862 140.734,198.207 140.474 C 198.551 140.213,198.688 140.000,198.510 140.000 C 198.333 140.000,197.906 140.213,197.562 140.474 M194.659 142.070 C 194.315 142.322,194.119 142.613,194.223 142.718 C 194.327 142.822,194.749 142.616,195.159 142.260 C 196.007 141.525,195.611 141.374,194.659 142.070 M242.903 142.097 C 242.903 142.363,243.048 142.581,243.226 142.581 C 243.403 142.581,243.548 142.363,243.548 142.097 C 243.548 141.831,243.403 141.613,243.226 141.613 C 243.048 141.613,242.903 141.831,242.903 142.097 M351.963 142.182 C 352.206 142.572,352.602 142.966,352.843 143.059 C 353.527 143.321,353.113 142.530,352.274 141.973 C 351.537 141.484,351.530 141.489,351.963 142.182 M192.914 143.138 C 192.491 143.614,192.502 143.647,193.021 143.449 C 193.340 143.326,193.662 143.226,193.736 143.226 C 193.810 143.226,193.871 143.081,193.871 142.903 C 193.871 142.429,193.453 142.531,192.914 143.138 M191.505 143.763 C 191.114 144.155,191.282 144.499,191.774 144.310 C 192.040 144.208,192.258 143.995,192.258 143.836 C 192.258 143.498,191.814 143.455,191.505 143.763 M360.977 143.858 C 360.716 144.023,360.627 144.275,360.779 144.418 C 360.932 144.561,361.121 144.495,361.201 144.272 C 361.280 144.049,361.478 143.949,361.640 144.049 C 361.803 144.150,361.935 144.078,361.935 143.890 C 361.935 143.472,361.605 143.461,360.977 143.858 M354.839 144.194 C 354.839 144.371,355.056 144.516,355.323 144.516 C 355.589 144.516,355.806 144.371,355.806 144.194 C 355.806 144.016,355.589 143.871,355.323 143.871 C 355.056 143.871,354.839 144.016,354.839 144.194 M111.935 144.677 C 111.935 144.944,112.081 145.161,112.258 145.161 C 112.435 145.161,112.581 144.944,112.581 144.677 C 112.581 144.411,112.435 144.194,112.258 144.194 C 112.081 144.194,111.935 144.411,111.935 144.677 M190.323 144.485 C 190.323 144.645,189.887 144.927,189.355 145.113 C 188.823 145.298,188.387 145.615,188.387 145.817 C 188.387 146.228,188.454 146.206,189.917 145.315 C 190.952 144.685,191.271 144.194,190.645 144.194 C 190.468 144.194,190.323 144.325,190.323 144.485 M356.129 144.516 C 356.129 144.694,356.419 144.839,356.774 144.839 C 357.129 144.839,357.419 144.694,357.419 144.516 C 357.419 144.339,357.129 144.194,356.774 144.194 C 356.419 144.194,356.129 144.339,356.129 144.516 M359.032 144.516 C 359.032 144.694,359.250 144.839,359.516 144.839 C 359.782 144.839,360.000 144.694,360.000 144.516 C 360.000 144.339,359.782 144.194,359.516 144.194 C 359.250 144.194,359.032 144.339,359.032 144.516 M186.916 146.603 C 186.572 146.863,186.435 147.076,186.613 147.076 C 186.790 147.076,187.217 146.863,187.562 146.603 C 187.906 146.342,188.043 146.129,187.865 146.129 C 187.688 146.129,187.261 146.342,186.916 146.603 M185.172 147.654 C 184.749 148.130,184.761 148.164,185.279 147.965 C 185.598 147.842,185.920 147.742,185.994 147.742 C 186.068 147.742,186.129 147.597,186.129 147.419 C 186.129 146.945,185.711 147.047,185.172 147.654 M183.763 148.280 C 183.372 148.671,183.541 149.015,184.032 148.826 C 184.298 148.724,184.516 148.511,184.516 148.353 C 184.516 148.014,184.072 147.971,183.763 148.280 M182.581 149.001 C 182.581 149.161,182.145 149.444,181.613 149.629 C 181.081 149.815,180.645 150.123,180.645 150.315 C 180.645 150.507,181.225 150.333,181.933 149.929 C 183.172 149.221,183.579 148.710,182.903 148.710 C 182.726 148.710,182.581 148.841,182.581 149.001 M179.218 150.987 C 178.876 151.331,178.731 151.608,178.895 151.603 C 179.275 151.590,180.323 150.802,180.323 150.529 C 180.323 150.155,179.848 150.351,179.218 150.987 M239.889 152.325 C 239.787 152.716,239.778 153.111,239.869 153.202 C 240.078 153.411,240.634 152.556,240.640 152.016 C 240.649 151.338,240.087 151.568,239.889 152.325 M174.527 153.783 C 174.104 154.259,174.115 154.293,174.634 154.094 C 174.953 153.971,175.275 153.871,175.349 153.871 C 175.423 153.871,175.484 153.726,175.484 153.548 C 175.484 153.074,175.066 153.176,174.527 153.783 M173.118 154.409 C 172.726 154.800,172.895 155.144,173.387 154.955 C 173.653 154.853,173.871 154.640,173.871 154.482 C 173.871 154.143,173.427 154.100,173.118 154.409 M171.935 155.130 C 171.935 155.290,171.500 155.573,170.968 155.758 C 170.435 155.944,170.000 156.260,170.000 156.462 C 170.000 156.873,170.067 156.851,171.530 155.960 C 172.565 155.330,172.884 154.839,172.258 154.839 C 172.081 154.839,171.935 154.970,171.935 155.130 M168.705 157.112 C 168.264 157.450,168.048 157.726,168.226 157.725 C 168.653 157.720,169.831 156.821,169.649 156.638 C 169.571 156.560,169.146 156.773,168.705 157.112 M237.316 158.375 C 236.998 158.914,236.886 159.355,237.067 159.355 C 237.466 159.355,238.148 158.154,238.001 157.712 C 237.943 157.538,237.635 157.836,237.316 158.375 M166.785 158.299 C 166.362 158.776,166.373 158.809,166.892 158.610 C 167.211 158.487,167.533 158.387,167.607 158.387 C 167.681 158.387,167.742 158.242,167.742 158.065 C 167.742 157.590,167.324 157.693,166.785 158.299 M117.747 159.597 C 117.758 160.126,118.368 160.771,118.611 160.511 C 118.754 160.359,118.689 160.169,118.466 160.090 C 118.243 160.010,118.143 159.812,118.243 159.650 C 118.343 159.488,118.271 159.355,118.084 159.355 C 117.896 159.355,117.744 159.464,117.747 159.597 M164.194 159.646 C 164.194 159.806,163.758 160.089,163.226 160.274 C 162.694 160.460,162.258 160.769,162.258 160.961 C 162.258 161.153,162.838 160.979,163.546 160.574 C 164.785 159.866,165.192 159.355,164.516 159.355 C 164.339 159.355,164.194 159.486,164.194 159.646 M118.710 161.193 C 118.710 161.625,119.596 162.769,119.785 162.580 C 119.873 162.492,119.667 162.077,119.327 161.658 C 118.988 161.239,118.710 161.030,118.710 161.193 M161.290 161.259 C 161.290 161.419,160.855 161.702,160.323 161.887 C 159.790 162.073,159.355 162.389,159.355 162.591 C 159.355 163.002,159.422 162.980,160.885 162.089 C 161.920 161.459,162.238 160.968,161.613 160.968 C 161.435 160.968,161.290 161.099,161.290 161.259 M235.345 161.864 C 235.166 162.429,233.211 165.639,232.638 166.311 C 231.930 167.140,231.585 168.055,232.046 167.878 C 232.293 167.783,232.768 167.135,233.102 166.437 C 233.436 165.740,233.817 165.167,233.947 165.165 C 234.078 165.163,234.399 164.648,234.661 164.021 C 234.923 163.394,235.361 162.658,235.633 162.385 C 236.189 161.830,236.285 161.290,235.828 161.290 C 235.663 161.290,235.445 161.549,235.345 161.864 M317.419 162.893 C 317.419 163.085,320.788 163.241,326.129 163.296 C 332.931 163.367,334.839 163.299,334.839 162.984 C 334.839 162.671,332.882 162.581,326.129 162.581 C 320.726 162.581,317.419 162.699,317.419 162.893 M119.677 163.078 C 119.677 163.174,119.826 163.428,120.008 163.643 C 120.191 163.857,120.789 164.728,121.339 165.579 C 121.888 166.429,122.404 167.059,122.485 166.978 C 122.616 166.846,121.731 165.252,121.297 164.839 C 121.204 164.750,120.922 164.278,120.671 163.790 C 120.269 163.011,119.677 162.587,119.677 163.078 M156.014 164.355 C 155.748 164.621,155.374 164.839,155.184 164.839 C 154.994 164.839,154.839 164.996,154.839 165.188 C 154.839 165.380,154.948 165.485,155.081 165.420 C 156.644 164.658,157.097 164.371,157.097 164.142 C 157.097 163.716,156.544 163.825,156.014 164.355 M122.581 167.731 C 122.581 167.902,122.882 168.203,123.250 168.400 C 123.863 168.728,123.889 168.702,123.561 168.089 C 123.193 167.401,122.581 167.177,122.581 167.731 M230.860 168.602 C 230.552 168.910,230.595 169.355,230.933 169.355 C 231.092 169.355,231.305 169.137,231.407 168.871 C 231.596 168.379,231.252 168.210,230.860 168.602 M123.871 169.343 C 123.871 169.515,124.172 169.816,124.541 170.013 C 125.153 170.341,125.180 170.314,124.852 169.702 C 124.483 169.013,123.871 168.790,123.871 169.343 M229.774 170.073 C 229.151 170.876,228.999 171.290,229.324 171.290 C 229.688 171.290,230.459 170.029,230.233 169.803 C 230.156 169.725,229.949 169.847,229.774 170.073 M125.484 171.277 C 125.484 171.640,127.132 173.226,127.510 173.226 C 127.652 173.226,127.399 172.828,126.949 172.342 C 126.498 171.856,126.129 171.348,126.129 171.213 C 126.129 171.078,125.984 170.968,125.806 170.968 C 125.629 170.968,125.484 171.107,125.484 171.277 M227.736 172.500 C 227.728 172.789,225.290 175.351,222.943 177.537 C 222.016 178.401,221.338 179.187,221.436 179.285 C 221.620 179.469,228.387 172.826,228.387 172.462 C 228.387 172.171,227.743 172.208,227.736 172.500 M128.710 175.032 C 128.710 175.371,130.727 177.123,130.908 176.942 C 131.004 176.846,130.666 176.333,130.158 175.803 C 129.292 174.899,128.710 174.589,128.710 175.032 M133.106 179.134 C 133.438 179.580,134.145 180.203,134.677 180.517 C 135.210 180.831,135.815 181.315,136.022 181.592 C 136.229 181.869,136.518 181.976,136.664 181.830 C 136.811 181.684,136.709 181.441,136.439 181.290 C 136.169 181.138,135.444 180.563,134.829 180.011 C 133.123 178.482,132.313 178.069,133.106 179.134 M219.306 180.726 C 218.872 181.125,217.907 181.853,217.162 182.343 C 216.416 182.834,215.806 183.305,215.806 183.392 C 215.806 183.760,216.416 183.493,217.289 182.742 C 217.804 182.299,218.309 181.936,218.410 181.936 C 218.511 181.936,219.081 181.500,219.677 180.968 C 220.274 180.435,220.611 180.000,220.428 180.000 C 220.244 180.000,219.739 180.327,219.306 180.726 M137.615 182.715 C 137.723 182.996,137.953 183.226,138.126 183.226 C 138.550 183.226,138.284 182.493,137.802 182.332 C 137.566 182.253,137.494 182.401,137.615 182.715 M214.432 184.324 C 214.166 184.590,213.858 184.718,213.748 184.608 C 213.638 184.498,213.548 184.578,213.548 184.785 C 213.548 184.992,213.666 185.161,213.809 185.161 C 214.267 185.161,215.329 184.254,215.119 184.043 C 215.007 183.932,214.698 184.058,214.432 184.324 M140.323 184.497 C 140.323 184.655,140.758 184.977,141.290 185.213 C 141.823 185.449,142.258 185.749,142.258 185.881 C 142.258 186.099,144.334 187.097,144.789 187.097 C 145.058 187.097,144.014 186.386,142.016 185.208 C 141.085 184.659,140.323 184.340,140.323 184.497 M209.687 187.084 C 209.426 187.249,209.325 187.497,209.462 187.634 C 209.600 187.772,209.813 187.729,209.937 187.539 C 210.060 187.349,210.379 187.111,210.645 187.009 C 211.075 186.846,211.075 186.823,210.645 186.805 C 210.379 186.793,209.948 186.919,209.687 187.084 M146.774 188.327 C 147.395 188.626,147.952 188.980,148.011 189.113 C 148.155 189.437,148.710 189.423,148.710 189.094 C 148.710 188.819,146.441 187.728,145.940 187.763 C 145.778 187.774,146.153 188.028,146.774 188.327 M150.968 190.279 C 150.968 190.658,152.219 191.114,152.497 190.836 C 152.745 190.588,152.579 190.452,151.694 190.180 C 151.276 190.051,150.968 190.094,150.968 190.279 M154.839 191.935 C 154.839 192.113,155.056 192.258,155.323 192.258 C 155.589 192.258,155.806 192.113,155.806 191.935 C 155.806 191.758,155.589 191.613,155.323 191.613 C 155.056 191.613,154.839 191.758,154.839 191.935 M156.129 192.258 C 156.129 192.435,156.347 192.581,156.613 192.581 C 156.879 192.581,157.097 192.435,157.097 192.258 C 157.097 192.081,156.879 191.935,156.613 191.935 C 156.347 191.935,156.129 192.081,156.129 192.258 M160.323 193.548 C 160.323 193.726,160.540 193.871,160.806 193.871 C 161.073 193.871,161.290 193.726,161.290 193.548 C 161.290 193.371,161.073 193.226,160.806 193.226 C 160.540 193.226,160.323 193.371,160.323 193.548 M193.548 193.548 C 193.548 193.726,193.766 193.871,194.032 193.871 C 194.298 193.871,194.516 193.726,194.516 193.548 C 194.516 193.371,194.298 193.226,194.032 193.226 C 193.766 193.226,193.548 193.371,193.548 193.548 M191.935 193.871 C 191.935 194.048,192.153 194.194,192.419 194.194 C 192.685 194.194,192.903 194.048,192.903 193.871 C 192.903 193.694,192.685 193.548,192.419 193.548 C 192.153 193.548,191.935 193.694,191.935 193.871 M169.032 195.161 C 169.032 195.339,169.395 195.484,169.839 195.484 C 170.282 195.484,170.645 195.339,170.645 195.161 C 170.645 194.984,170.282 194.839,169.839 194.839 C 169.395 194.839,169.032 194.984,169.032 195.161 M184.194 195.161 C 184.194 195.339,184.484 195.484,184.839 195.484 C 185.194 195.484,185.484 195.339,185.484 195.161 C 185.484 194.984,185.194 194.839,184.839 194.839 C 184.484 194.839,184.194 194.984,184.194 195.161 M174.677 195.484 C 174.550 195.690,175.594 195.806,177.581 195.806 C 179.567 195.806,180.612 195.690,180.484 195.484 C 180.374 195.306,179.068 195.161,177.581 195.161 C 176.094 195.161,174.787 195.306,174.677 195.484 M393.292 200.884 C 394.482 200.946,396.514 200.946,397.808 200.885 C 399.103 200.824,398.129 200.773,395.645 200.772 C 393.161 200.772,392.103 200.822,393.292 200.884 M380.709 202.175 C 382.253 202.234,384.866 202.235,386.516 202.176 C 388.166 202.117,386.903 202.069,383.710 202.069 C 380.516 202.068,379.166 202.116,380.709 202.175 M268.065 203.871 C 268.065 204.071,269.785 204.194,272.581 204.194 C 275.376 204.194,277.097 204.071,277.097 203.871 C 277.097 203.671,275.376 203.548,272.581 203.548 C 269.785 203.548,268.065 203.671,268.065 203.871 M306.451 211.371 C 306.451 211.504,308.956 211.585,312.016 211.552 C 317.691 211.490,317.034 211.364,310.241 211.213 C 308.156 211.167,306.451 211.238,306.451 211.371 M269.612 218.950 C 271.084 219.010,273.407 219.009,274.773 218.949 C 276.140 218.889,274.935 218.840,272.097 218.840 C 269.258 218.841,268.140 218.890,269.612 218.950 M365.000 221.935 L 359.516 222.120 365.242 222.189 C 368.890 222.233,370.968 222.141,370.968 221.935 C 370.968 221.758,370.859 221.644,370.726 221.682 C 370.593 221.720,368.016 221.834,365.000 221.935 M240.968 227.224 C 240.968 227.673,241.525 227.742,245.161 227.742 C 247.742 227.742,249.355 227.618,249.355 227.419 C 249.355 227.223,247.912 227.097,245.672 227.097 C 243.646 227.097,241.759 227.009,241.478 226.901 C 241.143 226.772,240.968 226.883,240.968 227.224 M260.484 234.839 C 260.354 235.048,262.040 235.161,265.304 235.161 C 268.435 235.161,270.323 235.040,270.323 234.839 C 270.323 234.638,268.501 234.516,265.503 234.516 C 262.638 234.516,260.602 234.647,260.484 234.839 M2.258 251.836 C 2.258 251.959,2.875 252.613,3.629 253.289 C 4.383 253.965,5.253 254.760,5.563 255.056 C 5.873 255.352,6.231 255.489,6.360 255.361 C 6.488 255.232,6.090 254.740,5.474 254.266 C 4.858 253.792,3.970 253.002,3.500 252.509 C 2.651 251.620,2.258 251.407,2.258 251.836 M274.677 253.548 L 270.161 253.738 274.753 253.804 L 279.345 253.871 279.430 262.823 L 279.516 271.774 284.758 271.863 C 288.180 271.921,290.000 271.837,290.000 271.621 C 290.000 271.409,288.148 271.290,284.839 271.290 L 279.677 271.290 279.677 262.258 C 279.677 257.290,279.569 253.256,279.435 253.293 C 279.302 253.329,277.161 253.444,274.677 253.548 M6.774 255.492 C 6.774 255.773,8.026 256.275,8.227 256.074 C 8.289 256.012,7.988 255.795,7.557 255.591 C 7.127 255.388,6.774 255.344,6.774 255.492 M10.000 256.774 C 10.000 256.952,10.290 257.097,10.645 257.097 C 11.000 257.097,11.290 256.952,11.290 256.774 C 11.290 256.597,11.000 256.452,10.645 256.452 C 10.290 256.452,10.000 256.597,10.000 256.774 M379.355 273.710 C 379.355 280.484,379.469 284.194,379.677 284.194 C 379.886 284.194,380.000 280.484,380.000 273.710 C 380.000 266.935,379.886 263.226,379.677 263.226 C 379.469 263.226,379.355 266.935,379.355 273.710 M278.852 286.452 C 278.852 291.508,278.896 293.577,278.951 291.048 C 279.005 288.520,279.005 284.383,278.951 281.855 C 278.896 279.327,278.852 281.395,278.852 286.452 M380.645 307.744 L 380.645 322.262 333.710 322.180 C 307.895 322.134,286.774 322.206,286.774 322.339 C 286.774 322.472,307.968 322.581,333.871 322.581 L 380.968 322.581 380.968 308.226 L 380.968 293.871 385.968 293.871 C 389.086 293.871,390.968 293.750,390.968 293.548 C 390.968 293.347,389.032 293.226,385.806 293.226 L 380.645 293.226 380.645 307.744 M297.883 302.581 C 297.883 307.460,297.928 309.456,297.983 307.016 C 298.038 304.577,298.038 300.585,297.983 298.145 C 297.928 295.706,297.883 297.702,297.883 302.581 " stroke="none" fill="#cecece" fill-rule="evenodd"></path>
        <path id="path2" d="M98.790 0.565 C 146.649 0.610,224.964 0.610,272.823 0.565 C 320.681 0.520,281.524 0.483,185.806 0.483 C 90.089 0.483,50.931 0.520,98.790 0.565 M365.806 2.793 C 365.806 2.969,366.206 3.465,366.694 3.895 L 367.581 4.677 366.774 3.710 C 366.331 3.177,365.931 2.681,365.887 2.608 C 365.843 2.534,365.806 2.617,365.806 2.793 M0.446 9.820 C 0.348 10.076,0.325 10.547,0.394 10.868 C 0.473 11.233,0.584 11.058,0.688 10.403 C 0.864 9.305,0.750 9.029,0.446 9.820 M371.128 96.452 L 371.129 179.839 375.968 180.000 L 380.806 180.161 380.980 185.323 L 381.154 190.484 381.212 185.484 C 381.288 178.897,381.639 179.293,375.839 179.418 L 371.291 179.516 371.209 96.290 L 371.127 13.065 371.128 96.452 M26.325 26.962 C 25.973 27.878,26.100 230.323,26.452 230.323 C 26.666 230.323,26.774 196.237,26.774 128.710 L 26.774 27.097 185.465 27.097 C 290.911 27.097,344.222 26.989,344.355 26.774 C 344.488 26.559,291.466 26.452,185.537 26.452 C 40.832 26.452,26.503 26.498,26.325 26.962 M176.219 61.850 C 177.068 61.917,178.374 61.916,179.123 61.849 C 179.871 61.781,179.177 61.726,177.581 61.727 C 175.984 61.728,175.371 61.784,176.219 61.850 M167.742 62.258 C 167.349 62.512,167.390 62.572,167.965 62.576 C 168.354 62.578,168.761 62.435,168.871 62.258 C 169.125 61.847,168.377 61.847,167.742 62.258 M169.923 62.164 C 170.324 62.241,170.905 62.238,171.213 62.157 C 171.522 62.076,171.194 62.013,170.484 62.017 C 169.774 62.020,169.522 62.086,169.923 62.164 M183.629 62.158 C 183.940 62.239,184.448 62.239,184.758 62.158 C 185.069 62.077,184.815 62.010,184.194 62.010 C 183.573 62.010,183.319 62.077,183.629 62.158 M191.962 63.342 C 192.036 63.405,192.532 63.555,193.065 63.674 C 193.771 63.832,193.902 63.802,193.548 63.563 C 193.113 63.268,191.639 63.063,191.962 63.342 M201.613 66.237 C 201.613 66.320,202.081 66.552,202.654 66.751 C 203.226 66.951,203.553 66.982,203.380 66.819 C 203.012 66.475,201.613 66.014,201.613 66.237 M130.568 80.887 C 129.195 82.262,127.966 83.532,127.836 83.710 C 127.706 83.887,128.866 82.802,130.413 81.297 C 133.006 78.777,133.372 78.387,133.145 78.387 C 133.101 78.387,131.941 79.512,130.568 80.887 M227.440 84.380 C 228.049 85.103,228.614 85.642,228.694 85.579 C 228.773 85.515,228.274 84.923,227.585 84.263 L 226.331 83.065 227.440 84.380 M126.164 85.503 C 125.740 85.856,125.461 86.214,125.544 86.297 C 125.628 86.381,126.037 86.087,126.453 85.644 C 127.358 84.680,127.228 84.617,126.164 85.503 M231.481 89.516 C 231.772 89.960,232.062 90.323,232.127 90.323 C 232.191 90.323,232.079 89.960,231.877 89.516 C 231.675 89.073,231.384 88.710,231.231 88.710 C 231.078 88.710,231.191 89.073,231.481 89.516 M117.308 99.099 C 117.046 100.101,117.246 100.152,117.683 99.195 C 117.885 98.751,117.926 98.387,117.773 98.387 C 117.620 98.387,117.411 98.707,117.308 99.099 M114.409 106.022 C 114.290 106.140,114.194 106.491,114.194 106.801 C 114.194 107.112,114.045 107.439,113.863 107.530 C 113.681 107.620,113.709 107.659,113.926 107.616 C 114.142 107.573,114.424 107.149,114.551 106.673 C 114.793 105.771,114.769 105.661,114.409 106.022 M112.742 111.613 C 112.619 112.171,112.586 112.694,112.669 112.776 C 112.751 112.858,112.911 112.462,113.024 111.895 C 113.293 110.551,113.033 110.290,112.742 111.613 M242.151 112.581 C 242.458 114.275,242.932 115.259,242.695 113.710 C 242.587 113.000,242.374 112.202,242.222 111.935 C 242.055 111.641,242.027 111.894,242.151 112.581 M287.164 115.981 C 286.673 116.538,286.638 125.929,287.128 125.626 C 287.288 125.527,287.419 123.350,287.419 120.787 L 287.419 116.129 297.742 116.129 C 304.409 116.129,308.065 116.015,308.065 115.806 C 308.065 115.234,287.672 115.404,287.164 115.981 M243.231 118.306 C 243.245 119.014,243.861 119.483,243.866 118.790 C 243.869 118.391,243.726 118.065,243.548 118.065 C 243.371 118.065,243.228 118.173,243.231 118.306 M111.334 119.087 C 111.310 119.382,111.196 119.891,111.082 120.216 C 110.920 120.672,110.963 120.723,111.270 120.440 C 111.489 120.239,111.602 119.731,111.523 119.311 C 111.443 118.892,111.358 118.791,111.334 119.087 M243.594 120.806 C 243.594 121.161,243.718 121.742,243.871 122.097 L 244.148 122.742 244.148 122.097 C 244.148 121.742,244.023 121.161,243.871 120.806 L 243.594 120.161 243.594 120.806 M243.984 125.806 C 243.984 127.315,244.039 127.931,244.107 127.177 C 244.175 126.423,244.175 125.190,244.107 124.435 C 244.039 123.681,243.984 124.298,243.984 125.806 M110.323 125.626 C 110.323 126.237,110.468 126.826,110.645 126.935 C 110.840 127.056,110.968 126.616,110.968 125.825 C 110.968 125.105,110.823 124.516,110.645 124.516 C 110.468 124.516,110.323 125.016,110.323 125.626 M306.931 168.548 C 306.931 191.968,306.969 201.501,307.016 189.733 C 307.063 177.965,307.063 158.804,307.016 147.152 C 306.969 135.501,306.931 145.129,306.931 168.548 M357.342 128.615 C 357.744 128.692,358.324 128.689,358.633 128.609 C 358.941 128.528,358.613 128.465,357.903 128.468 C 357.194 128.472,356.941 128.538,357.342 128.615 M243.982 131.129 C 243.983 132.548,244.039 133.089,244.108 132.330 C 244.176 131.571,244.175 130.410,244.105 129.750 C 244.036 129.089,243.980 129.710,243.982 131.129 M110.323 131.129 C 110.323 131.750,110.468 132.258,110.645 132.258 C 110.823 132.258,110.968 131.750,110.968 131.129 C 110.968 130.508,110.823 130.000,110.645 130.000 C 110.468 130.000,110.323 130.508,110.323 131.129 M243.769 134.962 C 243.648 135.278,243.558 135.779,243.569 136.075 C 243.582 136.431,243.694 136.350,243.901 135.834 C 244.072 135.406,244.162 134.905,244.101 134.721 C 244.039 134.538,243.890 134.646,243.769 134.962 M111.165 136.935 C 111.430 138.122,111.615 138.379,111.608 137.554 C 111.605 137.214,111.456 136.718,111.276 136.452 C 111.036 136.098,111.007 136.229,111.165 136.935 M349.853 139.113 C 349.974 139.512,350.205 139.981,350.368 140.154 C 350.530 140.327,350.499 140.001,350.300 139.428 C 349.891 138.256,349.514 137.990,349.853 139.113 M193.226 143.444 L 192.419 144.268 193.306 143.710 C 193.794 143.403,194.194 143.023,194.194 142.866 C 194.194 142.475,194.145 142.504,193.226 143.444 M242.302 143.603 C 242.278 143.899,242.164 144.407,242.049 144.732 C 241.888 145.188,241.931 145.239,242.238 144.957 C 242.456 144.755,242.570 144.247,242.491 143.828 C 242.411 143.408,242.326 143.307,242.302 143.603 M112.581 144.605 C 112.581 145.067,112.732 145.539,112.916 145.653 C 113.136 145.789,113.176 145.546,113.032 144.946 C 112.735 143.710,112.581 143.593,112.581 144.605 M360.323 144.462 C 360.323 144.669,359.996 144.856,359.597 144.876 C 358.999 144.907,358.977 144.941,359.470 145.068 C 360.113 145.233,360.907 144.670,360.543 144.306 C 360.422 144.185,360.323 144.255,360.323 144.462 M240.729 149.194 C 240.539 149.815,240.496 150.323,240.635 150.323 C 240.890 150.323,241.388 148.377,241.185 148.175 C 241.125 148.114,240.920 148.573,240.729 149.194 M174.839 154.089 L 174.032 154.913 174.919 154.355 C 175.407 154.048,175.806 153.668,175.806 153.511 C 175.806 153.121,175.758 153.150,174.839 154.089 M325.565 163.465 L 334.194 163.559 334.194 168.392 C 334.194 171.051,334.302 173.226,334.435 173.226 C 334.569 173.227,334.605 171.013,334.516 168.307 L 334.355 163.387 325.645 163.379 L 316.935 163.371 325.565 163.465 M227.883 171.976 C 227.220 172.682,227.139 172.861,227.614 172.573 C 228.199 172.218,229.228 170.968,228.934 170.968 C 228.877 170.968,228.404 171.421,227.883 171.976 M128.116 173.548 C 128.509 174.081,128.976 174.516,129.153 174.516 C 129.331 174.516,129.058 174.081,128.548 173.548 C 128.038 173.016,127.571 172.581,127.511 172.581 C 127.450 172.581,127.722 173.016,128.116 173.548 M317.097 173.871 C 317.097 174.077,319.999 174.194,325.159 174.194 L 333.221 174.194 333.306 194.758 L 333.392 215.323 333.470 194.435 L 333.548 173.548 325.323 173.548 C 320.054 173.548,317.097 173.664,317.097 173.871 M131.290 176.714 C 131.290 176.858,131.762 177.315,132.339 177.730 L 133.387 178.485 132.440 177.468 C 131.436 176.391,131.290 176.295,131.290 176.714 M134.194 179.133 C 134.194 179.222,134.919 179.902,135.806 180.645 C 136.694 181.388,137.419 181.923,137.419 181.834 C 137.419 181.746,136.694 181.065,135.806 180.323 C 134.919 179.580,134.194 179.045,134.194 179.133 M214.839 183.564 L 214.032 184.211 214.919 183.828 C 215.407 183.617,215.806 183.323,215.806 183.174 C 215.806 182.806,215.762 182.824,214.839 183.564 M344.019 183.952 C 343.934 184.173,343.903 191.323,343.951 199.839 L 344.039 215.323 344.116 199.603 L 344.194 183.882 352.016 183.790 L 359.839 183.698 352.006 183.623 C 345.981 183.566,344.138 183.641,344.019 183.952 M206.774 188.266 L 205.968 188.737 206.774 188.522 C 207.673 188.282,207.915 188.130,207.715 187.930 C 207.640 187.855,207.217 188.007,206.774 188.266 M370.323 205.949 C 370.323 216.176,370.435 221.613,370.645 221.613 C 370.856 221.613,370.968 216.243,370.968 206.148 C 370.968 196.186,370.853 190.612,370.645 190.484 C 370.432 190.352,370.323 195.588,370.323 205.949 M199.435 191.300 C 199.036 191.461,198.721 191.778,198.735 192.006 C 198.755 192.330,198.796 192.332,198.923 192.016 C 199.013 191.794,199.283 191.613,199.524 191.613 C 199.765 191.613,200.052 191.468,200.161 191.290 C 200.392 190.916,200.391 190.916,199.435 191.300 M194.194 192.903 C 193.529 193.116,193.501 193.166,194.032 193.189 C 194.387 193.204,194.895 193.075,195.161 192.903 C 195.726 192.538,195.334 192.538,194.194 192.903 M188.710 194.194 C 188.280 194.472,188.280 194.506,188.710 194.506 C 188.976 194.506,189.411 194.366,189.677 194.194 C 190.108 193.916,190.108 193.881,189.677 193.881 C 189.411 193.881,188.976 194.022,188.710 194.194 M166.478 194.312 C 166.552 194.377,167.194 194.519,167.903 194.627 C 168.803 194.764,168.998 194.735,168.548 194.531 C 167.929 194.251,166.201 194.068,166.478 194.312 M186.452 194.531 C 186.098 194.770,186.229 194.800,186.935 194.642 C 188.122 194.377,188.379 194.192,187.554 194.198 C 187.214 194.201,186.718 194.351,186.452 194.531 M171.935 195.161 C 171.935 195.339,172.145 195.484,172.400 195.484 C 172.656 195.484,172.955 195.339,173.065 195.161 C 173.174 194.984,172.965 194.839,172.600 194.839 C 172.234 194.839,171.935 194.984,171.935 195.161 M181.935 195.161 C 181.935 195.339,182.153 195.484,182.419 195.484 C 182.685 195.484,182.903 195.339,182.903 195.161 C 182.903 194.984,182.685 194.839,182.419 194.839 C 182.153 194.839,181.935 194.984,181.935 195.161 M389.240 232.359 C 388.988 260.344,389.018 263.670,389.518 263.170 C 389.607 263.081,389.644 249.230,389.598 232.391 L 389.516 201.774 389.240 232.359 M252.333 210.270 C 252.017 210.470,251.943 212.256,252.010 218.087 L 252.097 225.645 256.048 225.736 C 258.605 225.794,260.000 225.709,260.000 225.494 C 260.000 225.285,258.622 225.161,256.290 225.161 L 252.581 225.161 252.581 217.748 L 252.581 210.335 259.919 210.242 L 267.258 210.149 260.000 210.079 C 256.008 210.041,252.558 210.127,252.333 210.270 M277.429 233.176 C 277.523 241.276,277.632 247.940,277.671 247.984 C 277.901 248.246,287.413 248.013,287.581 247.742 C 287.710 247.532,286.025 247.419,282.761 247.419 L 277.742 247.419 277.742 233.084 C 277.742 225.199,277.633 218.680,277.500 218.598 C 277.367 218.516,277.335 225.076,277.429 233.176 M243.468 227.013 C 244.577 227.076,246.391 227.076,247.500 227.013 C 248.609 226.950,247.702 226.899,245.484 226.899 C 243.266 226.899,242.359 226.950,243.468 227.013 M249.765 228.710 C 249.765 229.508,249.828 229.835,249.905 229.435 C 249.982 229.036,249.982 228.383,249.905 227.984 C 249.828 227.585,249.765 227.911,249.765 228.710 M265.237 235.398 L 269.990 235.501 270.076 244.767 L 270.161 254.032 274.592 254.122 L 279.022 254.212 279.115 262.993 L 279.209 271.774 279.201 262.903 L 279.194 254.032 274.763 253.943 L 270.332 253.853 270.247 244.588 L 270.161 235.323 265.323 235.309 L 260.484 235.295 265.237 235.398 M0.323 246.594 C 0.323 247.027,0.441 247.455,0.587 247.545 C 0.732 247.634,0.788 247.280,0.711 246.757 C 0.542 245.604,0.323 245.512,0.323 246.594 M12.258 256.774 C 12.258 256.989,55.109 257.097,140.484 257.097 L 268.710 257.097 268.715 266.855 C 268.717 272.222,268.839 276.802,268.986 277.033 C 269.190 277.355,270.393 277.430,274.143 277.355 L 279.033 277.258 279.033 285.861 C 279.032 296.588,278.545 295.523,283.425 295.463 C 285.672 295.436,287.337 295.289,287.237 295.127 C 287.139 294.968,285.328 294.839,283.212 294.839 L 279.365 294.839 279.279 285.887 L 279.194 276.935 274.117 276.847 L 269.041 276.758 268.956 266.685 L 268.871 256.613 140.565 256.532 C 55.082 256.478,12.258 256.559,12.258 256.774 M289.500 283.065 C 289.500 289.097,289.543 291.519,289.596 288.447 C 289.649 285.375,289.649 280.440,289.596 277.479 C 289.543 274.519,289.500 277.032,289.500 283.065 M370.148 284.920 C 370.062 285.141,370.032 291.347,370.081 298.710 L 370.169 312.097 370.246 298.476 L 370.323 284.856 375.081 284.757 L 379.839 284.659 375.071 284.587 C 371.498 284.534,370.264 284.617,370.148 284.920 M297.561 302.903 C 297.561 307.960,297.606 310.028,297.661 307.500 C 297.715 304.972,297.715 300.835,297.661 298.306 C 297.606 295.778,297.561 297.847,297.561 302.903 M310.565 322.177 C 323.383 322.224,344.359 322.224,357.177 322.177 C 369.996 322.131,359.508 322.092,333.871 322.092 C 308.234 322.092,297.746 322.131,310.565 322.177 " stroke="none" fill="#5c5c5c" fill-rule="evenodd"></path>
        <path id="path3" d="M3.468 4.378 C 2.802 5.009,2.258 5.685,2.258 5.881 C 2.258 6.076,2.294 6.174,2.339 6.097 C 2.383 6.021,2.993 5.343,3.694 4.592 C 5.246 2.929,5.121 2.811,3.468 4.378 M371.210 76.060 C 371.255 111.493,371.328 149.266,371.374 160.000 C 371.419 170.734,371.482 141.992,371.512 96.129 C 371.543 50.266,371.469 12.493,371.348 12.189 C 371.228 11.885,371.165 40.627,371.210 76.060 M308.194 120.484 C 308.194 123.145,308.244 124.191,308.305 122.808 C 308.365 121.425,308.365 119.247,308.304 117.969 C 308.243 116.691,308.193 117.823,308.194 120.484 M110.323 123.710 C 110.323 123.976,110.468 124.194,110.645 124.194 C 110.823 124.194,110.968 123.976,110.968 123.710 C 110.968 123.444,110.823 123.226,110.645 123.226 C 110.468 123.226,110.323 123.444,110.323 123.710 M279.435 125.724 C 280.810 125.784,283.060 125.784,284.435 125.724 C 285.810 125.663,284.685 125.614,281.935 125.614 C 279.185 125.614,278.060 125.663,279.435 125.724 M310.565 125.723 C 311.851 125.785,313.956 125.785,315.242 125.723 C 316.528 125.662,315.476 125.612,312.903 125.612 C 310.331 125.612,309.278 125.662,310.565 125.723 M244.194 128.368 C 244.194 129.600,244.339 130.697,244.516 130.806 C 244.720 130.933,244.839 130.111,244.839 128.567 C 244.839 127.157,244.703 126.129,244.516 126.129 C 244.332 126.129,244.194 127.090,244.194 128.368 M306.529 168.449 C 306.486 191.813,306.560 210.997,306.694 211.079 C 306.912 211.215,306.911 181.792,306.690 141.290 C 306.644 132.863,306.572 145.084,306.529 168.449 M110.323 133.065 C 110.323 133.331,110.468 133.548,110.645 133.548 C 110.823 133.548,110.968 133.331,110.968 133.065 C 110.968 132.798,110.823 132.581,110.645 132.581 C 110.468 132.581,110.323 132.798,110.323 133.065 M365.806 136.594 C 365.806 137.027,365.952 137.471,366.129 137.581 C 366.317 137.697,366.452 137.369,366.452 136.793 C 366.452 136.251,366.306 135.806,366.129 135.806 C 365.952 135.806,365.806 136.161,365.806 136.594 M238.790 154.919 C 238.443 155.867,238.452 155.908,238.881 155.342 C 239.291 154.800,239.533 153.871,239.264 153.871 C 239.214 153.871,239.001 154.343,238.790 154.919 M115.994 155.161 C 116.234 156.060,116.386 156.302,116.587 156.102 C 116.661 156.027,116.509 155.604,116.250 155.161 L 115.780 154.355 115.994 155.161 M334.515 168.160 L 334.675 173.065 334.766 168.412 C 334.816 165.854,334.744 163.647,334.606 163.508 C 334.468 163.370,334.427 165.463,334.515 168.160 M130.818 176.613 C 131.921 177.766,132.929 178.710,133.058 178.710 C 133.186 178.710,132.369 177.766,131.242 176.613 C 130.115 175.460,129.108 174.517,129.003 174.516 C 128.898 174.516,129.715 175.460,130.818 176.613 M220.323 179.717 C 219.198 180.702,219.198 180.704,220.232 180.016 C 220.803 179.636,221.356 179.186,221.461 179.017 C 221.772 178.514,221.514 178.672,220.323 179.717 M381.290 189.991 C 381.290 190.177,383.240 190.342,386.048 190.395 L 390.806 190.484 390.895 195.887 L 390.983 201.290 395.572 201.220 L 400.161 201.149 395.726 201.049 L 391.290 200.950 391.290 195.774 C 391.290 191.719,391.191 190.499,390.829 190.138 C 390.280 189.589,381.290 189.451,381.290 189.991 M152.903 190.753 C 152.903 190.836,153.372 191.068,153.944 191.268 C 154.517 191.467,154.843 191.498,154.670 191.335 C 154.303 190.991,152.903 190.530,152.903 190.753 M170.645 195.161 C 170.645 195.339,170.863 195.484,171.129 195.484 C 171.395 195.484,171.613 195.339,171.613 195.161 C 171.613 194.984,171.395 194.839,171.129 194.839 C 170.863 194.839,170.645 194.984,170.645 195.161 M240.968 213.065 C 240.968 221.989,241.080 226.774,241.290 226.774 C 241.500 226.774,241.613 221.989,241.613 213.065 C 241.613 204.140,241.500 199.355,241.290 199.355 C 241.080 199.355,240.968 204.140,240.968 213.065 M272.016 218.628 L 277.097 218.726 277.102 232.992 C 277.104 240.838,277.213 247.426,277.344 247.631 C 277.595 248.026,277.517 219.479,277.265 218.790 C 277.154 218.487,275.859 218.405,272.026 218.459 L 266.935 218.531 272.016 218.628 M362.355 221.853 C 363.916 221.913,366.383 221.912,367.838 221.853 C 369.293 221.793,368.016 221.745,365.000 221.745 C 361.984 221.745,360.793 221.794,362.355 221.853 M260.000 230.323 C 260.000 233.118,260.123 234.839,260.323 234.839 C 260.522 234.839,260.645 233.118,260.645 230.323 C 260.645 227.527,260.522 225.806,260.323 225.806 C 260.123 225.806,260.000 227.527,260.000 230.323 M249.228 227.607 C 248.917 228.418,249.001 230.000,249.355 230.000 C 249.532 230.000,249.677 229.347,249.677 228.548 C 249.677 227.022,249.553 226.761,249.228 227.607 M272.325 253.465 C 273.514 253.527,275.547 253.527,276.841 253.466 C 278.135 253.404,277.161 253.354,274.677 253.353 C 272.194 253.353,271.135 253.403,272.325 253.465 M268.453 266.997 C 268.417 272.531,268.496 277.126,268.629 277.209 C 268.762 277.291,268.833 273.997,268.787 269.889 C 268.648 257.461,268.523 256.381,268.453 266.997 M390.518 266.317 C 390.233 267.060,390.278 293.226,390.565 293.226 C 390.698 293.226,390.767 287.202,390.719 279.839 L 390.631 266.452 395.316 266.452 C 398.223 266.452,400.000 266.329,400.000 266.129 C 400.000 265.530,390.750 265.713,390.518 266.317 M289.598 279.113 C 289.755 292.752,289.861 293.991,289.930 282.984 C 289.969 276.907,289.891 271.935,289.758 271.935 C 289.625 271.935,289.553 275.165,289.598 279.113 M370.078 284.512 C 369.776 284.994,369.677 288.379,369.677 298.221 L 369.677 311.290 333.710 311.290 C 309.843 311.290,297.742 311.399,297.742 311.614 C 297.742 311.830,309.815 311.911,333.790 311.856 L 369.839 311.774 370.000 298.226 L 370.161 284.677 375.161 284.516 C 381.098 284.325,380.794 283.871,374.729 283.871 C 370.837 283.871,370.444 283.925,370.078 284.512 M380.471 307.903 C 380.471 315.887,380.513 319.107,380.564 315.059 C 380.615 311.010,380.615 304.478,380.564 300.542 C 380.513 296.607,380.471 299.919,380.471 307.903 M286.846 308.610 C 286.806 315.918,286.883 321.965,287.016 322.047 C 287.236 322.184,287.231 311.881,287.006 300.000 C 286.957 297.427,286.885 301.302,286.846 308.610 " stroke="none" fill="#7c7c7c" fill-rule="evenodd"></path>
        <path id="path4" d="M390.776 195.806 C 390.776 198.734,390.825 199.931,390.885 198.468 C 390.945 197.004,390.945 194.609,390.885 193.145 C 390.825 191.681,390.776 192.879,390.776 195.806 M380.709 201.853 C 382.253 201.912,384.866 201.912,386.516 201.853 C 388.166 201.795,386.903 201.747,383.710 201.746 C 380.516 201.746,379.166 201.794,380.709 201.853 M309.597 211.208 C 311.060 211.268,313.456 211.268,314.919 211.208 C 316.383 211.148,315.185 211.099,312.258 211.099 C 309.331 211.099,308.133 211.148,309.597 211.208 M390.645 279.613 L 390.806 293.065 390.891 279.859 C 390.937 272.595,390.865 266.542,390.729 266.407 C 390.594 266.271,390.556 272.214,390.645 279.613 M287.097 308.645 L 287.258 322.097 287.342 308.891 C 287.389 301.627,287.316 295.574,287.181 295.439 C 287.046 295.304,287.008 301.246,287.097 308.645 " stroke="none" fill="#747474" fill-rule="evenodd"></path>
    </g>
</svg>