<svg id="svg" version="1.1" xmlns="http://www.w3.org/2000/svg" xmlns:xlink="http://www.w3.org/1999/xlink" width="400" height="360.46065259117086" viewBox="0, 0, 400,360.46065259117086"><g id="svgg"><path id="path0" d="M190.257 9.789 C 184.705 14.543,179.135 19.357,177.879 20.488 C 176.623 21.618,175.325 22.695,174.994 22.881 C 174.662 23.067,172.215 25.095,169.556 27.389 C 166.896 29.683,163.471 32.615,161.943 33.904 C 156.673 38.353,138.317 54.152,136.040 56.199 C 134.785 57.327,133.455 58.414,133.086 58.613 C 132.717 58.812,131.471 59.837,130.319 60.892 C 129.167 61.947,127.389 63.488,126.370 64.318 C 124.352 65.958,122.189 67.802,103.517 83.798 C 96.673 89.661,90.127 95.320,88.970 96.373 C 87.814 97.425,86.572 98.449,86.210 98.647 C 85.849 98.846,84.036 100.328,82.181 101.942 C 80.327 103.555,72.155 110.566,64.022 117.521 C 55.888 124.476,48.287 131.028,47.131 132.080 C 45.974 133.133,44.729 134.157,44.363 134.355 C 43.997 134.554,42.671 135.620,41.416 136.724 C 40.161 137.828,34.995 142.283,29.937 146.622 C 12.240 161.804,8.005 165.541,6.148 167.613 C 4.012 169.997,1.582 174.700,1.249 177.096 C 1.125 177.989,0.851 179.174,0.641 179.730 C 0.356 180.480,0.376 180.960,0.718 181.599 C 0.971 182.072,1.082 182.829,0.964 183.280 C 0.703 184.279,1.389 187.196,1.885 187.196 C 2.081 187.196,2.148 187.439,2.034 187.737 C 1.919 188.034,1.993 188.278,2.197 188.278 C 2.401 188.278,2.467 188.440,2.344 188.638 C 2.222 188.837,2.303 188.999,2.525 188.999 C 2.747 188.999,2.828 189.161,2.705 189.360 C 2.583 189.558,2.614 189.721,2.774 189.722 C 3.156 189.725,5.978 194.057,5.861 194.460 C 5.812 194.631,5.893 194.735,6.041 194.691 C 6.426 194.580,10.460 197.333,10.460 197.707 C 10.460 197.877,10.582 197.997,10.730 197.974 C 11.586 197.838,11.959 198.070,11.753 198.608 C 11.563 199.103,11.615 199.126,12.075 198.744 C 12.518 198.376,12.624 198.378,12.624 198.754 C 12.624 199.009,12.731 199.112,12.861 198.981 C 12.992 198.851,13.298 198.909,13.542 199.112 C 15.006 200.327,18.717 200.528,39.767 200.535 L 60.599 200.541 60.507 272.137 C 60.456 311.515,60.537 343.733,60.685 343.733 C 60.834 343.733,60.956 344.112,60.956 344.575 C 60.956 345.038,61.078 345.538,61.226 345.687 C 61.375 345.836,61.517 346.106,61.542 346.288 C 61.567 346.470,61.628 346.700,61.677 346.799 C 61.727 346.898,61.793 347.101,61.825 347.250 C 61.857 347.399,62.075 347.864,62.308 348.284 C 62.542 348.705,62.631 349.151,62.506 349.276 C 62.381 349.402,62.440 349.504,62.638 349.504 C 63.074 349.504,65.404 353.026,65.404 353.685 C 65.404 353.942,65.502 354.121,65.622 354.083 C 65.979 353.968,67.809 355.528,67.809 355.947 C 67.809 356.160,68.051 356.242,68.347 356.128 C 68.654 356.010,68.980 356.170,69.107 356.500 C 69.229 356.818,69.555 357.078,69.831 357.078 C 70.108 357.078,70.334 357.268,70.334 357.499 C 70.334 357.731,70.440 357.813,70.571 357.683 C 70.895 357.359,71.817 358.164,71.573 358.558 C 71.466 358.732,71.632 358.776,71.943 358.657 C 72.253 358.538,72.708 358.601,72.953 358.797 C 74.753 360.236,76.911 360.325,110.253 360.325 C 141.228 360.325,144.511 360.225,146.979 359.210 C 147.574 358.966,148.183 358.792,148.332 358.824 C 148.481 358.856,148.602 358.710,148.602 358.500 C 148.602 358.290,148.765 358.218,148.963 358.341 C 149.161 358.463,149.324 358.372,149.324 358.138 C 149.324 357.814,149.445 357.812,149.827 358.129 C 150.213 358.450,150.318 358.439,150.278 358.083 C 150.249 357.828,150.388 357.567,150.586 357.504 C 150.784 357.440,151.077 357.156,151.235 356.872 C 151.394 356.589,151.725 356.357,151.972 356.357 C 152.500 356.357,155.317 353.559,156.020 352.337 C 156.288 351.870,156.788 350.960,157.130 350.316 C 157.473 349.671,157.895 349.143,158.068 349.143 C 158.242 349.143,158.283 348.981,158.161 348.783 C 158.038 348.584,158.137 348.422,158.380 348.422 C 158.623 348.422,158.715 348.315,158.584 348.185 C 158.454 348.054,158.528 347.730,158.749 347.463 C 158.970 347.197,159.030 346.979,158.882 346.979 C 158.734 346.979,158.819 346.732,159.069 346.430 C 159.320 346.127,159.423 345.777,159.297 345.651 C 159.171 345.525,159.270 345.180,159.516 344.883 C 159.866 344.462,159.986 335.145,160.063 302.379 L 160.162 260.415 200.279 260.415 L 240.397 260.415 240.303 300.681 C 240.235 330.036,240.320 341.079,240.615 341.434 C 240.857 341.726,240.924 342.431,240.782 343.188 C 240.626 344.020,240.682 344.454,240.946 344.454 C 241.177 344.454,241.254 344.747,241.128 345.145 C 241.007 345.526,241.080 345.943,241.290 346.072 C 241.499 346.202,241.584 346.448,241.479 346.619 C 241.373 346.790,241.454 347.033,241.659 347.160 C 241.864 347.286,241.938 347.541,241.824 347.726 C 241.710 347.910,241.808 348.061,242.043 348.061 C 242.357 348.061,242.350 348.205,242.013 348.611 C 241.632 349.070,241.654 349.123,242.149 348.933 C 242.475 348.808,242.741 348.857,242.741 349.043 C 242.741 349.229,243.240 350.134,243.851 351.055 C 244.461 351.977,244.858 352.895,244.734 353.097 C 244.606 353.303,244.726 353.379,245.010 353.270 C 245.302 353.158,246.064 353.688,246.831 354.537 C 247.556 355.340,248.303 355.996,248.491 355.996 C 248.678 355.996,249.044 356.299,249.303 356.669 C 249.562 357.039,249.891 357.323,250.033 357.300 C 250.176 357.278,250.600 357.523,250.977 357.845 C 251.354 358.168,252.698 358.817,253.965 359.288 L 256.267 360.144 289.089 360.253 C 323.113 360.367,324.764 360.308,327.557 358.882 C 328.281 358.512,328.971 358.307,329.090 358.425 C 329.208 358.544,329.306 358.452,329.306 358.221 C 329.306 357.989,329.549 357.800,329.847 357.800 C 330.144 357.800,330.388 357.667,330.388 357.506 C 330.388 357.344,331.030 356.850,331.815 356.409 C 333.271 355.591,336.519 352.104,336.519 351.359 C 336.519 351.132,336.682 350.947,336.880 350.947 C 337.078 350.947,337.241 350.703,337.241 350.406 C 337.241 350.108,337.403 349.865,337.601 349.865 C 337.800 349.865,337.928 349.743,337.885 349.594 C 337.843 349.445,338.011 348.959,338.259 348.512 C 338.506 348.066,338.581 347.698,338.426 347.695 C 338.270 347.692,338.319 347.570,338.535 347.425 C 339.036 347.086,339.766 344.161,339.766 342.491 C 339.766 341.786,339.929 341.208,340.129 341.208 C 340.372 341.208,340.462 317.933,340.399 270.875 L 340.307 200.541 361.070 200.541 C 374.060 200.541,382.634 200.398,383.973 200.160 C 385.991 199.801,389.939 198.156,390.201 197.565 C 390.268 197.417,390.514 197.295,390.749 197.295 C 391.487 197.295,394.886 194.081,395.724 192.591 C 396.165 191.806,396.658 191.163,396.820 191.163 C 396.982 191.163,397.115 190.920,397.115 190.622 C 397.115 190.325,397.286 190.081,397.496 190.081 C 397.707 190.081,397.778 189.919,397.656 189.720 C 397.533 189.522,397.614 189.360,397.836 189.360 C 398.058 189.360,398.139 189.197,398.016 188.999 C 397.894 188.801,397.939 188.638,398.116 188.638 C 399.351 188.638,400.350 180.115,399.497 176.858 C 398.604 173.447,394.525 166.846,392.711 165.875 C 391.925 165.454,384.166 158.900,360.403 138.580 C 357.569 136.157,355.129 134.175,354.979 134.175 C 354.830 134.175,353.740 133.204,352.557 132.016 C 351.374 130.829,350.276 129.855,350.118 129.852 C 349.960 129.849,345.740 126.320,340.741 122.010 C 335.741 117.700,329.134 112.005,326.060 109.354 C 322.985 106.704,319.032 103.292,317.276 101.772 C 315.519 100.252,313.785 98.846,313.422 98.647 C 313.059 98.449,311.737 97.356,310.484 96.218 C 309.231 95.080,306.826 92.964,305.140 91.514 C 303.454 90.065,297.303 84.747,291.472 79.697 C 285.641 74.646,280.106 69.865,279.172 69.071 C 278.239 68.278,275.242 65.681,272.513 63.300 C 269.783 60.920,267.149 58.707,266.658 58.382 C 266.167 58.057,264.684 56.801,263.361 55.590 C 262.038 54.380,256.979 49.958,252.119 45.764 C 244.271 38.992,238.600 34.072,230.867 27.326 C 229.562 26.188,227.548 24.484,226.391 23.539 C 225.234 22.594,223.157 20.768,221.776 19.481 C 220.394 18.194,218.963 16.976,218.594 16.776 C 218.226 16.575,216.813 15.400,215.455 14.164 C 212.563 11.533,201.176 1.655,200.687 1.352 C 200.502 1.238,195.809 5.035,190.257 9.789 M29.460 201.172 C 35.050 201.228,44.302 201.228,50.019 201.172 C 55.737 201.116,51.163 201.071,39.856 201.070 C 28.548 201.070,23.870 201.116,29.460 201.172 M350.676 201.172 C 356.380 201.228,365.712 201.228,371.416 201.172 C 377.119 201.116,372.453 201.071,361.046 201.071 C 349.639 201.071,344.973 201.116,350.676 201.172 " stroke="none" fill="#fcfcfc" fill-rule="evenodd"></path><path id="path1" d="M199.850 0.470 C 199.932 0.530,200.487 0.880,201.082 1.247 L 202.164 1.915 201.477 1.138 C 201.099 0.710,200.545 0.361,200.245 0.361 C 199.945 0.361,199.767 0.410,199.850 0.470 M198.738 1.623 C 198.487 1.925,198.448 2.164,198.649 2.164 C 198.848 2.164,199.212 1.921,199.459 1.623 C 199.709 1.321,199.749 1.082,199.547 1.082 C 199.349 1.082,198.985 1.326,198.738 1.623 M203.066 2.885 C 203.447 3.598,204.148 3.878,204.148 3.318 C 204.148 2.939,203.364 2.164,202.981 2.164 C 202.815 2.164,202.853 2.489,203.066 2.885 M196.285 3.318 C 195.764 3.839,195.703 4.824,196.211 4.510 C 196.727 4.191,197.376 2.885,197.019 2.885 C 196.853 2.885,196.523 3.080,196.285 3.318 M205.842 5.032 C 205.944 5.420,206.441 6.009,206.948 6.341 L 207.869 6.945 207.074 5.828 C 206.074 4.424,205.604 4.120,205.842 5.032 M193.334 6.200 L 192.484 7.350 193.631 6.533 C 194.262 6.083,194.686 5.566,194.573 5.383 C 194.284 4.916,194.281 4.919,193.334 6.200 M209.019 7.937 C 209.379 8.335,209.752 8.583,209.848 8.487 C 210.090 8.245,209.191 7.214,208.737 7.214 C 208.532 7.214,208.659 7.539,209.019 7.937 M191.073 7.964 C 190.395 8.359,190.218 9.017,190.790 9.017 C 190.981 9.017,191.312 8.693,191.524 8.296 C 191.963 7.476,191.940 7.459,191.073 7.964 M188.350 10.171 C 187.828 10.693,187.787 11.181,188.265 11.181 C 188.456 11.181,188.787 10.857,188.999 10.460 C 189.424 9.665,189.031 9.491,188.350 10.171 M211.362 9.851 C 211.362 10.420,213.489 11.888,213.724 11.481 C 213.877 11.217,213.873 11.117,213.716 11.259 C 213.559 11.401,213.115 11.117,212.730 10.628 C 212.144 9.883,211.362 9.439,211.362 9.851 M214.754 12.932 C 215.517 13.792,215.690 13.870,215.690 13.358 C 215.690 13.167,215.325 12.818,214.878 12.584 C 214.071 12.161,214.070 12.162,214.754 12.932 M183.048 14.788 C 182.546 15.343,182.513 15.509,182.905 15.509 C 183.186 15.509,183.618 15.185,183.866 14.788 C 184.114 14.391,184.178 14.067,184.008 14.067 C 183.839 14.067,183.407 14.391,183.048 14.788 M217.674 15.509 C 218.033 15.906,218.489 16.231,218.687 16.231 C 218.885 16.231,218.754 15.906,218.395 15.509 C 218.036 15.113,217.580 14.788,217.381 14.788 C 217.183 14.788,217.315 15.113,217.674 15.509 M180.328 17.382 L 179.513 18.575 180.540 17.594 C 181.105 17.055,181.471 16.518,181.355 16.401 C 181.238 16.285,180.776 16.726,180.328 17.382 M220.018 17.261 C 220.018 17.426,220.343 17.856,220.739 18.215 C 221.136 18.574,221.461 18.716,221.461 18.531 C 221.461 18.346,221.136 17.917,220.739 17.577 C 220.343 17.237,220.018 17.095,220.018 17.261 M177.998 19.116 C 177.637 19.516,177.423 19.923,177.522 20.022 C 177.621 20.122,177.998 19.876,178.359 19.477 C 178.720 19.078,178.935 18.670,178.835 18.571 C 178.736 18.472,178.359 18.717,177.998 19.116 M222.904 19.719 C 222.904 20.180,224.288 21.459,224.527 21.220 C 224.625 21.122,224.299 20.662,223.804 20.197 C 223.309 19.732,222.904 19.517,222.904 19.719 M175.113 21.641 C 174.754 22.038,174.622 22.362,174.821 22.362 C 175.019 22.362,175.475 22.038,175.834 21.641 C 176.193 21.244,176.325 20.920,176.126 20.920 C 175.928 20.920,175.472 21.244,175.113 21.641 M225.789 22.255 C 225.789 22.444,226.217 22.991,226.740 23.472 C 227.588 24.252,227.648 24.265,227.300 23.595 C 226.835 22.698,225.789 21.771,225.789 22.255 M173.061 23.352 C 172.018 24.567,171.957 25.060,172.971 24.087 C 173.533 23.547,173.905 23.019,173.799 22.912 C 173.693 22.806,173.361 23.004,173.061 23.352 M228.674 24.769 C 228.674 25.229,230.059 26.509,230.298 26.269 C 230.396 26.172,230.070 25.712,229.575 25.247 C 229.080 24.781,228.674 24.566,228.674 24.769 M169.883 26.150 C 169.632 26.451,169.593 26.691,169.794 26.691 C 169.993 26.691,170.357 26.447,170.604 26.150 C 170.855 25.848,170.894 25.609,170.692 25.609 C 170.494 25.609,170.130 25.852,169.883 26.150 M231.560 27.305 C 231.560 27.493,231.988 28.041,232.511 28.521 C 233.359 29.302,233.419 29.315,233.071 28.645 C 232.606 27.748,231.560 26.821,231.560 27.305 M167.651 28.041 C 166.607 29.256,166.547 29.749,167.560 28.776 C 168.122 28.236,168.495 27.708,168.389 27.601 C 168.282 27.495,167.950 27.693,167.651 28.041 M234.205 29.374 C 234.205 29.941,235.409 31.260,235.678 30.987 C 235.758 30.905,235.459 30.383,235.014 29.826 C 234.477 29.153,234.205 29.002,234.205 29.374 M164.826 30.487 C 164.129 31.326,164.626 31.485,165.372 30.660 C 165.732 30.262,165.859 29.937,165.655 29.937 C 165.450 29.937,165.077 30.184,164.826 30.487 M162.130 32.820 C 161.770 33.218,161.643 33.544,161.848 33.544 C 162.301 33.544,163.201 32.513,162.959 32.270 C 162.863 32.175,162.490 32.422,162.130 32.820 M237.331 32.362 C 237.331 32.815,238.362 33.715,238.604 33.473 C 238.700 33.377,238.452 33.004,238.055 32.644 C 237.657 32.284,237.331 32.157,237.331 32.362 M159.416 34.815 C 159.165 35.117,159.060 35.465,159.182 35.588 C 159.444 35.850,160.505 35.043,160.505 34.582 C 160.505 34.085,159.917 34.211,159.416 34.815 M240.397 35.347 C 240.756 35.744,241.188 36.069,241.357 36.069 C 241.527 36.069,241.463 35.744,241.215 35.347 C 240.967 34.950,240.535 34.626,240.254 34.626 C 239.862 34.626,239.895 34.793,240.397 35.347 M157.078 37.151 C 156.719 37.547,156.607 37.872,156.830 37.872 C 157.052 37.872,157.407 37.547,157.619 37.151 C 157.832 36.754,157.944 36.429,157.868 36.429 C 157.793 36.429,157.438 36.754,157.078 37.151 M243.055 37.401 C 243.490 38.238,244.128 38.769,244.387 38.511 C 244.472 38.425,244.115 37.963,243.593 37.483 C 242.688 36.650,242.662 36.646,243.055 37.401 M154.445 39.026 C 153.924 39.547,153.863 40.532,154.371 40.218 C 154.888 39.899,155.537 38.593,155.180 38.593 C 155.014 38.593,154.683 38.788,154.445 39.026 M245.627 39.603 C 245.627 40.073,246.451 40.757,247.017 40.757 C 247.434 40.757,247.407 40.609,246.889 40.036 C 246.219 39.295,245.627 39.092,245.627 39.603 M151.630 41.742 L 150.604 43.086 151.707 42.301 C 152.314 41.869,152.810 41.264,152.810 40.956 C 152.810 40.201,152.800 40.208,151.630 41.742 M149.118 43.798 C 148.736 44.077,148.548 44.431,148.702 44.584 C 148.855 44.737,149.251 44.592,149.581 44.261 C 150.361 43.482,150.018 43.139,149.118 43.798 M251.398 44.232 C 251.398 44.872,252.353 45.910,252.803 45.759 C 253.085 45.665,252.910 45.299,252.321 44.745 C 251.813 44.268,251.398 44.037,251.398 44.232 M146.431 45.996 C 146.180 46.298,146.075 46.646,146.198 46.769 C 146.460 47.031,147.520 46.224,147.520 45.763 C 147.520 45.266,146.932 45.392,146.431 45.996 M254.317 46.999 C 254.525 47.456,255.026 48.036,255.430 48.289 C 256.026 48.661,255.979 48.504,255.182 47.458 C 254.042 45.964,253.782 45.826,254.317 46.999 M256.819 48.883 C 256.839 49.478,257.868 50.639,258.137 50.369 C 258.277 50.230,258.035 49.759,257.599 49.324 C 257.164 48.888,256.813 48.690,256.819 48.883 M141.208 50.496 C 140.706 51.051,140.673 51.217,141.066 51.217 C 141.346 51.217,141.779 50.893,142.026 50.496 C 142.274 50.099,142.338 49.775,142.169 49.775 C 142.000 49.775,141.567 50.099,141.208 50.496 M259.693 51.455 C 259.693 51.647,260.201 52.280,260.822 52.863 C 261.628 53.619,261.844 53.715,261.577 53.197 C 261.111 52.293,259.693 50.982,259.693 51.455 M138.488 53.090 L 137.673 54.283 138.700 53.302 C 139.265 52.763,139.632 52.226,139.515 52.109 C 139.399 51.993,138.937 52.434,138.488 53.090 M262.579 53.991 C 262.579 54.189,262.904 54.645,263.300 55.005 C 263.697 55.364,264.022 55.495,264.022 55.297 C 264.022 55.098,263.697 54.642,263.300 54.283 C 262.904 53.924,262.579 53.793,262.579 53.991 M135.971 55.013 C 135.274 55.853,135.771 56.011,136.517 55.187 C 136.878 54.789,137.005 54.463,136.800 54.463 C 136.595 54.463,136.222 54.711,135.971 55.013 M265.464 56.516 C 265.464 56.714,265.789 57.170,266.186 57.529 C 266.583 57.888,266.907 58.020,266.907 57.821 C 266.907 57.623,266.583 57.167,266.186 56.808 C 265.789 56.449,265.464 56.317,265.464 56.516 M133.273 57.349 C 132.914 57.746,132.783 58.070,132.981 58.070 C 133.179 58.070,133.636 57.746,133.995 57.349 C 134.354 56.952,134.485 56.628,134.287 56.628 C 134.088 56.628,133.632 56.952,133.273 57.349 M131.222 59.060 C 130.178 60.275,130.117 60.768,131.131 59.795 C 131.693 59.255,132.066 58.726,131.959 58.620 C 131.853 58.514,131.521 58.712,131.222 59.060 M267.989 58.680 C 267.989 58.878,268.314 59.334,268.711 59.693 C 269.107 60.052,269.432 60.184,269.432 59.986 C 269.432 59.787,269.107 59.331,268.711 58.972 C 268.314 58.613,267.989 58.482,267.989 58.680 M128.226 61.675 C 127.865 62.073,127.738 62.399,127.943 62.399 C 128.397 62.399,129.297 61.368,129.054 61.125 C 128.959 61.030,128.586 61.277,128.226 61.675 M271.235 61.577 C 271.235 62.031,272.266 62.931,272.509 62.688 C 272.604 62.593,272.357 62.220,271.959 61.860 C 271.561 61.499,271.235 61.372,271.235 61.577 M125.699 63.795 C 125.302 64.132,124.927 64.645,124.865 64.936 C 124.802 65.232,125.190 65.034,125.748 64.483 C 126.860 63.386,126.822 62.841,125.699 63.795 M273.760 63.777 C 273.760 64.316,275.118 65.352,275.344 64.986 C 275.462 64.797,275.153 64.377,274.659 64.053 C 274.165 63.729,273.760 63.605,273.760 63.777 M122.986 66.194 C 122.289 67.034,122.787 67.193,123.533 66.368 C 123.893 65.970,124.020 65.645,123.815 65.645 C 123.610 65.645,123.237 65.892,122.986 66.194 M276.646 66.266 C 276.646 66.720,277.677 67.619,277.919 67.377 C 278.015 67.281,277.767 66.909,277.369 66.548 C 276.971 66.188,276.646 66.061,276.646 66.266 M120.291 68.528 C 119.930 68.926,119.803 69.252,120.008 69.252 C 120.462 69.252,121.362 68.221,121.119 67.978 C 121.024 67.883,120.651 68.130,120.291 68.528 M279.481 68.781 C 279.940 69.657,280.613 70.197,280.613 69.689 C 280.613 69.510,280.265 69.054,279.839 68.676 C 279.071 67.994,279.068 67.995,279.481 68.781 M117.965 70.208 C 117.160 71.231,117.231 71.796,118.077 71.095 C 118.534 70.715,119.139 69.252,118.838 69.252 C 118.772 69.252,118.379 69.682,117.965 70.208 M282.599 71.779 C 282.959 72.177,283.332 72.424,283.428 72.328 C 283.670 72.086,282.770 71.055,282.317 71.055 C 282.112 71.055,282.239 71.381,282.599 71.779 M115.239 72.858 C 114.880 73.255,114.768 73.580,114.990 73.580 C 115.212 73.580,115.568 73.255,115.780 72.858 C 115.992 72.462,116.104 72.137,116.029 72.137 C 115.953 72.137,115.598 72.462,115.239 72.858 M284.941 73.480 C 284.941 73.934,285.972 74.833,286.215 74.591 C 286.310 74.495,286.063 74.122,285.665 73.762 C 285.267 73.402,284.941 73.275,284.941 73.480 M112.804 74.821 C 112.457 75.075,112.173 75.503,112.173 75.774 C 112.173 76.097,112.444 75.994,112.965 75.473 C 113.865 74.573,113.755 74.126,112.804 74.821 M287.466 75.445 C 287.466 76.140,288.769 77.345,289.042 76.902 C 289.155 76.719,288.847 76.194,288.357 75.733 C 287.687 75.104,287.466 75.033,287.466 75.445 M109.874 77.404 C 109.027 78.466,108.974 78.630,109.584 78.303 C 110.382 77.876,110.848 77.283,110.959 76.555 C 111.053 75.932,111.040 75.943,109.874 77.404 M290.712 78.629 C 290.925 79.026,291.280 79.351,291.502 79.351 C 291.724 79.351,291.612 79.026,291.253 78.629 C 290.894 78.233,290.539 77.908,290.463 77.908 C 290.388 77.908,290.500 78.233,290.712 78.629 M107.394 79.492 C 106.698 80.021,106.573 80.433,107.111 80.433 C 107.302 80.433,107.633 80.108,107.845 79.711 C 108.295 78.871,108.245 78.846,107.394 79.492 M293.008 80.320 C 293.670 81.620,294.319 82.165,294.319 81.419 C 294.319 81.144,293.893 80.526,293.372 80.045 L 292.424 79.170 293.008 80.320 M104.600 81.694 C 104.135 82.189,103.834 82.674,103.932 82.772 C 104.228 83.068,105.437 82.018,105.530 81.384 C 105.643 80.615,105.600 80.630,104.600 81.694 M295.762 82.474 C 295.762 82.671,296.208 83.225,296.754 83.706 L 297.746 84.581 296.844 83.499 C 296.348 82.904,295.902 82.349,295.852 82.266 C 295.803 82.184,295.762 82.277,295.762 82.474 M298.731 85.482 C 299.186 86.211,299.729 86.447,299.729 85.915 C 299.729 85.540,298.948 84.761,298.572 84.761 C 298.412 84.761,298.483 85.086,298.731 85.482 M99.371 86.202 C 98.817 86.813,98.802 86.925,99.274 86.925 C 99.581 86.925,99.935 86.658,100.060 86.333 C 100.401 85.444,100.107 85.388,99.371 86.202 M301.172 87.112 C 301.172 87.601,301.903 88.655,302.364 88.832 C 303.171 89.141,302.920 88.210,302.014 87.526 C 301.551 87.177,301.172 86.991,301.172 87.112 M96.649 88.798 L 95.834 89.991 96.861 89.010 C 97.426 88.471,97.792 87.934,97.676 87.817 C 97.559 87.700,97.097 88.142,96.649 88.798 M94.319 90.532 C 93.958 90.931,93.744 91.339,93.843 91.438 C 93.942 91.537,94.319 91.292,94.680 90.893 C 95.041 90.494,95.256 90.086,95.156 89.987 C 95.057 89.887,94.680 90.133,94.319 90.532 M304.601 90.534 C 304.961 90.932,305.334 91.180,305.429 91.084 C 305.672 90.842,304.772 89.811,304.318 89.811 C 304.113 89.811,304.241 90.136,304.601 90.534 M306.943 92.247 C 306.943 92.445,307.187 92.810,307.484 93.057 C 307.786 93.307,308.025 93.346,308.025 93.145 C 308.025 92.947,307.782 92.582,307.484 92.335 C 307.182 92.085,306.943 92.046,306.943 92.247 M91.239 93.487 L 90.424 94.680 91.451 93.699 C 92.015 93.159,92.382 92.623,92.265 92.506 C 92.149 92.389,91.687 92.831,91.239 93.487 M86.386 97.383 C 86.026 97.781,85.899 98.106,86.104 98.106 C 86.558 98.106,87.457 97.075,87.215 96.833 C 87.119 96.737,86.746 96.985,86.386 97.383 M312.534 97.385 C 312.893 97.782,313.349 98.106,313.547 98.106 C 313.746 98.106,313.614 97.782,313.255 97.385 C 312.896 96.988,312.440 96.664,312.242 96.664 C 312.043 96.664,312.175 96.988,312.534 97.385 M83.972 99.457 C 82.928 100.672,82.868 101.165,83.881 100.191 C 84.443 99.652,84.816 99.123,84.710 99.017 C 84.603 98.910,84.271 99.108,83.972 99.457 M314.878 99.109 C 314.878 99.282,315.257 99.779,315.720 100.214 C 316.248 100.710,316.561 100.830,316.561 100.534 C 316.561 100.275,316.183 99.778,315.720 99.429 C 315.257 99.080,314.878 98.936,314.878 99.109 M317.403 101.241 C 317.403 101.439,317.728 101.895,318.124 102.254 C 318.521 102.613,318.846 102.745,318.846 102.546 C 318.846 102.348,318.521 101.892,318.124 101.533 C 317.728 101.174,317.403 101.042,317.403 101.241 M81.147 101.902 C 80.450 102.742,80.947 102.900,81.693 102.076 C 82.053 101.678,82.180 101.353,81.976 101.353 C 81.771 101.353,81.398 101.600,81.147 101.902 M78.451 104.236 C 78.091 104.634,77.964 104.959,78.169 104.959 C 78.622 104.959,79.522 103.928,79.280 103.686 C 79.184 103.590,78.811 103.838,78.451 104.236 M320.289 103.789 C 320.289 103.987,320.532 104.352,320.830 104.599 C 321.131 104.849,321.371 104.888,321.371 104.687 C 321.371 104.489,321.127 104.124,320.830 103.877 C 320.528 103.627,320.289 103.588,320.289 103.789 M322.803 106.021 C 323.009 106.407,323.339 106.822,323.537 106.944 C 324.045 107.258,323.984 106.274,323.463 105.753 C 322.789 105.080,322.386 105.243,322.803 106.021 M75.954 106.276 C 75.648 107.073,75.904 107.259,76.431 106.623 C 76.688 106.315,76.724 106.021,76.521 105.895 C 76.333 105.780,76.078 105.951,75.954 106.276 M73.399 108.566 C 73.040 108.963,72.928 109.288,73.151 109.288 C 73.373 109.288,73.728 108.963,73.940 108.566 C 74.153 108.170,74.265 107.845,74.189 107.845 C 74.114 107.845,73.759 108.170,73.399 108.566 M70.962 110.415 C 70.616 110.608,70.334 111.038,70.334 111.369 C 70.334 111.876,70.460 111.846,71.125 111.181 C 72.011 110.296,71.921 109.878,70.962 110.415 M328.224 110.462 C 328.224 110.759,328.467 111.205,328.765 111.452 C 329.205 111.817,329.306 111.800,329.306 111.360 C 329.306 111.062,329.062 110.617,328.765 110.370 C 328.325 110.005,328.224 110.022,328.224 110.462 M67.780 113.486 C 66.948 114.391,66.944 114.416,67.699 114.024 C 68.536 113.588,69.067 112.950,68.808 112.692 C 68.723 112.606,68.260 112.964,67.780 113.486 M330.929 113.255 C 331.288 113.652,331.744 113.977,331.942 113.977 C 332.141 113.977,332.009 113.652,331.650 113.255 C 331.291 112.858,330.835 112.534,330.637 112.534 C 330.438 112.534,330.570 112.858,330.929 113.255 M65.555 115.088 C 64.877 115.482,64.700 116.141,65.271 116.141 C 65.463 116.141,65.793 115.816,66.005 115.419 C 66.444 114.599,66.422 114.582,65.555 115.088 M333.625 115.403 C 333.842 115.809,334.177 116.141,334.368 116.141 C 334.958 116.141,334.754 115.616,333.973 115.129 C 333.287 114.700,333.260 114.721,333.625 115.403 M62.876 117.313 C 61.589 118.743,61.509 119.195,62.694 118.351 C 63.325 117.902,63.841 117.302,63.841 117.018 C 63.841 116.328,63.733 116.361,62.876 117.313 M335.918 117.059 C 335.918 117.368,336.397 117.961,336.982 118.377 C 337.971 119.081,338.020 119.086,337.677 118.445 C 337.050 117.275,335.918 116.383,335.918 117.059 M60.216 119.948 C 59.739 120.455,59.593 120.776,59.890 120.662 C 60.360 120.482,61.527 119.026,61.202 119.026 C 61.136 119.026,60.692 119.441,60.216 119.948 M339.044 120.108 C 339.257 120.505,339.612 120.830,339.834 120.830 C 340.056 120.830,339.944 120.505,339.585 120.108 C 339.226 119.711,338.871 119.387,338.795 119.387 C 338.720 119.387,338.832 119.711,339.044 120.108 M341.208 121.643 C 341.208 121.941,341.452 122.386,341.749 122.633 C 342.189 122.998,342.290 122.981,342.290 122.541 C 342.290 122.243,342.047 121.798,341.749 121.551 C 341.309 121.186,341.208 121.203,341.208 121.643 M57.589 121.791 C 57.245 122.136,57.293 122.633,57.671 122.633 C 57.848 122.633,58.087 122.390,58.201 122.092 C 58.412 121.542,58.028 121.353,57.589 121.791 M54.841 124.531 L 54.008 125.699 55.028 124.718 C 55.589 124.178,55.964 123.653,55.861 123.550 C 55.759 123.447,55.300 123.889,54.841 124.531 M343.733 123.652 C 343.733 123.816,344.165 124.343,344.692 124.824 L 345.651 125.699 344.804 124.527 C 343.924 123.307,343.733 123.151,343.733 123.652 M52.723 125.993 C 51.909 126.859,51.735 127.322,52.222 127.322 C 52.377 127.322,52.792 126.835,53.144 126.240 C 53.910 124.942,53.781 124.866,52.723 125.993 M346.702 126.601 C 347.157 127.329,347.701 127.565,347.701 127.033 C 347.701 126.659,346.919 125.879,346.543 125.879 C 346.383 125.879,346.455 126.204,346.702 126.601 M49.707 128.672 C 48.663 129.887,48.603 130.380,49.616 129.407 C 50.178 128.867,50.551 128.339,50.445 128.232 C 50.338 128.126,50.006 128.324,49.707 128.672 M349.143 128.292 C 349.143 128.491,349.468 128.947,349.865 129.306 C 350.261 129.665,350.586 129.796,350.586 129.598 C 350.586 129.399,350.261 128.943,349.865 128.584 C 349.468 128.225,349.143 128.094,349.143 128.292 M352.002 131.062 C 352.978 132.121,353.171 132.225,352.912 131.552 C 352.815 131.300,352.374 130.873,351.932 130.603 C 351.164 130.135,351.168 130.156,352.002 131.062 M44.547 133.091 C 44.186 133.489,44.059 133.814,44.264 133.814 C 44.718 133.814,45.618 132.783,45.375 132.541 C 45.280 132.445,44.907 132.693,44.547 133.091 M354.375 133.095 C 354.735 133.493,355.108 133.740,355.204 133.645 C 355.446 133.402,354.547 132.372,354.093 132.372 C 353.888 132.372,354.015 132.697,354.375 133.095 M42.177 135.016 C 41.868 135.248,41.495 135.762,41.349 136.159 C 41.133 136.744,41.269 136.695,42.073 135.899 C 43.097 134.885,43.170 134.273,42.177 135.016 M356.718 134.819 C 356.718 134.998,357.066 135.454,357.492 135.832 C 358.260 136.515,358.263 136.514,357.850 135.728 C 357.391 134.851,356.718 134.311,356.718 134.819 M39.134 137.782 C 38.775 138.179,38.644 138.503,38.842 138.503 C 39.041 138.503,39.497 138.179,39.856 137.782 C 40.215 137.385,40.346 137.060,40.148 137.060 C 39.949 137.060,39.493 137.385,39.134 137.782 M359.603 137.601 C 359.850 137.899,360.215 138.142,360.413 138.142 C 360.614 138.142,360.575 137.903,360.325 137.601 C 360.078 137.304,359.713 137.060,359.515 137.060 C 359.314 137.060,359.353 137.300,359.603 137.601 M361.767 139.124 C 361.767 139.578,362.798 140.478,363.041 140.236 C 363.136 140.140,362.889 139.767,362.491 139.407 C 362.093 139.047,361.767 138.920,361.767 139.124 M36.722 139.854 C 35.679 141.069,35.618 141.562,36.632 140.588 C 37.194 140.049,37.566 139.520,37.460 139.414 C 37.353 139.307,37.022 139.505,36.722 139.854 M364.292 141.344 C 364.292 141.519,364.536 141.863,364.833 142.110 C 365.420 142.597,365.494 142.481,365.155 141.598 C 364.924 140.995,364.292 140.809,364.292 141.344 M33.952 142.168 C 33.339 143.150,33.634 143.368,34.411 142.509 C 34.753 142.130,34.893 141.734,34.721 141.628 C 34.550 141.522,34.203 141.765,33.952 142.168 M366.817 143.453 C 366.817 143.907,367.848 144.806,368.090 144.564 C 368.186 144.468,367.939 144.095,367.541 143.735 C 367.143 143.375,366.817 143.248,366.817 143.453 M31.560 144.274 C 31.201 144.671,31.089 144.995,31.311 144.995 C 31.533 144.995,31.889 144.671,32.101 144.274 C 32.313 143.877,32.425 143.553,32.350 143.553 C 32.275 143.553,31.919 143.877,31.560 144.274 M369.342 145.684 C 369.342 145.852,369.585 146.191,369.883 146.438 C 370.323 146.804,370.424 146.786,370.424 146.341 C 370.424 146.040,370.180 145.701,369.883 145.586 C 369.585 145.472,369.342 145.516,369.342 145.684 M28.847 146.372 C 28.358 146.768,28.169 147.139,28.387 147.274 C 28.782 147.518,30.182 146.203,29.866 145.886 C 29.763 145.783,29.304 146.002,28.847 146.372 M371.750 147.417 C 371.625 147.619,371.844 148.075,372.236 148.430 C 373.048 149.164,373.191 148.712,372.463 147.715 C 372.173 147.319,371.885 147.199,371.750 147.417 M25.941 149.194 C 25.108 150.099,25.105 150.124,25.859 149.731 C 26.696 149.296,27.228 148.658,26.969 148.399 C 26.884 148.314,26.421 148.672,25.941 149.194 M23.599 150.921 C 23.217 151.200,23.030 151.554,23.183 151.707 C 23.336 151.861,23.732 151.715,24.063 151.385 C 24.842 150.605,24.500 150.262,23.599 150.921 M376.555 151.339 C 376.555 151.972,377.563 153.125,377.858 152.830 C 378.012 152.676,377.782 152.194,377.347 151.758 C 376.912 151.323,376.555 151.134,376.555 151.339 M20.498 153.737 L 19.667 154.905 20.839 154.070 C 21.483 153.612,21.918 153.086,21.804 152.903 C 21.497 152.406,21.403 152.467,20.498 153.737 M379.206 153.879 C 379.519 154.499,380.061 155.117,380.411 155.251 C 381.034 155.490,380.991 155.427,378.954 153.111 C 378.780 152.913,378.893 153.258,379.206 153.879 M381.824 156.327 C 381.944 156.641,382.201 156.898,382.395 156.898 C 382.869 156.898,382.572 156.078,382.033 155.899 C 381.770 155.811,381.689 155.976,381.824 156.327 M15.936 157.337 C 15.431 157.842,15.379 158.341,15.832 158.341 C 16.162 158.341,16.706 157.253,16.486 157.033 C 16.418 156.965,16.171 157.102,15.936 157.337 M384.135 157.834 C 384.146 158.459,384.771 159.149,385.198 159.007 C 385.476 158.914,385.363 158.623,384.879 158.186 C 384.467 157.813,384.132 157.655,384.135 157.834 M13.016 160.282 L 12.145 161.407 13.177 160.426 C 13.744 159.886,14.136 159.380,14.048 159.301 C 13.959 159.222,13.495 159.663,13.016 160.282 M10.532 162.020 C 10.294 162.258,10.099 162.583,10.099 162.741 C 10.099 163.273,10.642 163.037,11.098 162.308 C 11.591 161.519,11.222 161.330,10.532 162.020 M389.179 162.489 C 389.426 162.786,389.791 163.030,389.989 163.030 C 390.190 163.030,390.151 162.791,389.901 162.489 C 389.654 162.191,389.289 161.948,389.091 161.948 C 388.890 161.948,388.929 162.187,389.179 162.489 M7.137 165.194 C 6.237 166.186,5.622 166.997,5.770 166.997 C 6.063 166.997,9.017 163.887,9.017 163.579 C 9.017 163.191,8.731 163.437,7.137 165.194 M391.344 164.005 C 391.344 164.193,391.771 164.740,392.294 165.221 C 393.143 166.001,393.203 166.015,392.855 165.345 C 392.389 164.448,391.344 163.521,391.344 164.005 M396.447 169.518 C 396.885 170.110,397.318 170.521,397.408 170.431 C 397.655 170.184,396.433 168.440,396.013 168.440 C 395.814 168.440,396.009 168.925,396.447 169.518 M397.902 171.868 C 398.129 172.365,398.362 172.723,398.421 172.664 C 398.641 172.444,398.101 170.965,397.802 170.965 C 397.631 170.965,397.676 171.371,397.902 171.868 M340.210 342.651 C 340.210 343.345,340.284 343.629,340.375 343.282 C 340.466 342.935,340.466 342.367,340.375 342.020 C 340.284 341.673,340.210 341.957,340.210 342.651 " stroke="none" fill="#d5d5d5" fill-rule="evenodd"></path><path id="path2" d="M197.501 2.731 C 196.663 3.569,196.812 3.703,197.836 3.033 C 198.332 2.708,198.738 2.379,198.738 2.303 C 198.738 1.965,198.018 2.214,197.501 2.731 M204.014 3.532 C 203.905 3.708,204.296 4.208,204.883 4.642 C 205.471 5.077,205.949 5.305,205.946 5.151 C 205.932 4.424,204.305 3.061,204.014 3.532 M194.930 4.479 C 194.545 4.760,194.328 5.089,194.448 5.209 C 194.805 5.565,195.852 5.014,195.852 4.470 C 195.852 3.846,195.795 3.847,194.930 4.479 M207.757 6.710 C 207.756 6.929,208.931 8.138,210.370 9.397 C 211.808 10.656,212.618 11.276,212.170 10.775 C 211.722 10.275,211.452 9.769,211.570 9.651 C 211.784 9.437,210.372 8.513,209.794 8.489 C 209.627 8.482,209.100 7.989,208.624 7.394 C 208.148 6.799,207.758 6.491,207.757 6.710 M189.875 8.932 C 188.934 9.577,188.967 10.498,189.909 9.881 C 190.397 9.561,190.707 9.154,190.598 8.978 C 190.362 8.596,190.366 8.596,189.875 8.932 M186.947 11.458 C 186.825 11.802,186.469 12.408,186.155 12.804 C 185.841 13.201,186.149 13.039,186.839 12.444 C 187.529 11.849,188.142 11.341,188.201 11.316 C 188.260 11.291,188.052 11.172,187.739 11.052 C 187.384 10.915,187.085 11.069,186.947 11.458 M213.526 11.840 C 213.526 12.004,213.957 12.531,214.485 13.012 L 215.443 13.886 214.597 12.714 C 213.717 11.495,213.526 11.339,213.526 11.840 M215.759 13.732 C 215.843 13.985,217.119 15.259,218.595 16.564 C 220.070 17.868,221.077 18.678,220.831 18.362 C 220.586 18.046,220.505 17.655,220.652 17.492 C 220.799 17.330,220.735 17.303,220.510 17.431 C 220.279 17.563,220.018 17.353,219.912 16.948 C 219.807 16.543,219.420 16.231,219.026 16.231 C 218.303 16.231,216.983 15.058,217.323 14.718 C 217.429 14.612,217.086 14.244,216.561 13.899 C 215.937 13.491,215.659 13.433,215.759 13.732 M184.067 13.943 C 184.197 14.074,184.105 14.439,183.862 14.755 C 183.592 15.107,183.733 15.063,184.226 14.642 C 185.190 13.819,185.215 13.706,184.430 13.706 C 184.100 13.706,183.936 13.813,184.067 13.943 M181.966 15.786 C 181.767 15.931,181.417 16.375,181.188 16.772 C 180.958 17.169,180.581 17.449,180.349 17.394 C 180.118 17.340,180.040 17.475,180.176 17.696 C 180.336 17.954,180.890 17.669,181.732 16.893 C 182.451 16.231,183.109 15.649,183.194 15.600 C 183.279 15.550,183.118 15.512,182.837 15.515 C 182.556 15.518,182.164 15.640,181.966 15.786 M178.557 19.211 L 177.723 20.379 178.743 19.398 C 179.304 18.858,179.679 18.333,179.577 18.230 C 179.474 18.127,179.015 18.569,178.557 19.211 M221.542 18.818 C 221.619 19.050,222.891 20.307,224.367 21.610 C 225.843 22.914,226.792 23.657,226.475 23.261 C 226.158 22.866,225.798 22.259,225.675 21.912 C 225.552 21.564,225.146 21.280,224.774 21.280 C 224.123 21.280,222.904 20.246,222.904 19.693 C 222.904 19.363,221.960 18.395,221.637 18.395 C 221.507 18.395,221.464 18.585,221.542 18.818 M176.529 20.371 C 176.147 20.660,175.981 20.902,176.161 20.908 C 176.792 20.930,175.173 22.362,174.516 22.362 C 174.150 22.362,173.850 22.553,173.850 22.785 C 173.850 23.017,173.647 23.472,173.399 23.795 C 173.151 24.117,173.306 24.008,173.743 23.552 C 174.180 23.096,174.675 22.723,174.844 22.723 C 175.276 22.723,177.628 20.249,177.406 20.027 C 177.306 19.927,176.911 20.082,176.529 20.371 M227.232 23.450 C 227.232 23.651,227.825 24.422,228.550 25.163 C 229.274 25.904,229.599 26.173,229.271 25.761 C 228.943 25.348,228.674 24.902,228.674 24.769 C 228.674 24.636,228.350 24.202,227.953 23.805 C 227.556 23.408,227.232 23.249,227.232 23.450 M171.506 24.734 C 171.109 25.034,170.784 25.475,170.784 25.714 C 170.784 25.954,170.257 26.382,169.612 26.666 C 168.968 26.949,168.440 27.342,168.440 27.539 C 168.440 27.735,168.156 28.227,167.809 28.630 C 167.462 29.034,168.206 28.483,169.462 27.406 C 171.965 25.261,173.548 23.191,171.506 24.734 M231.249 27.592 C 232.471 28.888,233.183 29.355,232.212 28.224 C 231.914 27.876,231.569 27.308,231.446 26.961 C 231.323 26.614,230.960 26.330,230.640 26.330 C 230.221 26.330,230.391 26.683,231.249 27.592 M233.303 29.102 C 233.498 29.466,234.037 30.087,234.502 30.482 L 235.347 31.199 234.715 30.449 C 234.368 30.036,234.179 29.603,234.295 29.486 C 234.412 29.369,234.156 29.086,233.728 28.857 C 233.029 28.483,232.985 28.508,233.303 29.102 M165.735 29.576 C 165.612 29.775,165.628 29.937,165.770 29.937 C 165.911 29.937,165.719 30.302,165.343 30.748 C 164.726 31.479,164.756 31.473,165.647 30.686 C 166.191 30.205,166.637 29.677,166.637 29.513 C 166.637 29.097,166.004 29.141,165.735 29.576 M163.798 31.351 C 163.538 31.511,163.136 32.023,162.904 32.488 C 162.672 32.952,162.116 33.420,161.668 33.528 C 161.220 33.636,160.615 34.184,160.324 34.747 C 159.823 35.715,163.644 32.788,164.330 31.679 C 164.637 31.183,164.353 31.008,163.798 31.351 M235.976 31.470 C 236.299 31.718,236.898 32.326,237.308 32.822 L 238.053 33.724 237.535 32.678 C 237.017 31.631,236.366 31.035,235.729 31.024 C 235.542 31.021,235.654 31.222,235.976 31.470 M238.933 34.096 C 239.318 34.387,239.876 34.626,240.174 34.626 C 240.583 34.626,240.544 34.496,240.015 34.096 C 239.630 33.805,239.071 33.567,238.774 33.567 C 238.365 33.567,238.404 33.696,238.933 34.096 M158.186 36.275 C 157.328 37.133,157.508 37.356,158.431 36.579 C 158.877 36.203,159.310 35.854,159.393 35.802 C 159.476 35.750,159.365 35.708,159.148 35.708 C 158.931 35.708,158.498 35.963,158.186 36.275 M241.329 36.163 C 241.411 36.214,241.844 36.564,242.290 36.940 C 242.737 37.316,243.102 37.528,243.102 37.413 C 243.102 37.049,241.987 36.069,241.573 36.069 C 241.356 36.069,241.246 36.111,241.329 36.163 M155.661 38.439 C 154.823 39.277,154.973 39.411,155.996 38.741 C 156.492 38.416,156.898 38.087,156.898 38.011 C 156.898 37.672,156.179 37.921,155.661 38.439 M244.688 39.134 C 245.064 39.419,245.528 39.556,245.718 39.438 C 246.135 39.181,245.315 38.602,244.545 38.610 C 244.129 38.615,244.162 38.736,244.688 39.134 M152.982 40.449 C 152.554 41.134,152.568 41.196,153.105 40.990 C 153.438 40.862,153.779 40.757,153.862 40.757 C 153.945 40.757,154.013 40.514,154.013 40.216 C 154.013 39.443,153.544 39.549,152.982 40.449 M248.348 42.290 C 249.305 43.133,250.485 44.135,250.970 44.517 L 251.851 45.211 251.431 44.427 C 251.200 43.996,250.807 43.643,250.558 43.643 C 250.308 43.643,249.488 42.994,248.736 42.200 C 247.984 41.407,247.198 40.757,246.988 40.757 C 246.779 40.757,247.391 41.447,248.348 42.290 M147.355 45.061 C 146.987 45.657,147.754 45.800,148.459 45.266 C 149.121 44.765,149.117 44.748,148.353 44.736 C 147.918 44.730,147.469 44.876,147.355 45.061 M252.480 45.920 C 252.480 45.981,252.965 46.391,253.558 46.829 L 254.635 47.626 254.221 46.716 C 253.900 46.012,252.480 45.362,252.480 45.920 M145.356 47.182 C 143.812 48.830,143.496 49.532,144.838 48.332 C 145.615 47.638,146.303 47.045,146.368 47.015 C 146.433 46.986,146.354 46.881,146.192 46.783 C 146.030 46.684,145.654 46.864,145.356 47.182 M142.227 49.651 C 142.358 49.782,142.266 50.147,142.023 50.463 C 141.752 50.815,141.893 50.771,142.387 50.350 C 143.351 49.527,143.376 49.414,142.591 49.414 C 142.260 49.414,142.097 49.521,142.227 49.651 M258.123 50.413 C 258.035 50.558,258.717 51.316,259.639 52.099 C 260.562 52.881,260.951 53.114,260.505 52.617 C 260.059 52.119,259.693 51.558,259.693 51.371 C 259.693 50.914,258.327 50.080,258.123 50.413 M139.279 52.585 L 138.433 53.922 139.640 52.843 C 140.304 52.250,141.002 51.641,141.190 51.491 C 141.379 51.340,141.216 51.224,140.830 51.233 C 140.421 51.241,139.771 51.808,139.279 52.585 M261.858 53.679 C 261.858 53.843,262.289 54.371,262.816 54.851 L 263.775 55.726 262.929 54.554 C 262.049 53.334,261.858 53.178,261.858 53.679 M137.050 54.117 C 136.758 54.301,136.666 54.455,136.846 54.458 C 137.025 54.461,136.869 54.829,136.499 55.275 C 136.064 55.800,136.197 55.740,136.875 55.106 C 137.929 54.120,138.040 53.491,137.050 54.117 M264.022 55.462 C 264.022 55.629,264.627 56.324,265.367 57.008 C 266.106 57.691,266.431 57.913,266.088 57.501 C 265.745 57.089,265.464 56.567,265.464 56.341 C 265.464 56.116,265.140 55.758,264.743 55.546 C 264.346 55.333,264.022 55.296,264.022 55.462 M134.690 56.079 C 134.307 56.368,134.141 56.610,134.321 56.616 C 134.953 56.638,133.333 58.070,132.676 58.070 C 132.310 58.070,132.011 58.260,132.011 58.493 C 132.011 58.725,131.808 59.179,131.560 59.502 C 131.312 59.825,131.467 59.716,131.903 59.260 C 132.340 58.804,132.836 58.431,133.005 58.431 C 133.437 58.431,135.788 55.957,135.567 55.735 C 135.467 55.635,135.072 55.790,134.690 56.079 M266.936 57.913 C 266.920 58.124,267.432 58.773,268.074 59.355 C 268.715 59.938,268.959 60.077,268.615 59.665 C 268.271 59.253,267.989 58.716,267.989 58.472 C 267.989 58.227,267.841 58.120,267.659 58.232 C 267.478 58.344,267.247 58.232,267.147 57.982 C 267.046 57.733,266.951 57.702,266.936 57.913 M129.824 60.336 C 129.514 60.578,129.151 61.067,129.018 61.424 C 128.884 61.780,128.285 62.243,127.687 62.451 C 127.090 62.659,126.601 63.004,126.601 63.217 C 126.601 63.430,126.317 63.934,125.969 64.338 C 125.622 64.742,126.366 64.191,127.623 63.114 C 128.879 62.037,130.062 60.867,130.251 60.515 C 130.651 59.767,130.588 59.740,129.824 60.336 M269.495 60.242 C 269.582 60.505,270.862 61.786,272.338 63.089 C 273.815 64.392,274.763 65.135,274.446 64.740 C 274.129 64.345,273.774 63.750,273.657 63.418 C 273.539 63.087,273.073 62.762,272.619 62.697 C 272.165 62.632,271.607 62.202,271.379 61.742 C 270.903 60.785,269.232 59.454,269.495 60.242 M124.109 65.064 C 123.844 65.383,123.753 65.645,123.907 65.645 C 124.061 65.645,123.885 66.010,123.515 66.456 C 123.041 67.028,123.143 66.986,123.863 66.315 C 124.424 65.791,124.817 65.164,124.737 64.923 C 124.633 64.611,124.450 64.652,124.109 65.064 M275.203 65.214 C 275.203 65.376,275.688 65.975,276.281 66.543 L 277.359 67.576 276.920 66.646 C 276.483 65.718,275.203 64.651,275.203 65.214 M121.959 67.058 C 121.699 67.219,121.296 67.731,121.065 68.195 C 120.833 68.660,120.277 69.128,119.829 69.236 C 119.381 69.344,118.775 69.894,118.483 70.458 L 117.951 71.484 119.300 70.320 C 122.106 67.900,123.637 66.021,121.959 67.058 M278.158 67.935 C 278.494 68.190,279.112 68.794,279.532 69.276 L 280.295 70.153 279.651 69.071 C 278.953 67.899,278.472 67.456,277.908 67.465 C 277.710 67.468,277.822 67.680,278.158 67.935 M280.613 69.896 C 280.613 70.442,281.968 71.489,282.196 71.119 C 282.399 70.792,282.046 70.389,281.064 69.827 C 280.816 69.686,280.613 69.716,280.613 69.896 M116.347 71.982 C 115.489 72.841,115.668 73.064,116.592 72.287 C 117.038 71.911,117.471 71.561,117.553 71.510 C 117.636 71.458,117.526 71.416,117.309 71.416 C 117.091 71.416,116.659 71.671,116.347 71.982 M283.499 72.472 C 283.499 72.671,283.823 73.007,284.220 73.219 C 284.684 73.467,284.941 73.476,284.941 73.244 C 284.941 73.046,284.617 72.710,284.220 72.498 C 283.756 72.249,283.499 72.240,283.499 72.472 M113.987 73.926 C 113.695 74.111,113.545 74.350,113.653 74.458 C 113.761 74.566,114.162 74.418,114.544 74.129 C 115.304 73.553,114.842 73.385,113.987 73.926 M286.538 75.211 C 287.279 75.771,287.694 75.682,287.301 75.047 C 287.170 74.835,286.788 74.667,286.453 74.673 C 285.918 74.683,285.928 74.749,286.538 75.211 M111.296 76.077 C 110.608 76.838,110.866 77.072,111.766 76.501 C 112.038 76.329,112.197 75.994,112.118 75.758 C 112.025 75.480,111.734 75.593,111.296 76.077 M288.920 77.108 C 288.926 77.250,289.349 77.671,289.858 78.042 C 290.774 78.710,290.780 78.709,290.398 77.995 C 290.015 77.279,288.898 76.609,288.920 77.108 M291.434 79.490 C 291.434 79.566,291.839 79.894,292.335 80.219 C 293.359 80.890,293.508 80.756,292.670 79.918 C 292.153 79.400,291.434 79.151,291.434 79.490 M105.674 80.807 C 105.234 81.628,105.617 81.724,106.564 81.032 C 107.157 80.598,107.165 80.526,106.639 80.324 C 106.265 80.181,105.915 80.356,105.674 80.807 M294.374 81.515 C 294.372 81.812,294.968 82.538,295.698 83.128 C 296.427 83.718,296.765 83.880,296.448 83.489 C 296.131 83.098,295.767 82.483,295.639 82.123 C 295.511 81.763,295.257 81.562,295.074 81.675 C 294.891 81.788,294.659 81.676,294.559 81.427 C 294.435 81.120,294.375 81.149,294.374 81.515 M102.756 83.769 C 102.332 84.576,102.334 84.577,103.104 83.894 C 103.963 83.130,104.042 82.958,103.529 82.958 C 103.338 82.958,102.990 83.323,102.756 83.769 M100.157 85.876 C 99.968 86.600,99.988 86.605,100.656 86.001 C 101.485 85.251,101.514 85.122,100.854 85.122 C 100.579 85.122,100.266 85.461,100.157 85.876 M299.580 86.154 C 299.479 86.317,299.860 86.792,300.427 87.211 C 301.330 87.879,301.436 87.895,301.291 87.341 C 301.096 86.596,299.844 85.727,299.580 86.154 M97.548 88.278 L 96.544 89.630 97.776 88.551 C 98.454 87.957,99.162 87.349,99.351 87.198 C 99.543 87.045,99.443 86.925,99.123 86.925 C 98.809 86.925,98.101 87.534,97.548 88.278 M302.976 89.202 C 302.976 89.264,303.487 89.792,304.112 90.374 L 305.249 91.434 304.405 90.261 C 303.702 89.284,302.976 88.746,302.976 89.202 M94.919 90.529 C 94.481 91.123,94.004 91.590,93.860 91.568 C 93.091 91.452,92.688 91.710,92.241 92.606 C 91.969 93.151,91.542 93.553,91.293 93.499 C 91.043 93.444,90.944 93.569,91.072 93.777 C 91.312 94.165,95.942 90.352,95.942 89.767 C 95.942 89.254,95.763 89.388,94.919 90.529 M305.500 91.165 C 305.500 91.532,307.767 93.778,308.138 93.778 C 308.280 93.778,308.840 94.234,309.383 94.790 C 309.926 95.347,310.142 95.509,309.863 95.151 C 309.584 94.793,309.474 94.500,309.618 94.500 C 310.126 94.500,308.724 93.350,308.108 93.262 C 307.765 93.213,307.293 92.795,307.060 92.332 C 306.620 91.462,305.500 90.623,305.500 91.165 M89.695 94.959 L 89.039 96.123 89.828 95.349 C 90.262 94.923,90.557 94.399,90.484 94.185 C 90.411 93.970,90.056 94.318,89.695 94.959 M87.985 96.044 C 87.675 96.286,87.312 96.775,87.178 97.132 C 87.044 97.488,86.446 97.950,85.848 98.159 C 85.250 98.367,84.761 98.712,84.761 98.925 C 84.761 99.138,84.477 99.646,84.130 100.053 C 83.783 100.461,84.675 99.767,86.114 98.512 C 87.552 97.256,88.729 96.083,88.729 95.905 C 88.729 95.497,88.673 95.507,87.985 96.044 M310.911 96.059 C 310.911 96.152,312.087 97.256,313.526 98.512 C 314.964 99.767,315.881 100.474,315.564 100.082 C 315.247 99.690,314.887 99.085,314.764 98.738 C 314.641 98.390,314.236 98.106,313.863 98.106 C 313.181 98.106,311.719 96.787,311.922 96.355 C 311.982 96.227,311.779 96.070,311.471 96.006 C 311.163 95.942,310.911 95.966,310.911 96.059 M82.056 100.992 C 81.933 101.190,81.949 101.353,82.091 101.353 C 82.232 101.353,82.040 101.718,81.664 102.164 C 81.047 102.895,81.077 102.889,81.968 102.101 C 82.512 101.620,82.958 101.093,82.958 100.929 C 82.958 100.512,82.325 100.557,82.056 100.992 M316.682 100.929 C 316.682 101.093,317.127 101.620,317.671 102.101 C 318.389 102.736,318.488 102.770,318.032 102.226 C 317.686 101.814,317.403 101.286,317.403 101.054 C 317.403 100.821,317.241 100.631,317.042 100.631 C 316.844 100.631,316.682 100.765,316.682 100.929 M80.139 102.702 C 79.878 102.795,79.515 103.264,79.333 103.744 C 79.150 104.224,78.714 104.706,78.364 104.814 C 77.341 105.131,76.631 105.565,76.826 105.755 C 76.925 105.852,76.783 106.240,76.510 106.617 C 76.238 106.995,76.433 106.858,76.944 106.312 C 77.455 105.766,78.008 105.320,78.172 105.320 C 78.527 105.320,80.942 102.815,80.748 102.648 C 80.674 102.585,80.400 102.609,80.139 102.702 M318.846 102.739 C 318.846 102.894,319.338 103.493,319.939 104.069 L 321.033 105.116 320.472 103.991 C 319.951 102.947,318.846 102.096,318.846 102.739 M321.399 104.802 C 321.383 105.013,321.871 105.662,322.483 106.245 L 323.596 107.304 322.944 106.160 C 322.585 105.531,322.180 105.086,322.042 105.170 C 321.905 105.255,321.711 105.121,321.610 104.871 C 321.510 104.622,321.415 104.591,321.399 104.802 M74.991 107.243 C 74.676 107.475,74.205 108.070,73.943 108.566 C 73.559 109.295,73.688 109.234,74.617 108.246 C 75.808 106.979,75.982 106.513,74.991 107.243 M323.895 106.897 C 323.895 106.980,324.367 107.553,324.944 108.170 C 325.739 109.021,325.949 109.122,325.808 108.586 C 325.653 107.992,323.895 106.440,323.895 106.897 M327.552 110.550 C 328.207 111.244,328.779 111.812,328.823 111.812 C 329.063 111.812,327.835 109.853,327.436 109.600 C 326.377 108.928,326.430 109.360,327.552 110.550 M69.492 111.918 C 69.128 112.290,68.885 112.648,68.952 112.715 C 69.177 112.940,70.410 111.860,70.281 111.550 C 70.211 111.380,69.856 111.546,69.492 111.918 M329.306 111.594 C 329.306 111.870,329.572 112.198,329.898 112.323 C 330.721 112.639,330.741 112.461,329.967 111.722 C 329.463 111.242,329.306 111.211,329.306 111.594 M331.861 114.071 C 331.943 114.122,332.376 114.472,332.822 114.848 C 333.269 115.224,333.634 115.436,333.634 115.321 C 333.634 114.957,332.519 113.977,332.105 113.977 C 331.888 113.977,331.778 114.019,331.861 114.071 M64.082 116.020 C 63.478 116.625,63.843 117.247,64.573 116.857 C 64.975 116.641,65.209 116.311,65.093 116.123 C 64.845 115.722,64.422 115.680,64.082 116.020 M334.547 116.123 C 334.430 116.311,334.654 116.636,335.043 116.844 C 336.066 117.391,336.234 117.315,335.798 116.501 C 335.382 115.724,334.886 115.574,334.547 116.123 M59.152 120.936 C 58.656 121.175,58.208 121.580,58.156 121.836 C 58.100 122.109,58.508 121.970,59.148 121.497 C 60.649 120.388,60.650 120.214,59.152 120.936 M339.766 120.997 C 339.766 121.089,340.090 121.339,340.487 121.551 C 341.063 121.859,341.208 121.825,341.208 121.383 C 341.208 121.070,340.895 120.830,340.487 120.830 C 340.090 120.830,339.766 120.905,339.766 120.997 M56.530 122.681 C 56.187 122.873,55.906 123.212,55.906 123.434 C 55.906 123.657,55.623 124.176,55.278 124.588 C 54.808 125.149,54.896 125.120,55.627 124.474 C 56.165 123.999,56.521 123.473,56.417 123.306 C 56.314 123.139,56.465 123.092,56.753 123.203 C 57.041 123.313,57.376 123.241,57.499 123.043 C 57.832 122.504,57.240 122.283,56.530 122.681 M342.327 122.633 C 342.336 122.931,342.939 123.657,343.669 124.246 C 344.399 124.836,344.711 124.986,344.364 124.579 C 344.017 124.172,343.733 123.639,343.733 123.395 C 343.733 123.151,343.581 123.045,343.395 123.160 C 343.208 123.275,342.889 123.082,342.684 122.731 C 342.401 122.244,342.316 122.220,342.327 122.633 M53.206 126.138 L 52.573 127.142 53.408 126.340 C 53.867 125.899,54.152 125.448,54.041 125.337 C 53.931 125.226,53.555 125.587,53.206 126.138 M346.078 126.240 C 346.802 127.041,347.300 127.241,346.666 126.477 C 346.445 126.211,346.371 125.886,346.501 125.756 C 346.632 125.625,346.443 125.518,346.082 125.518 C 345.448 125.518,345.447 125.544,346.078 126.240 M51.119 127.370 C 50.777 127.561,50.496 127.900,50.496 128.123 C 50.496 128.345,50.215 128.865,49.872 129.277 C 49.530 129.690,49.893 129.459,50.680 128.765 C 51.467 128.070,52.164 127.478,52.229 127.448 C 52.294 127.418,52.211 127.310,52.045 127.207 C 51.879 127.105,51.462 127.178,51.119 127.370 M347.601 127.231 C 347.522 127.380,348.121 128.068,348.932 128.759 C 349.742 129.451,350.122 129.681,349.775 129.272 C 349.427 128.863,349.143 128.343,349.143 128.118 C 349.143 127.620,347.803 126.849,347.601 127.231 M47.856 130.666 L 47.200 131.830 47.989 131.057 C 48.423 130.631,48.718 130.107,48.645 129.892 C 48.572 129.678,48.217 130.026,47.856 130.666 M351.307 130.748 C 351.773 131.244,352.215 131.650,352.289 131.650 C 352.589 131.650,351.102 129.869,350.794 129.858 C 350.610 129.852,350.842 130.252,351.307 130.748 M46.145 131.752 C 45.836 131.993,45.472 132.483,45.339 132.839 C 45.205 133.196,44.606 133.658,44.008 133.867 C 43.411 134.075,42.922 134.420,42.922 134.633 C 42.922 134.846,42.638 135.353,42.290 135.761 C 41.943 136.169,42.836 135.475,44.274 134.220 C 45.712 132.964,46.889 131.791,46.889 131.613 C 46.889 131.205,46.834 131.215,46.145 131.752 M353.059 131.914 C 353.646 133.011,357.732 136.380,357.983 135.973 C 358.110 135.768,358.010 135.644,357.761 135.699 C 357.511 135.753,357.084 135.352,356.812 134.806 C 356.540 134.261,356.164 133.814,355.977 133.814 C 355.246 133.814,355.074 133.744,354.472 133.199 C 354.130 132.889,353.916 132.528,353.998 132.395 C 354.079 132.263,353.823 131.953,353.427 131.706 C 352.784 131.304,352.745 131.326,353.059 131.914 M40.386 136.714 C 40.094 136.898,40.003 137.052,40.182 137.055 C 40.362 137.058,40.206 137.426,39.836 137.872 C 39.400 138.397,39.533 138.337,40.212 137.703 C 41.265 136.717,41.376 136.088,40.386 136.714 M358.855 137.202 C 359.736 138.150,360.373 138.529,359.678 137.692 C 359.472 137.444,359.299 137.078,359.292 136.880 C 359.286 136.682,358.988 136.461,358.630 136.390 C 358.088 136.283,358.125 136.417,358.855 137.202 M361.457 139.405 C 362.112 140.099,362.782 140.667,362.946 140.667 C 363.110 140.667,363.643 141.114,364.131 141.659 L 365.017 142.651 364.480 141.569 C 364.185 140.974,363.591 140.402,363.160 140.298 C 362.729 140.195,362.199 139.789,361.982 139.397 C 361.549 138.614,361.030 138.157,360.566 138.148 C 360.401 138.145,360.802 138.711,361.457 139.405 M37.625 139.134 C 37.502 139.482,37.158 140.050,36.860 140.397 C 35.888 141.528,36.600 141.061,37.822 139.766 C 38.680 138.856,38.850 138.503,38.431 138.503 C 38.111 138.503,37.749 138.787,37.625 139.134 M34.986 141.208 C 34.740 141.506,34.664 141.749,34.818 141.749 C 34.972 141.749,34.789 142.115,34.411 142.561 L 33.724 143.372 34.569 142.655 C 35.557 141.817,36.248 140.667,35.765 140.667 C 35.584 140.667,35.233 140.911,34.986 141.208 M365.374 142.265 C 365.374 142.354,365.865 142.963,366.465 143.620 C 367.461 144.711,367.516 144.732,367.104 143.858 C 366.716 143.036,365.374 141.800,365.374 142.265 M32.967 143.107 C 32.571 143.372,31.602 144.995,31.840 144.995 C 31.909 144.995,32.325 144.509,32.765 143.913 C 33.599 142.786,33.629 142.665,32.967 143.107 M368.859 145.717 C 369.421 146.312,369.909 146.799,369.944 146.799 C 369.979 146.799,369.765 146.312,369.468 145.717 C 369.171 145.122,368.683 144.635,368.383 144.635 C 368.002 144.635,368.146 144.961,368.859 145.717 M370.424 146.760 C 370.424 147.160,371.533 147.613,371.818 147.329 C 371.932 147.214,371.787 146.969,371.495 146.785 C 370.821 146.358,370.424 146.349,370.424 146.760 M27.618 147.726 C 27.236 148.006,26.993 148.304,27.078 148.389 C 27.163 148.474,27.545 148.315,27.927 148.036 C 28.309 147.756,28.552 147.458,28.467 147.373 C 28.382 147.288,28.000 147.447,27.618 147.726 M24.655 150.129 C 24.307 150.692,24.733 150.778,25.412 150.282 C 25.997 149.854,26.002 149.805,25.460 149.805 C 25.128 149.805,24.765 149.951,24.655 150.129 M375.113 150.905 C 375.113 150.982,375.518 151.310,376.014 151.635 C 377.038 152.306,377.187 152.171,376.349 151.333 C 375.832 150.816,375.113 150.567,375.113 150.905 M22.056 152.066 C 21.788 152.369,21.652 152.701,21.754 152.803 C 22.066 153.115,23.480 152.197,23.253 151.830 C 22.960 151.356,22.626 151.422,22.056 152.066 M377.853 152.873 C 377.738 153.060,378.048 153.477,378.542 153.801 C 379.620 154.507,379.672 154.390,378.752 153.329 C 378.373 152.892,377.969 152.687,377.853 152.873 M17.260 156.418 C 16.933 156.505,16.585 156.884,16.487 157.261 C 16.319 157.901,16.374 157.896,17.351 157.173 C 18.734 156.151,18.719 156.031,17.260 156.418 M382.538 156.848 C 382.437 157.011,382.818 157.487,383.384 157.905 C 384.288 158.573,384.394 158.589,384.249 158.035 C 384.054 157.290,382.801 156.421,382.538 156.848 M14.690 158.388 C 14.347 158.580,14.067 158.919,14.067 159.142 C 14.067 159.364,13.785 159.884,13.441 160.296 C 13.097 160.709,13.381 160.560,14.072 159.967 C 14.764 159.373,15.465 158.783,15.631 158.655 C 16.154 158.252,15.344 158.023,14.690 158.388 M11.531 161.240 C 11.240 161.425,11.143 161.578,11.316 161.581 C 11.489 161.585,11.417 161.871,11.156 162.218 C 10.896 162.565,11.070 162.489,11.543 162.048 C 12.447 161.206,12.439 160.666,11.531 161.240 M388.097 161.544 C 388.097 161.707,389.112 162.709,390.352 163.771 C 391.592 164.834,392.322 165.373,391.975 164.969 C 391.628 164.566,391.344 164.075,391.344 163.878 C 391.344 163.681,390.816 163.285,390.171 162.997 C 389.527 162.708,389.035 162.289,389.078 162.064 C 389.121 161.839,388.918 161.564,388.627 161.452 C 388.336 161.340,388.097 161.382,388.097 161.544 M9.422 163.112 C 7.890 165.065,5.952 166.997,5.523 166.997 C 5.239 166.997,5.099 167.146,5.211 167.327 C 5.323 167.509,5.219 167.722,4.979 167.802 C 4.740 167.882,4.698 168.018,4.887 168.103 C 5.338 168.309,10.501 163.098,10.095 162.847 C 9.923 162.740,9.620 162.860,9.422 163.112 M394.103 167.087 C 394.706 167.732,395.650 168.868,396.200 169.612 C 397.185 170.945,397.836 171.331,397.836 170.583 C 397.836 170.373,397.691 170.290,397.515 170.399 C 397.165 170.616,395.932 168.952,395.796 168.079 C 395.696 167.446,394.014 165.915,393.417 165.915 C 393.191 165.915,393.499 166.443,394.103 167.087 M3.925 169.071 C 3.901 169.220,3.901 169.463,3.925 169.612 C 3.948 169.761,3.707 169.883,3.388 169.883 C 3.021 169.883,2.884 170.081,3.016 170.424 C 3.130 170.721,3.057 170.965,2.853 170.965 C 2.649 170.965,2.574 171.114,2.687 171.296 C 2.800 171.479,2.636 171.885,2.322 172.198 C 2.008 172.512,1.885 172.771,2.048 172.774 C 2.211 172.777,2.101 172.951,1.803 173.162 C 1.479 173.391,1.448 173.496,1.725 173.423 C 2.301 173.272,4.816 168.801,4.325 168.801 C 4.128 168.801,3.948 168.922,3.925 169.071 M2.746 190.633 C 3.075 191.136,3.414 191.476,3.500 191.390 C 3.714 191.176,2.781 189.720,2.430 189.720 C 2.274 189.720,2.417 190.131,2.746 190.633 M4.181 192.786 C 4.841 193.793,5.018 193.902,4.917 193.237 C 4.814 192.555,4.328 191.885,3.938 191.885 C 3.747 191.885,3.856 192.290,4.181 192.786 M5.425 193.733 C 5.408 193.994,7.459 196.188,8.386 196.899 C 8.824 197.235,9.017 197.256,9.017 196.967 C 9.017 196.738,8.733 196.446,8.386 196.318 C 8.039 196.190,7.234 195.505,6.598 194.797 C 5.961 194.088,5.434 193.609,5.425 193.733 M394.267 194.734 C 393.651 195.310,393.147 195.891,393.147 196.026 C 393.147 196.161,393.715 195.736,394.409 195.081 C 395.104 194.426,395.672 193.845,395.672 193.789 C 395.672 193.521,395.294 193.775,394.267 194.734 M388.278 198.931 C 387.683 199.203,387.449 199.434,387.758 199.443 C 388.067 199.452,388.635 199.221,389.020 198.929 C 389.875 198.283,389.693 198.283,388.278 198.931 M15.509 200.180 C 16.005 200.339,16.817 200.466,17.313 200.462 C 18.123 200.456,18.104 200.428,17.133 200.180 C 15.607 199.792,14.297 199.792,15.509 200.180 M60.411 271.776 C 60.411 311.055,60.453 327.070,60.505 307.365 C 60.556 287.661,60.556 255.524,60.505 235.950 C 60.453 216.376,60.411 232.498,60.411 271.776 M160.144 260.775 C 160.144 261.014,173.730 261.136,200.180 261.136 C 226.631 261.136,240.216 261.014,240.216 260.775 C 240.216 260.537,226.631 260.415,200.180 260.415 C 173.730 260.415,160.144 260.537,160.144 260.775 M240.307 342.831 C 240.311 343.625,240.385 343.907,240.472 343.458 C 240.558 343.010,240.555 342.360,240.464 342.016 C 240.374 341.671,240.303 342.038,240.307 342.831 M339.849 342.651 C 339.849 343.345,339.923 343.629,340.014 343.282 C 340.105 342.935,340.105 342.367,340.014 342.020 C 339.923 341.673,339.849 341.957,339.849 342.651 M159.867 343.733 C 159.867 344.427,159.941 344.711,160.032 344.364 C 160.123 344.017,160.123 343.449,160.032 343.102 C 159.941 342.755,159.867 343.039,159.867 343.733 M338.021 349.339 C 337.416 350.666,337.532 350.948,338.185 349.743 C 338.490 349.180,338.672 348.651,338.590 348.569 C 338.507 348.486,338.251 348.833,338.021 349.339 M242.020 349.280 C 242.020 349.553,242.290 349.999,242.620 350.271 C 243.161 350.717,243.180 350.691,242.813 350.002 C 242.589 349.582,242.508 349.136,242.634 349.010 C 242.759 348.885,242.672 348.783,242.441 348.783 C 242.209 348.783,242.020 349.006,242.020 349.280 M157.513 350.285 C 156.977 351.226,156.965 351.340,157.442 350.944 C 158.155 350.353,158.829 349.143,158.444 349.146 C 158.288 349.147,157.869 349.660,157.513 350.285 M62.410 349.706 C 62.404 349.916,62.637 350.403,62.928 350.788 C 63.219 351.173,63.463 351.316,63.469 351.106 C 63.475 350.896,63.242 350.409,62.951 350.024 C 62.660 349.639,62.416 349.496,62.410 349.706 M63.841 352.209 C 64.088 352.507,64.453 352.750,64.651 352.750 C 64.852 352.750,64.813 352.511,64.563 352.209 C 64.316 351.912,63.951 351.668,63.753 351.668 C 63.552 351.668,63.591 351.907,63.841 352.209 M66.184 354.654 C 66.736 355.403,67.279 355.925,67.390 355.814 C 67.501 355.703,67.049 355.090,66.386 354.452 L 65.181 353.291 66.184 354.654 M334.095 354.644 C 333.480 355.438,333.198 356.204,333.787 355.477 C 334.100 355.092,334.558 354.648,334.806 354.490 C 335.101 354.303,335.116 354.202,334.850 354.198 C 334.627 354.195,334.287 354.396,334.095 354.644 M153.470 355.277 C 153.109 355.675,152.900 356.086,153.004 356.190 C 153.108 356.294,153.463 355.969,153.792 355.467 C 154.511 354.370,154.367 354.285,153.470 355.277 M246.709 355.187 C 246.709 355.385,246.952 355.749,247.250 355.996 C 247.552 356.247,247.791 356.286,247.791 356.085 C 247.791 355.886,247.547 355.522,247.250 355.275 C 246.948 355.025,246.709 354.985,246.709 355.187 M248.512 356.699 C 248.512 357.118,250.256 358.340,250.503 358.094 C 250.593 358.003,250.182 357.570,249.590 357.132 C 248.997 356.694,248.512 356.499,248.512 356.699 M70.175 357.969 C 70.560 358.260,71.037 358.498,71.235 358.498 C 71.434 358.498,71.281 358.260,70.896 357.969 C 70.511 357.677,70.033 357.439,69.835 357.439 C 69.637 357.439,69.789 357.677,70.175 357.969 M253.450 359.419 C 254.083 359.710,255.301 360.033,256.155 360.136 L 257.710 360.324 255.906 359.846 C 254.914 359.583,253.697 359.260,253.201 359.129 C 252.577 358.963,252.654 359.053,253.450 359.419 M94.978 360.595 C 103.671 360.649,117.792 360.649,126.357 360.595 C 134.922 360.541,127.809 360.497,110.550 360.497 C 93.291 360.497,86.284 360.541,94.978 360.595 M274.572 360.595 C 283.251 360.649,297.453 360.649,306.132 360.595 C 314.811 360.541,307.710 360.497,290.352 360.497 C 272.994 360.497,265.893 360.541,274.572 360.595 " stroke="none" fill="#e4e4e4" fill-rule="evenodd"></path><path id="path3" d="M200.721 1.309 C 200.920 1.483,201.731 2.193,202.524 2.886 L 203.966 4.148 202.885 2.945 C 202.290 2.283,201.479 1.573,201.082 1.368 C 200.685 1.162,200.523 1.136,200.721 1.309 M204.509 4.441 C 204.509 4.503,205.036 5.031,205.681 5.613 L 206.853 6.673 205.794 5.500 C 204.806 4.408,204.509 4.162,204.509 4.441 M194.206 6.222 L 193.147 7.394 194.319 6.335 C 194.964 5.752,195.491 5.225,195.491 5.162 C 195.491 4.884,195.194 5.129,194.206 6.222 M208.115 7.755 C 208.788 8.449,209.420 9.017,209.519 9.017 C 209.619 9.017,209.149 8.449,208.476 7.755 C 207.803 7.060,207.171 6.492,207.072 6.492 C 206.973 6.492,207.442 7.060,208.115 7.755 M191.682 8.386 L 190.622 9.558 191.794 8.499 C 192.439 7.916,192.967 7.389,192.967 7.327 C 192.967 7.048,192.669 7.293,191.682 8.386 M211.001 10.280 C 211.674 10.974,212.306 11.542,212.405 11.542 C 212.504 11.542,212.035 10.974,211.362 10.280 C 210.689 9.585,210.057 9.017,209.958 9.017 C 209.858 9.017,210.328 9.585,211.001 10.280 M187.376 11.181 C 187.253 11.380,187.272 11.542,187.418 11.542 C 187.563 11.542,187.300 11.948,186.834 12.445 C 186.367 12.941,185.807 13.307,185.588 13.256 C 185.369 13.206,185.171 13.302,185.146 13.469 C 185.122 13.637,184.640 14.277,184.075 14.892 C 183.510 15.507,184.116 15.090,185.422 13.965 C 186.728 12.840,187.797 11.673,187.797 11.370 C 187.797 10.730,187.686 10.680,187.376 11.181 M215.004 13.796 C 215.090 13.846,215.888 14.536,216.777 15.329 L 218.395 16.772 216.969 15.239 C 216.185 14.396,215.387 13.706,215.196 13.706 C 215.005 13.706,214.918 13.747,215.004 13.796 M181.582 17.042 L 180.523 18.215 181.695 17.155 C 182.340 16.573,182.867 16.045,182.867 15.983 C 182.867 15.704,182.570 15.950,181.582 17.042 M176.861 21.142 L 175.113 22.806 176.736 21.452 C 178.913 19.634,179.080 19.477,178.827 19.477 C 178.707 19.477,177.822 20.226,176.861 21.142 M236.070 30.990 C 236.291 31.372,236.214 31.443,235.767 31.272 C 234.873 30.929,235.040 31.214,236.159 31.942 C 237.118 32.566,237.133 32.566,236.610 31.928 C 236.312 31.566,236.123 31.199,236.189 31.114 C 236.255 31.029,236.188 30.851,236.041 30.718 C 235.893 30.586,235.906 30.708,236.070 30.990 M157.777 37.241 L 156.718 38.413 157.890 37.354 C 158.983 36.366,159.228 36.069,158.949 36.069 C 158.887 36.069,158.360 36.596,157.777 37.241 M241.875 36.372 C 241.772 36.539,242.290 37.229,243.026 37.905 L 244.364 39.134 243.186 37.848 C 242.538 37.141,242.118 36.451,242.254 36.315 C 242.390 36.180,242.402 36.069,242.282 36.069 C 242.161 36.069,241.978 36.205,241.875 36.372 M152.367 41.930 L 151.307 43.102 152.480 42.043 C 153.572 41.055,153.818 40.757,153.539 40.757 C 153.477 40.757,152.950 41.285,152.367 41.930 M247.550 41.289 C 247.550 41.581,248.051 42.271,248.662 42.821 L 249.775 43.823 248.748 42.685 C 248.183 42.059,247.750 41.436,247.786 41.302 C 247.822 41.168,247.783 40.990,247.701 40.908 C 247.618 40.825,247.550 40.996,247.550 41.289 M149.842 44.094 L 148.783 45.266 149.955 44.207 C 151.048 43.219,151.293 42.922,151.014 42.922 C 150.952 42.922,150.425 43.449,149.842 44.094 M250.316 44.116 C 250.316 44.179,250.843 44.706,251.488 45.289 L 252.660 46.348 251.601 45.176 C 250.613 44.083,250.316 43.838,250.316 44.116 M145.451 47.077 C 145.603 47.244,145.289 47.838,144.753 48.397 C 144.217 48.956,143.860 49.414,143.959 49.414 C 144.575 49.414,146.092 47.303,145.656 47.051 C 145.392 46.898,145.300 46.910,145.451 47.077 M255.584 48.269 C 255.479 48.439,255.995 49.131,256.731 49.808 C 257.933 50.912,257.967 50.924,257.073 49.930 C 256.525 49.321,256.171 48.729,256.286 48.613 C 256.401 48.498,256.333 48.304,256.135 48.182 C 255.938 48.059,255.690 48.099,255.584 48.269 M143.012 49.053 C 142.889 49.252,142.910 49.414,143.058 49.414 C 143.206 49.414,142.850 49.941,142.268 50.586 L 141.208 51.758 142.320 50.757 C 142.932 50.206,143.433 49.516,143.433 49.224 C 143.433 48.601,143.319 48.555,143.012 49.053 M135.021 56.850 L 133.273 58.514 134.896 57.159 C 137.074 55.342,137.240 55.185,136.987 55.185 C 136.867 55.185,135.983 55.934,135.021 56.850 M263.120 55.412 C 263.318 55.586,264.130 56.296,264.923 56.989 L 266.365 58.251 265.283 57.047 C 264.689 56.386,263.877 55.676,263.481 55.470 C 263.084 55.265,262.922 55.239,263.120 55.412 M110.527 77.638 L 109.468 78.810 110.640 77.750 C 111.733 76.763,111.978 76.465,111.700 76.465 C 111.638 76.465,111.110 76.993,110.527 77.638 M289.270 77.660 C 289.270 77.722,289.797 78.250,290.442 78.832 L 291.614 79.892 290.555 78.720 C 289.567 77.627,289.270 77.382,289.270 77.660 M108.003 79.802 L 106.943 80.974 108.115 79.914 C 109.208 78.927,109.453 78.629,109.175 78.629 C 109.113 78.629,108.585 79.157,108.003 79.802 M102.953 84.130 L 101.894 85.302 103.066 84.243 C 104.159 83.255,104.404 82.958,104.125 82.958 C 104.063 82.958,103.536 83.485,102.953 84.130 M297.060 83.983 C 296.956 84.149,297.474 84.839,298.211 85.515 L 299.549 86.745 298.371 85.459 C 297.722 84.751,297.303 84.062,297.439 83.926 C 297.575 83.790,297.587 83.679,297.466 83.679 C 297.346 83.679,297.163 83.816,297.060 83.983 M101.087 84.949 C 101.239 85.116,100.924 85.710,100.388 86.269 C 99.853 86.828,99.495 87.286,99.595 87.286 C 100.211 87.286,101.728 85.175,101.292 84.923 C 101.028 84.770,100.936 84.782,101.087 84.949 M302.486 88.646 C 302.291 88.960,303.548 90.256,306.244 92.519 C 306.951 93.112,306.545 92.672,305.342 91.541 C 304.140 90.409,303.156 89.327,303.156 89.136 C 303.156 88.604,302.712 88.280,302.486 88.646 M95.202 90.803 L 93.959 92.155 95.311 90.912 C 96.055 90.228,96.664 89.620,96.664 89.560 C 96.664 89.284,96.358 89.544,95.202 90.803 M92.493 93.147 L 91.434 94.319 92.606 93.260 C 93.699 92.272,93.944 91.975,93.665 91.975 C 93.603 91.975,93.076 92.502,92.493 93.147 M310.766 95.885 C 310.663 96.052,311.180 96.742,311.917 97.418 L 313.255 98.647 312.051 97.335 C 311.192 96.398,310.986 95.968,311.330 95.831 C 311.644 95.706,311.662 95.629,311.383 95.610 C 311.147 95.594,310.869 95.718,310.766 95.885 M87.627 97.295 L 86.384 98.647 87.737 97.404 C 88.996 96.248,89.255 95.942,88.980 95.942 C 88.919 95.942,88.311 96.551,87.627 97.295 M69.432 111.812 C 69.309 112.011,69.330 112.173,69.478 112.173 C 69.626 112.173,69.271 112.701,68.688 113.345 L 67.628 114.518 68.741 113.516 C 69.352 112.965,69.853 112.275,69.853 111.983 C 69.853 111.360,69.740 111.315,69.432 111.812 M329.787 111.983 C 329.787 112.275,330.287 112.965,330.899 113.516 L 332.011 114.518 330.984 113.379 C 330.419 112.753,329.986 112.131,330.022 111.996 C 330.058 111.862,330.020 111.685,329.937 111.602 C 329.854 111.519,329.787 111.691,329.787 111.983 M332.406 114.282 C 332.302 114.450,332.739 115.059,333.376 115.635 L 334.536 116.682 333.539 115.575 C 332.990 114.966,332.652 114.357,332.787 114.222 C 332.922 114.087,332.934 113.977,332.814 113.977 C 332.693 113.977,332.509 114.114,332.406 114.282 M66.163 115.509 L 65.104 116.682 66.276 115.622 C 66.921 115.040,67.448 114.512,67.448 114.450 C 67.448 114.171,67.151 114.417,66.163 115.509 M337.601 119.139 C 337.601 119.201,338.129 119.729,338.774 120.311 L 339.946 121.371 338.887 120.198 C 337.899 119.106,337.601 118.860,337.601 119.139 M342.771 123.199 C 342.771 123.492,343.840 124.653,345.146 125.778 C 346.452 126.903,347.072 127.334,346.523 126.736 C 345.975 126.138,345.650 125.512,345.802 125.345 C 345.954 125.179,345.888 125.150,345.657 125.283 C 345.167 125.563,342.920 123.795,343.197 123.346 C 343.300 123.180,343.246 122.958,343.078 122.854 C 342.909 122.750,342.771 122.905,342.771 123.199 M56.390 123.237 C 56.525 123.372,56.268 123.899,55.819 124.410 L 55.005 125.338 55.985 124.474 C 56.843 123.719,57.029 122.994,56.366 122.994 C 56.245 122.994,56.256 123.103,56.390 123.237 M53.362 126.510 L 52.119 127.863 53.472 126.620 C 54.731 125.463,54.990 125.158,54.715 125.158 C 54.654 125.158,54.046 125.766,53.362 126.510 M50.654 128.855 L 49.594 130.027 50.766 128.968 C 51.411 128.385,51.939 127.858,51.939 127.795 C 51.939 127.517,51.641 127.762,50.654 128.855 M347.701 127.795 C 347.701 127.858,348.228 128.385,348.873 128.968 L 350.045 130.027 348.986 128.855 C 347.998 127.762,347.701 127.517,347.701 127.795 M45.788 133.003 L 44.545 134.355 45.897 133.112 C 47.156 131.955,47.416 131.650,47.140 131.650 C 47.080 131.650,46.471 132.259,45.788 133.003 M353.472 132.913 C 354.145 133.607,354.776 134.175,354.876 134.175 C 354.975 134.175,354.505 133.607,353.832 132.913 C 353.159 132.218,352.528 131.650,352.428 131.650 C 352.329 131.650,352.799 132.218,353.472 132.913 M370.784 147.272 C 370.784 147.335,371.312 147.862,371.957 148.445 L 373.129 149.504 372.070 148.332 C 371.082 147.239,370.784 146.994,370.784 147.272 M14.057 159.975 C 13.553 160.511,12.974 160.800,12.652 160.677 C 12.351 160.561,12.225 160.586,12.371 160.733 C 12.517 160.879,12.106 161.567,11.458 162.263 C 10.810 162.958,11.375 162.584,12.714 161.431 C 14.053 160.278,15.149 159.273,15.149 159.199 C 15.149 158.907,14.881 159.097,14.057 159.975 M385.414 159.388 C 385.303 159.567,386.227 160.557,387.467 161.588 L 389.720 163.462 387.737 161.619 C 386.646 160.605,385.794 159.615,385.843 159.419 C 385.956 158.973,385.683 158.953,385.414 159.388 M7.591 165.718 C 6.522 166.800,5.488 167.587,5.293 167.466 C 5.085 167.337,5.054 167.434,5.218 167.699 C 5.444 168.064,9.739 164.410,9.739 163.853 C 9.739 163.592,9.401 163.885,7.591 165.718 M397.537 172.227 C 398.128 173.318,398.683 174.211,398.771 174.211 C 399.022 174.211,397.167 170.679,396.796 170.450 C 396.613 170.336,396.946 171.137,397.537 172.227 M0.679 178.257 C 0.845 179.259,0.895 179.310,1.009 178.588 C 1.083 178.119,0.994 177.586,0.813 177.404 C 0.613 177.204,0.560 177.541,0.679 178.257 M2.885 190.000 C 2.885 190.219,3.059 190.506,3.271 190.637 C 3.483 190.768,3.583 191.067,3.493 191.301 C 3.403 191.535,3.711 191.906,4.178 192.127 C 5.020 192.524,5.019 192.518,4.061 191.214 C 3.529 190.492,3.048 189.833,2.990 189.751 C 2.933 189.668,2.885 189.780,2.885 190.000 M396.106 191.901 C 395.827 192.347,395.803 192.606,396.041 192.606 C 396.247 192.606,396.512 192.355,396.629 192.049 C 396.954 191.203,396.604 191.104,396.106 191.901 M8.917 196.951 C 9.018 197.338,9.407 197.656,9.781 197.656 C 10.673 197.656,10.638 197.494,9.596 196.812 C 8.782 196.278,8.743 196.286,8.917 196.951 M390.893 197.183 C 390.546 197.274,390.261 197.498,390.261 197.682 C 390.261 197.866,390.049 198.016,389.789 198.016 C 389.530 198.016,389.002 198.259,388.617 198.556 C 387.624 199.323,389.774 198.449,391.010 197.584 C 391.926 196.943,391.918 196.915,390.893 197.183 M29.460 200.811 C 35.050 200.867,44.302 200.867,50.019 200.811 C 55.737 200.756,51.163 200.710,39.856 200.710 C 28.548 200.710,23.870 200.755,29.460 200.811 M340.126 200.812 C 340.126 201.057,355.308 201.053,374.391 200.803 C 378.458 200.750,372.412 200.669,360.956 200.623 C 349.500 200.578,340.126 200.663,340.126 200.812 M160.318 301.353 C 160.318 323.571,160.362 332.607,160.415 321.433 C 160.468 310.259,160.468 292.081,160.415 281.036 C 160.362 269.992,160.318 279.134,160.318 301.353 M240.534 342.369 C 240.700 343.371,240.751 343.422,240.865 342.700 C 240.938 342.230,240.850 341.698,240.668 341.516 C 240.468 341.316,240.415 341.652,240.534 342.369 M242.860 350.201 C 243.138 350.863,243.632 351.554,243.958 351.736 C 244.357 351.960,244.250 351.626,243.624 350.705 C 242.375 348.863,242.268 348.793,242.860 350.201 M63.194 350.491 C 63.419 351.085,63.892 351.752,64.247 351.973 C 64.735 352.278,64.671 352.049,63.986 351.040 C 62.785 349.270,62.715 349.222,63.194 350.491 M156.200 351.820 C 155.851 352.241,155.908 352.298,156.517 352.139 C 156.925 352.032,157.259 351.801,157.259 351.626 C 157.259 351.140,156.676 351.246,156.200 351.820 M246.348 354.373 C 247.021 355.068,247.653 355.636,247.752 355.636 C 247.851 355.636,247.382 355.068,246.709 354.373 C 246.036 353.679,245.404 353.111,245.305 353.111 C 245.206 353.111,245.675 353.679,246.348 354.373 M334.935 353.682 C 334.800 354.033,334.880 354.198,335.144 354.110 C 335.683 353.931,335.980 353.111,335.506 353.111 C 335.312 353.111,335.055 353.368,334.935 353.682 M151.939 356.368 C 151.492 356.548,151.127 356.872,151.127 357.088 C 151.127 357.305,150.976 357.388,150.791 357.274 C 150.607 357.160,150.354 357.232,150.229 357.433 C 150.104 357.635,150.261 357.800,150.576 357.800 C 150.892 357.800,151.243 357.556,151.357 357.259 C 151.472 356.961,151.872 356.718,152.248 356.718 C 152.623 356.718,152.931 356.555,152.931 356.357 C 152.931 356.159,152.890 356.007,152.840 356.019 C 152.791 356.032,152.385 356.189,151.939 356.368 M247.986 356.381 C 248.117 356.593,248.314 356.675,248.425 356.565 C 248.536 356.454,248.885 356.565,249.200 356.811 C 249.708 357.207,249.718 357.186,249.280 356.628 C 248.752 355.955,247.585 355.733,247.986 356.381 M330.890 357.024 C 330.497 357.391,329.938 357.783,329.650 357.897 C 329.267 358.048,329.309 358.111,329.804 358.132 C 330.178 358.148,330.787 357.811,331.157 357.384 C 332.206 356.175,332.041 355.952,330.890 357.024 " stroke="none" fill="#f4f4f4" fill-rule="evenodd"></path><path id="path4" d="" stroke="none" fill="#100f4fc" fill-rule="evenodd"></path></g></svg>