<svg id="svg" version="1.1" xmlns="http://www.w3.org/2000/svg" xmlns:xlink="http://www.w3.org/1999/xlink" width="400" height="310.2880658436214" viewBox="0, 0, 400,310.2880658436214"><g id="svgg"><path id="path0" d="M167.850 58.960 C 167.576 59.120,166.179 59.387,164.746 59.553 C 161.141 59.971,158.473 60.489,158.123 60.838 C 157.960 61.000,157.453 61.133,156.994 61.133 C 156.536 61.133,155.761 61.341,155.272 61.596 C 154.783 61.851,154.137 62.061,153.836 62.062 C 153.535 62.063,153.046 62.196,152.750 62.359 C 152.453 62.521,151.652 62.887,150.970 63.172 C 143.187 66.416,137.296 70.372,131.235 76.422 C 127.266 80.385,126.866 80.878,123.362 86.124 C 116.805 95.940,113.311 108.258,113.737 120.055 C 113.957 126.126,115.194 133.717,116.526 137.161 C 119.134 143.904,119.914 146.437,120.732 150.815 C 122.570 160.660,126.573 171.428,130.652 177.502 C 130.938 177.929,131.954 179.465,132.908 180.915 C 135.807 185.321,142.064 192.537,144.621 194.423 C 145.157 194.819,146.107 195.615,146.732 196.192 C 147.849 197.225,154.141 201.850,155.327 202.511 C 155.661 202.697,156.773 203.313,157.797 203.879 C 158.821 204.445,160.147 205.200,160.745 205.557 C 161.342 205.914,162.389 206.466,163.072 206.784 C 163.755 207.101,164.527 207.468,164.789 207.598 C 165.051 207.728,165.714 207.933,166.263 208.053 C 166.812 208.174,167.261 208.401,167.261 208.558 C 167.261 208.716,167.584 208.844,167.978 208.844 C 168.372 208.844,168.965 209.049,169.297 209.300 C 169.628 209.550,170.205 209.760,170.579 209.765 C 170.953 209.771,171.335 209.899,171.429 210.050 C 171.523 210.201,172.107 210.421,172.727 210.537 C 173.347 210.653,174.082 210.862,174.359 211.001 C 174.637 211.140,175.493 211.421,176.261 211.625 C 177.858 212.051,180.183 212.471,186.811 213.532 C 190.688 214.153,208.196 213.507,209.509 212.696 C 209.675 212.593,210.535 212.393,211.422 212.250 C 213.159 211.969,215.448 211.397,216.447 210.993 C 216.788 210.855,217.486 210.659,217.998 210.557 C 218.510 210.456,219.264 210.118,219.672 209.806 L 220.414 209.240 219.206 209.024 C 212.637 207.846,204.063 202.828,198.059 196.645 C 195.182 193.683,189.604 185.326,189.604 183.978 C 189.604 183.455,188.105 182.157,187.501 182.157 C 183.754 182.157,172.300 175.787,166.857 170.675 C 164.032 168.023,157.331 159.188,157.331 158.117 C 157.331 158.004,156.983 157.151,156.557 156.220 C 156.132 155.290,155.378 153.449,154.883 152.129 C 154.067 149.955,153.784 148.830,152.698 143.421 C 152.265 141.265,152.270 131.782,152.705 129.659 C 153.839 124.126,154.039 123.374,155.296 119.879 C 160.119 106.473,173.600 94.395,187.122 91.366 C 198.092 88.907,207.096 89.270,214.895 92.483 C 221.153 95.061,224.069 96.673,227.705 99.564 C 231.432 102.529,231.505 102.361,229.097 96.354 C 225.291 86.860,218.927 78.151,211.405 72.145 C 208.588 69.895,208.751 69.554,214.281 66.106 C 215.623 65.270,215.461 64.630,213.850 64.401 C 213.059 64.288,211.994 64.077,211.482 63.931 C 208.465 63.072,204.243 62.551,196.740 62.112 C 194.264 61.967,191.716 61.687,191.077 61.490 C 188.159 60.592,187.658 60.458,186.120 60.166 C 185.220 59.995,183.367 59.725,182.002 59.565 C 180.636 59.405,179.114 59.134,178.619 58.962 C 177.488 58.570,168.521 58.568,167.850 58.960 M195.035 104.005 C 177.318 105.564,163.971 122.694,166.301 140.884 C 167.592 150.964,174.349 161.099,182.444 165.097 C 185.793 166.750,185.754 166.761,185.977 164.106 C 186.201 161.432,186.375 161.742,183.625 159.914 C 177.454 155.815,174.011 150.864,171.683 142.746 C 170.215 137.625,171.262 129.749,174.194 123.863 C 183.723 104.732,210.874 103.335,222.495 121.377 L 223.267 122.576 225.657 122.576 C 228.551 122.576,228.590 122.526,227.499 120.222 C 223.680 112.156,212.521 104.993,202.196 103.979 C 200.332 103.796,198.656 103.666,198.472 103.689 C 198.288 103.713,196.742 103.855,195.035 104.005 M310.318 118.518 C 302.932 121.240,299.691 128.923,302.912 136.074 C 304.699 140.040,309.212 142.879,313.732 142.879 C 316.515 142.879,318.685 142.158,321.041 140.450 C 327.615 135.683,327.584 125.663,320.979 120.481 C 320.272 119.926,319.539 119.472,319.350 119.472 C 319.161 119.472,319.007 119.333,319.007 119.162 C 319.007 118.991,318.693 118.847,318.309 118.841 C 317.925 118.835,317.261 118.630,316.835 118.386 C 315.788 117.788,312.098 117.863,310.318 118.518 M195.966 118.532 C 181.423 120.217,175.392 138.836,185.886 149.651 C 188.125 151.958,188.381 151.930,189.429 149.259 C 193.201 139.645,204.084 128.685,212.645 125.876 C 215.385 124.978,206.964 119.195,201.973 118.547 C 199.443 118.218,198.687 118.217,195.966 118.532 M98.185 133.666 C 97.997 133.796,97.764 134.112,97.666 134.368 C 97.525 134.738,97.484 134.723,97.464 134.290 C 97.411 133.112,94.957 134.619,94.957 135.830 C 94.957 136.168,94.727 136.906,94.446 137.469 C 93.967 138.429,93.970 138.559,94.489 139.522 C 95.102 140.662,96.199 140.533,96.199 139.322 C 96.199 138.833,96.412 138.712,97.275 138.712 C 99.320 138.712,102.296 136.728,101.982 135.574 C 101.568 134.053,99.284 132.906,98.185 133.666 M101.164 138.646 C 100.737 138.932,100.318 139.250,100.233 139.350 C 100.147 139.451,99.403 139.803,98.579 140.131 C 96.042 141.144,96.059 142.712,98.608 142.736 C 100.226 142.752,102.715 140.882,102.715 139.651 C 102.715 139.325,102.855 138.973,103.026 138.867 C 103.196 138.762,103.336 138.544,103.336 138.384 C 103.336 137.917,102.010 138.077,101.164 138.646 M269.171 144.400 C 268.212 145.225,268.269 146.104,269.372 147.506 C 270.319 148.710,270.506 148.550,270.669 146.393 C 270.889 143.480,270.634 143.141,269.171 144.400 M43.286 259.009 C 42.191 260.104,41.871 262.561,42.544 264.703 C 43.090 266.438,42.942 277.085,42.334 279.816 C 41.391 284.056,44.068 285.387,45.638 281.458 C 46.226 279.989,46.127 259.124,45.531 258.745 C 44.895 258.341,43.828 258.466,43.286 259.009 M125.524 259.017 C 124.670 259.283,123.532 259.694,122.994 259.929 C 122.456 260.164,121.885 260.357,121.723 260.357 C 121.151 260.357,120.355 261.558,120.456 262.271 C 120.587 263.197,122.174 263.411,123.666 262.703 C 126.879 261.178,127.174 261.631,126.645 267.284 C 125.222 282.504,125.388 284.600,127.883 282.921 L 128.937 282.212 129.142 277.568 C 129.478 269.960,130.339 262.885,131.039 261.986 C 131.206 261.771,132.009 261.598,132.844 261.598 C 135.390 261.598,137.489 260.090,136.706 258.823 C 136.371 258.282,127.382 258.438,125.524 259.017 M248.099 258.954 C 247.246 259.179,245.500 259.607,244.220 259.904 C 240.362 260.800,236.462 263.139,236.462 264.557 C 236.462 265.676,240.186 269.288,244.686 272.534 C 249.380 275.920,250.175 278.287,247.114 279.768 C 245.146 280.721,240.968 280.337,239.791 279.095 C 238.641 277.882,237.706 278.260,236.842 280.289 C 235.516 283.403,244.654 284.863,248.875 282.211 C 253.880 279.067,253.432 274.742,247.664 270.516 C 242.252 266.552,240.931 264.880,242.281 263.704 C 242.879 263.183,243.080 263.130,248.317 262.115 C 252.832 261.240,254.108 260.326,252.652 259.009 C 251.976 258.397,250.289 258.377,248.099 258.954 M307.311 259.316 C 306.697 260.252,306.701 260.084,307.064 269.977 C 307.208 273.903,307.157 276.453,306.903 278.045 C 306.186 282.537,306.187 282.516,306.853 283.119 C 307.856 284.027,308.827 283.664,309.624 282.083 C 310.319 280.705,310.325 280.579,310.244 269.670 L 310.163 258.650 309.018 258.555 C 308.057 258.475,307.783 258.597,307.311 259.316 M353.469 259.169 C 352.598 260.104,352.419 260.923,352.655 262.905 C 353.186 267.377,353.199 276.851,352.678 279.479 C 352.086 282.460,352.425 283.631,353.877 283.631 C 356.020 283.631,356.291 281.956,356.182 269.356 L 356.090 258.650 355.110 258.555 C 354.406 258.487,353.943 258.660,353.469 259.169 M157.281 261.120 C 156.998 261.740,157.039 262.045,157.499 262.747 C 158.720 264.610,159.373 277.816,158.293 278.793 C 155.839 281.014,160.901 282.720,164.445 280.867 C 169.898 278.016,172.376 271.493,169.697 267.042 C 166.725 262.103,158.599 258.227,157.281 261.120 M24.036 261.739 C 23.154 262.621,22.999 265.089,23.628 268.225 C 24.490 272.515,21.792 276.605,20.630 272.770 C 19.981 270.630,17.586 267.804,16.420 267.804 C 15.615 267.804,14.252 269.359,13.425 271.218 C 10.925 276.842,10.628 277.251,9.674 276.388 C 8.710 275.515,8.226 272.902,8.225 268.551 C 8.223 264.176,8.003 263.460,6.656 263.460 C 3.459 263.460,3.274 272.668,6.349 278.699 C 8.549 283.013,11.116 282.164,14.151 276.120 C 16.146 272.149,16.451 272.154,18.632 276.206 C 21.097 280.786,23.208 281.192,25.154 277.459 C 28.667 270.719,27.763 258.012,24.036 261.739 M362.093 261.806 C 360.895 262.124,361.069 264.545,362.323 265.022 C 363.651 265.527,365.244 264.239,365.244 262.660 C 365.244 261.901,363.508 261.431,362.093 261.806 M57.379 264.033 C 55.009 265.142,51.443 268.368,50.623 270.144 C 50.390 270.649,50.078 271.302,49.929 271.595 C 48.936 273.553,49.463 277.693,50.946 279.582 C 54.248 283.787,63.305 283.222,63.305 278.810 C 63.305 277.432,62.881 277.434,60.865 278.821 C 57.273 281.292,52.754 278.871,52.754 274.476 C 52.754 271.857,54.758 269.263,58.029 267.646 C 62.273 265.549,61.641 262.038,57.379 264.033 M208.019 264.384 C 201.095 268.355,198.704 275.549,202.773 280.169 C 206.134 283.985,214.740 282.854,214.740 278.597 C 214.740 277.435,214.153 277.487,212.172 278.821 C 210.553 279.911,208.502 280.299,208.068 279.597 C 207.963 279.426,207.624 279.286,207.316 279.286 C 205.718 279.286,204.145 276.927,204.123 274.497 C 204.099 271.860,205.631 269.681,208.592 268.143 C 211.940 266.403,212.919 265.086,211.690 263.974 C 210.866 263.228,209.833 263.344,208.019 264.384 M262.324 264.107 C 255.778 267.119,252.704 275.414,256.493 279.841 C 258.910 282.664,264.753 283.486,267.135 281.338 C 268.179 280.396,269.054 278.488,268.634 278.068 C 268.146 277.580,267.982 277.629,266.119 278.821 C 264.091 280.118,263.069 280.181,260.878 279.144 C 255.982 276.828,257.244 270.715,263.239 267.713 C 267.642 265.507,266.767 262.062,262.324 264.107 M270.864 264.053 C 270.179 264.608,269.616 271.521,269.637 279.131 C 269.645 282.186,271.875 281.867,273.562 278.570 C 273.894 277.920,274.774 276.612,275.518 275.664 L 276.869 273.939 277.503 274.573 C 278.040 275.109,278.157 275.700,278.263 278.410 C 278.422 282.489,278.516 282.898,279.426 283.494 C 281.539 284.878,282.190 280.707,280.821 274.551 C 279.682 269.429,278.282 268.976,275.036 272.680 C 273.137 274.847,272.925 274.457,272.925 268.794 C 272.925 263.266,272.642 262.614,270.864 264.053 M164.093 265.028 C 169.155 267.931,169.387 274.906,164.529 278.110 C 161.926 279.827,161.379 278.261,161.339 268.975 C 161.315 263.438,161.317 263.436,164.093 265.028 M68.454 265.493 C 64.399 269.548,64.524 276.491,68.687 278.467 C 71.259 279.687,74.549 276.439,75.007 272.228 C 75.460 268.051,70.744 263.203,68.454 265.493 M141.890 266.175 C 138.274 270.804,138.139 275.045,141.520 277.782 C 144.141 279.903,147.231 278.090,148.459 273.711 C 149.957 268.372,144.797 262.453,141.890 266.175 M287.489 265.249 C 286.966 265.610,285.209 268.300,284.553 269.745 C 283.053 273.050,284.647 277.469,287.764 278.646 C 291.073 279.897,294.710 273.631,293.157 269.356 C 291.936 265.994,289.241 264.042,287.489 265.249 M298.330 265.860 C 294.312 270.196,294.513 276.544,298.729 278.408 C 302.090 279.895,305.811 274.830,304.771 270.183 C 303.817 265.922,300.400 263.628,298.330 265.860 M328.937 265.219 C 321.909 267.618,319.367 275.612,324.316 279.752 C 328.951 283.629,336.352 279.331,336.380 272.747 C 336.398 268.580,332.031 264.164,328.937 265.219 M177.657 265.902 C 175.509 266.421,174.399 267.152,174.404 268.041 C 174.414 269.860,175.132 270.087,177.912 269.147 C 180.812 268.165,182.799 268.473,182.773 269.899 C 182.748 271.261,182.449 271.437,179.846 271.621 C 169.884 272.324,169.827 282.791,179.785 282.992 C 180.346 283.004,180.895 283.295,181.281 283.786 C 182.635 285.506,183.220 284.520,183.861 279.441 C 184.119 277.393,184.555 274.810,184.829 273.701 C 186.256 267.930,183.165 264.569,177.657 265.902 M31.342 266.787 C 26.318 268.675,26.986 279.327,32.310 282.224 C 34.827 283.594,39.105 283.028,39.547 281.267 C 39.920 279.780,39.397 279.661,36.429 280.558 C 34.841 281.037,32.786 280.038,32.954 278.869 C 33.044 278.248,36.346 275.638,37.109 275.586 C 37.842 275.535,40.031 273.166,40.024 272.429 C 39.990 268.709,34.948 265.432,31.342 266.787 M84.980 266.760 C 84.447 266.913,83.534 268.159,82.111 270.675 C 81.652 271.486,81.143 272.170,80.980 272.196 C 79.965 272.354,79.903 272.242,79.752 269.977 L 79.597 267.649 78.200 267.649 C 75.948 267.649,75.658 268.543,75.880 274.787 C 76.101 281.000,76.375 282.079,77.730 282.079 C 79.107 282.079,79.759 281.261,81.752 277.036 C 84.051 272.162,85.096 272.312,84.374 277.414 C 83.645 282.566,86.513 284.038,88.444 279.504 C 92.273 270.516,93.767 269.568,93.836 276.081 C 93.860 278.354,93.679 280.324,93.277 282.168 C 92.613 285.216,92.736 285.606,94.344 285.560 C 96.592 285.496,97.293 283.097,97.264 275.562 C 97.237 268.438,97.128 267.890,95.672 267.617 C 94.194 267.340,92.975 268.005,90.890 270.225 L 89.276 271.944 88.703 271.236 C 88.350 270.799,88.130 270.030,88.130 269.226 C 88.130 267.240,86.837 266.228,84.980 266.760 M103.136 267.039 C 98.657 269.339,99.175 278.583,103.965 281.837 C 106.650 283.661,110.937 283.347,111.728 281.268 C 112.204 280.017,111.705 279.687,110.084 280.179 C 107.621 280.927,106.955 280.934,106.048 280.220 C 104.514 279.013,104.863 278.408,108.468 276.027 C 111.917 273.750,112.244 273.310,111.930 271.374 C 111.362 267.874,106.334 265.396,103.136 267.039 M219.217 266.847 C 214.192 269.007,215.311 279.718,220.853 282.510 C 222.657 283.418,226.743 282.909,227.525 281.679 C 228.504 280.139,227.322 279.479,225.184 280.372 C 223.604 281.032,222.771 280.953,221.797 280.050 C 220.413 278.766,221.151 277.671,224.618 275.864 C 228.962 273.600,229.127 270.672,225.083 267.588 C 223.881 266.671,220.593 266.255,219.217 266.847 M384.617 266.847 C 379.574 269.015,380.652 279.403,386.239 282.472 C 388.745 283.849,393.154 282.661,393.168 280.605 C 393.174 279.737,392.453 279.696,390.347 280.444 C 388.898 280.959,388.788 280.957,387.772 280.410 C 385.648 279.266,385.984 278.346,389.233 276.416 C 392.678 274.369,393.602 273.352,393.397 271.829 C 392.921 268.276,387.908 265.432,384.617 266.847 M187.635 268.372 C 186.838 269.254,186.870 279.583,187.673 280.310 C 188.745 281.280,189.554 280.398,191.219 276.442 C 193.544 270.919,194.173 271.074,194.558 277.262 C 194.858 282.087,195.140 282.749,196.659 282.206 L 197.517 281.898 197.457 278.498 C 197.287 269.018,194.969 265.896,191.592 270.596 C 190.229 272.494,189.591 272.324,189.838 270.129 C 190.076 268.023,188.842 267.039,187.635 268.372 M338.734 268.292 C 337.477 269.550,338.175 280.838,339.510 280.838 C 340.152 280.838,340.976 279.578,341.958 277.095 C 344.449 270.797,345.248 270.941,345.651 277.764 C 345.895 281.897,346.061 282.373,347.264 282.385 C 348.639 282.398,348.764 281.867,348.463 277.269 C 347.849 267.904,345.692 266.005,341.948 271.534 C 341.175 272.676,340.618 272.051,340.828 270.277 C 341.072 268.217,339.911 267.116,338.734 268.292 M368.308 268.318 C 367.995 268.695,367.867 270.071,367.824 273.516 C 367.740 280.335,367.904 280.978,369.631 280.605 C 370.055 280.514,371.761 277.360,371.761 276.667 C 371.761 275.275,374.025 272.117,374.607 272.698 C 374.896 272.988,375.411 277.989,375.467 281.050 C 375.511 283.497,378.277 282.721,378.279 280.261 C 378.284 269.525,375.899 265.884,372.101 270.830 C 370.764 272.571,370.520 272.497,370.520 270.349 C 370.520 267.976,369.425 266.971,368.308 268.318 M361.153 269.279 C 360.001 271.239,360.060 280.533,361.229 281.158 C 362.823 282.012,363.432 281.273,363.378 278.549 C 363.314 275.266,363.632 272.319,364.228 270.678 C 365.040 268.443,362.361 267.223,361.153 269.279 M71.849 270.736 C 73.074 273.945,70.528 276.322,68.189 274.153 C 67.110 273.153,67.095 272.032,68.139 270.495 C 69.609 268.331,70.964 268.419,71.849 270.736 M300.745 269.071 C 302.200 269.850,302.710 273.015,301.575 274.224 C 299.522 276.409,296.491 273.680,297.901 270.916 C 298.810 269.135,299.738 268.532,300.745 269.071 M145.317 269.947 C 146.011 271.122,146.022 273.617,145.336 274.374 C 144.264 275.559,141.717 274.751,141.357 273.111 C 140.751 270.352,144.015 267.743,145.317 269.947 M290.267 270.101 C 291.893 273.527,289.424 276.489,286.896 274.146 C 286.163 273.465,286.061 273.173,286.199 272.143 C 286.595 269.186,289.210 267.874,290.267 270.101 M331.581 269.670 C 334.624 271.551,332.668 277.940,328.859 278.558 C 326.707 278.907,324.820 275.806,325.619 273.233 C 326.822 269.359,328.985 268.066,331.581 269.670 M35.663 269.809 C 37.467 270.742,36.841 273.018,34.428 274.292 C 32.579 275.269,31.526 275.044,31.039 273.566 C 30.034 270.521,32.758 268.307,35.663 269.809 M107.691 269.827 C 109.640 270.835,108.831 273.487,106.277 274.462 C 103.986 275.337,103.026 274.692,103.026 272.277 C 103.026 269.835,105.348 268.615,107.691 269.827 M223.755 269.830 C 225.833 270.904,224.533 273.780,221.565 274.669 C 219.785 275.202,218.922 274.378,219.009 272.228 C 219.111 269.713,221.345 268.584,223.755 269.830 M389.132 269.818 C 391.152 270.863,390.473 273.025,387.680 274.439 C 385.582 275.501,384.312 274.634,384.410 272.206 C 384.510 269.724,386.755 268.589,389.132 269.818 M181.981 275.126 C 182.798 278.381,180.809 280.822,177.891 280.147 C 173.324 279.089,174.088 274.650,178.841 274.627 C 179.385 274.624,180.019 274.502,180.252 274.354 C 180.921 273.930,181.777 274.313,181.981 275.126 " stroke="none" fill="#5945b9" fill-rule="evenodd"></path><path id="path1" d="M208.031 28.974 C 199.061 32.282,198.183 45.057,206.672 48.754 C 207.440 49.089,208.311 49.497,208.607 49.662 C 209.278 50.035,213.712 50.059,213.940 49.691 C 214.031 49.542,214.544 49.333,215.079 49.226 C 217.748 48.692,220.797 45.120,221.707 41.460 C 223.650 33.647,215.511 26.216,208.031 28.974 M209.466 70.365 C 209.466 70.493,210.339 71.294,211.405 72.145 C 219.898 78.926,228.883 92.306,230.686 100.853 C 230.880 101.772,231.680 102.946,231.938 102.689 C 232.311 102.315,229.657 95.225,227.649 91.234 C 224.136 84.250,217.933 76.465,212.568 72.306 C 211.800 71.711,210.901 70.978,210.570 70.678 C 209.939 70.105,209.464 69.971,209.466 70.365 M225.834 122.496 C 223.181 122.613,223.142 122.658,224.091 124.519 C 225.687 127.646,226.572 131.933,226.579 136.569 C 226.611 156.144,208.298 169.068,189.467 162.760 C 185.800 161.532,186.175 161.357,185.967 164.396 C 185.816 166.601,185.859 166.878,186.383 167.091 C 199.757 172.523,214.954 168.853,224.216 157.952 C 229.849 151.322,232.891 141.192,231.822 132.618 C 231.341 128.761,229.177 122.130,228.464 122.328 C 228.340 122.362,227.157 122.438,225.834 122.496 M212.878 125.672 C 212.622 125.819,211.715 126.242,210.861 126.612 C 202.435 130.270,193.432 139.775,189.449 149.219 L 188.375 151.767 189.809 152.676 C 196.307 156.797,206.272 155.559,211.899 149.932 C 217.965 143.866,219.302 135.654,215.469 128.006 C 214.258 125.591,213.776 125.157,212.878 125.672 M244.531 125.652 C 244.531 125.807,244.740 127.029,244.996 128.367 C 245.624 131.649,245.628 141.380,245.003 144.763 C 244.386 148.102,243.460 151.331,242.511 153.452 C 242.282 153.964,241.858 154.942,241.568 155.625 C 234.953 171.247,219.681 181.987,202.327 183.222 C 199.758 183.405,191.087 182.969,190.152 182.611 C 187.568 181.619,193.345 191.680,198.376 196.933 C 201.764 200.471,209.978 206.362,211.523 206.362 C 211.620 206.362,212.208 206.583,212.831 206.853 C 213.454 207.123,214.423 207.542,214.983 207.784 C 215.544 208.026,216.269 208.223,216.594 208.223 C 216.920 208.223,217.261 208.345,217.353 208.493 C 217.444 208.641,218.116 208.856,218.845 208.971 C 219.574 209.085,220.590 209.306,221.102 209.462 C 223.377 210.155,230.227 210.508,233.766 210.115 C 253.866 207.885,268.597 194.409,272.810 174.399 C 273.387 171.660,273.385 161.297,272.807 158.573 C 272.073 155.109,270.697 150.759,269.538 148.237 C 268.294 145.530,268.216 145.043,268.902 144.286 C 269.339 143.802,269.315 143.771,268.597 143.908 C 267.963 144.030,267.713 143.869,267.267 143.051 C 265.459 139.734,258.728 132.868,254.435 129.962 C 250.189 127.087,244.531 124.625,244.531 125.652 M287.665 147.750 C 285.999 148.414,284.248 150.994,284.253 152.780 C 284.266 157.676,289.798 160.442,293.340 157.324 C 298.194 153.051,293.639 145.367,287.665 147.750 " stroke="none" fill="#e2637d" fill-rule="evenodd"></path><path id="path2" d="M217.843 30.508 C 217.843 30.562,218.297 31.016,218.852 31.517 L 219.860 32.428 218.949 31.420 C 218.099 30.480,217.843 30.269,217.843 30.508 M220.356 33.651 C 220.714 34.258,221.067 34.756,221.140 34.756 C 221.361 34.756,220.353 32.947,220.017 32.740 C 219.845 32.633,219.997 33.043,220.356 33.651 M200.558 39.100 C 200.558 40.039,200.617 40.423,200.688 39.953 C 200.759 39.484,200.759 38.716,200.688 38.247 C 200.617 37.777,200.558 38.161,200.558 39.100 M236.307 58.516 C 231.280 59.206,228.677 59.785,224.987 61.034 C 222.378 61.918,217.047 64.388,216.765 64.843 C 216.609 65.097,213.324 67.431,211.725 68.425 C 210.990 68.882,210.085 69.786,210.085 70.063 C 210.085 70.326,210.455 70.659,212.569 72.303 C 217.955 76.492,224.138 84.254,227.649 91.234 C 229.341 94.597,232.174 101.918,232.073 102.663 C 231.979 103.349,232.274 103.850,233.620 105.294 C 237.930 109.917,242.438 118.330,243.955 124.585 C 244.161 125.434,244.386 125.957,244.456 125.748 C 245.570 122.405,263.371 135.891,267.247 143.016 C 268.210 144.786,270.973 143.343,275.164 138.879 C 295.137 117.608,291.551 83.848,267.517 66.898 C 264.676 64.894,258.718 61.753,257.759 61.753 C 257.549 61.753,257.245 61.634,257.083 61.488 C 256.574 61.030,252.543 59.917,247.944 58.964 C 246.198 58.603,237.983 58.286,236.307 58.516 M245.223 130.954 C 245.223 131.552,245.287 131.796,245.365 131.497 C 245.443 131.199,245.443 130.710,245.365 130.411 C 245.287 130.112,245.223 130.357,245.223 130.954 M231.880 139.022 C 231.880 139.620,231.943 139.864,232.022 139.566 C 232.100 139.267,232.100 138.778,232.022 138.479 C 231.943 138.181,231.880 138.425,231.880 139.022 M231.569 141.505 C 231.569 142.102,231.633 142.347,231.711 142.048 C 231.789 141.749,231.789 141.261,231.711 140.962 C 231.633 140.663,231.569 140.908,231.569 141.505 M245.223 142.126 C 245.223 142.723,245.287 142.967,245.365 142.669 C 245.443 142.370,245.443 141.881,245.365 141.583 C 245.287 141.284,245.223 141.528,245.223 142.126 M289.453 158.792 C 289.839 158.866,290.397 158.863,290.694 158.786 C 290.991 158.708,290.675 158.647,289.992 158.651 C 289.310 158.654,289.067 158.718,289.453 158.792 M273.495 166.641 C 273.495 167.921,273.549 168.445,273.616 167.804 C 273.683 167.164,273.683 166.117,273.616 165.477 C 273.549 164.837,273.495 165.361,273.495 166.641 M118.536 195.795 C 116.102 197.082,114.742 199.127,114.707 201.551 C 114.589 209.743,126.380 210.768,127.651 202.676 C 128.417 197.797,122.787 193.547,118.536 195.795 M261.113 197.130 L 260.202 198.138 261.210 197.227 C 261.765 196.725,262.219 196.272,262.219 196.218 C 262.219 195.978,261.963 196.189,261.113 197.130 " stroke="none" fill="#e9a95e" fill-rule="evenodd"></path><path id="path3" d="M206.188 29.342 C 205.595 29.817,205.596 29.820,206.206 29.539 C 206.548 29.382,207.036 29.176,207.292 29.081 C 207.695 28.932,207.692 28.905,207.274 28.884 C 207.008 28.871,206.519 29.077,206.188 29.342 M216.912 29.672 C 217.339 29.974,218.378 30.927,219.222 31.790 C 220.083 32.671,220.471 32.951,220.106 32.428 C 219.300 31.274,218.282 30.344,217.067 29.653 C 216.162 29.137,216.158 29.137,216.912 29.672 M203.582 31.299 C 199.134 35.747,199.075 42.187,203.439 46.853 C 204.245 47.714,204.965 48.358,205.040 48.283 C 205.114 48.209,204.606 47.633,203.910 47.004 C 199.453 42.978,199.443 35.901,203.887 31.420 C 204.776 30.524,205.410 29.791,205.297 29.791 C 205.183 29.791,204.412 30.469,203.582 31.299 M221.400 35.517 C 221.748 36.594,222.079 37.352,222.136 37.203 C 222.264 36.863,221.289 33.881,220.988 33.695 C 220.867 33.620,221.052 34.440,221.400 35.517 M222.276 39.255 C 222.279 40.109,222.339 40.421,222.410 39.949 C 222.482 39.477,222.480 38.779,222.406 38.398 C 222.333 38.016,222.274 38.402,222.276 39.255 M221.808 41.738 C 221.699 42.250,221.529 42.948,221.429 43.289 C 221.329 43.631,221.466 43.440,221.733 42.865 C 222.001 42.290,222.171 41.592,222.112 41.313 C 222.050 41.021,221.922 41.199,221.808 41.738 M220.611 44.763 C 220.415 45.147,219.607 46.160,218.816 47.013 L 217.378 48.564 218.877 47.168 C 220.192 45.943,221.550 44.065,221.121 44.065 C 221.037 44.065,220.808 44.379,220.611 44.763 M210.163 50.187 C 210.803 50.254,211.850 50.254,212.490 50.187 C 213.130 50.120,212.607 50.066,211.327 50.066 C 210.047 50.066,209.523 50.120,210.163 50.187 M163.538 58.990 C 157.685 60.108,157.350 60.195,153.142 61.685 C 137.297 67.296,123.575 80.213,117.470 95.268 C 117.020 96.377,116.525 97.564,116.370 97.905 C 113.182 104.928,111.870 120.586,113.717 129.558 C 114.903 135.314,117.689 143.860,118.883 145.399 C 119.021 145.579,119.224 146.347,119.332 147.106 C 121.122 159.645,125.233 170.705,131.691 180.362 C 135.906 186.665,140.207 191.477,146.362 196.779 C 147.573 197.822,153.926 202.453,154.538 202.739 C 154.794 202.858,155.702 203.378,156.555 203.893 C 157.409 204.408,158.735 205.140,159.503 205.518 C 160.272 205.897,160.970 206.288,161.055 206.387 C 161.326 206.704,165.384 208.534,165.814 208.534 C 166.041 208.534,166.323 208.629,166.440 208.746 C 167.055 209.362,175.813 212.113,179.519 212.855 C 186.201 214.193,186.895 214.252,195.500 214.230 C 204.342 214.208,203.946 214.246,212.723 212.572 C 214.364 212.260,216.929 211.545,219.308 210.739 C 220.369 210.380,221.835 210.067,222.566 210.044 L 223.894 210.002 222.434 209.798 C 221.630 209.686,220.878 209.499,220.762 209.383 C 220.646 209.268,220.178 209.439,219.721 209.764 C 219.265 210.089,218.481 210.444,217.980 210.554 C 217.478 210.664,216.788 210.864,216.447 210.999 C 215.420 211.404,213.133 211.973,211.422 212.250 C 210.535 212.393,209.675 212.593,209.509 212.696 C 208.196 213.507,190.688 214.153,186.811 213.532 C 180.183 212.471,177.858 212.051,176.261 211.625 C 175.493 211.421,174.637 211.140,174.359 211.001 C 174.082 210.862,173.347 210.653,172.727 210.537 C 172.107 210.421,171.523 210.201,171.429 210.050 C 171.335 209.899,170.953 209.771,170.579 209.765 C 170.205 209.760,169.628 209.550,169.297 209.300 C 168.965 209.049,168.372 208.844,167.978 208.844 C 167.584 208.844,167.261 208.716,167.261 208.558 C 167.261 208.401,166.812 208.174,166.263 208.053 C 165.714 207.933,165.051 207.728,164.789 207.598 C 164.527 207.468,163.755 207.101,163.072 206.784 C 162.389 206.466,161.342 205.914,160.745 205.557 C 160.147 205.200,158.821 204.445,157.797 203.879 C 156.773 203.313,155.661 202.697,155.327 202.511 C 154.141 201.850,147.849 197.225,146.732 196.192 C 146.107 195.615,145.157 194.819,144.621 194.423 C 142.064 192.537,135.807 185.321,132.908 180.915 C 131.954 179.465,130.938 177.929,130.652 177.502 C 126.573 171.428,122.570 160.660,120.732 150.815 C 119.914 146.437,119.134 143.904,116.526 137.161 C 113.109 128.326,112.847 112.284,115.956 102.253 C 118.463 94.165,120.437 90.254,126.250 81.853 C 127.885 79.491,134.955 72.641,138.144 70.329 C 141.938 67.579,146.487 65.040,150.970 63.172 C 151.652 62.887,152.453 62.521,152.750 62.359 C 153.046 62.196,153.535 62.063,153.836 62.062 C 154.137 62.061,154.783 61.851,155.272 61.596 C 155.761 61.341,156.536 61.133,156.994 61.133 C 157.453 61.133,157.960 61.000,158.123 60.838 C 158.472 60.489,161.140 59.972,164.739 59.554 C 166.167 59.388,167.589 59.117,167.899 58.951 C 168.643 58.553,177.467 58.562,178.619 58.962 C 179.114 59.134,180.636 59.405,182.002 59.565 C 183.367 59.725,185.220 59.995,186.120 60.166 C 187.658 60.458,188.159 60.592,191.077 61.490 C 191.716 61.687,194.264 61.967,196.740 62.112 C 204.243 62.551,208.465 63.072,211.482 63.931 C 211.994 64.077,213.059 64.288,213.850 64.401 C 215.461 64.630,215.623 65.270,214.281 66.106 C 211.646 67.749,209.465 69.391,209.465 69.732 C 209.465 70.320,209.683 70.233,210.792 69.203 C 211.342 68.692,212.899 67.540,214.252 66.643 C 217.123 64.739,217.188 64.509,214.988 64.042 C 214.084 63.850,212.227 63.447,210.861 63.148 C 207.335 62.373,204.810 62.095,198.448 61.781 C 195.376 61.629,192.514 61.369,192.087 61.203 C 189.861 60.336,188.071 59.900,182.281 58.812 C 178.616 58.123,167.522 58.229,163.538 58.990 M192.397 90.298 C 185.835 91.518,183.786 92.130,178.898 94.330 C 166.698 99.821,156.375 112.634,153.515 125.834 C 153.256 127.029,152.891 128.750,152.705 129.659 C 152.270 131.782,152.265 141.265,152.698 143.421 C 153.784 148.830,154.067 149.955,154.883 152.129 C 155.378 153.449,156.132 155.290,156.557 156.220 C 156.983 157.151,157.331 158.004,157.331 158.117 C 157.331 158.500,160.621 163.369,162.670 166.020 C 167.986 172.898,176.535 178.784,185.012 181.404 C 186.429 181.841,187.987 182.417,188.476 182.682 C 189.048 182.993,189.435 183.052,189.562 182.849 C 189.693 182.639,190.333 182.631,191.466 182.824 C 205.445 185.209,221.199 180.225,231.523 170.151 C 236.764 165.037,240.478 159.361,242.329 153.635 C 242.950 151.714,242.486 152.332,241.472 154.775 C 228.475 186.099,185.279 192.617,163.865 166.486 C 161.439 163.524,158.464 159.025,157.813 157.331 C 157.517 156.563,157.149 155.781,156.993 155.593 C 156.624 155.146,155.227 151.395,154.693 149.418 C 152.156 140.023,152.129 133.333,154.589 123.972 C 156.065 118.356,160.494 110.291,164.435 106.040 C 165.051 105.376,165.660 104.647,165.789 104.419 C 166.115 103.845,171.256 99.786,174.213 97.769 C 189.223 87.531,212.418 88.407,226.719 99.752 C 227.590 100.443,228.659 101.288,229.095 101.629 C 229.859 102.228,231.030 103.263,233.980 105.945 L 235.376 107.215 233.960 105.663 C 233.181 104.810,232.206 103.596,231.794 102.965 C 231.381 102.334,230.761 101.688,230.417 101.527 C 230.072 101.367,228.852 100.487,227.705 99.571 C 224.088 96.683,221.166 95.066,214.895 92.483 C 212.923 91.670,210.672 91.093,205.865 90.166 C 202.531 89.524,196.232 89.585,192.397 90.298 M193.492 103.371 C 177.958 105.634,165.397 120.396,165.401 136.385 C 165.402 139.381,166.038 144.433,166.600 145.909 C 166.750 146.303,167.118 147.370,167.418 148.280 C 170.508 157.664,178.353 164.974,189.139 168.521 L 193.173 169.848 198.914 169.858 L 204.655 169.868 208.223 168.675 C 212.780 167.150,217.559 164.820,219.547 163.154 C 223.174 160.114,226.798 155.913,227.913 153.452 C 228.223 152.770,228.540 152.071,228.617 151.901 C 228.695 151.730,228.469 151.939,228.116 152.366 C 227.763 152.793,227.383 153.421,227.272 153.763 C 227.071 154.380,225.979 155.877,224.216 157.952 C 215.770 167.893,201.296 172.134,189.366 168.164 C 187.785 167.637,186.294 167.010,186.053 166.769 C 185.812 166.528,185.463 166.330,185.279 166.330 C 182.820 166.330,176.362 161.383,173.126 157.021 C 155.474 133.225,173.163 101.145,202.365 103.997 C 212.429 104.979,223.707 112.219,227.439 120.093 C 227.884 121.032,228.489 122.143,228.783 122.562 C 229.077 122.981,229.543 124.002,229.818 124.832 C 230.094 125.661,230.390 126.269,230.477 126.182 C 230.714 125.945,229.094 121.806,227.706 119.102 C 226.559 116.867,223.055 112.814,220.635 110.925 C 220.208 110.591,219.300 109.880,218.618 109.346 C 212.519 104.564,202.182 102.106,193.492 103.371 M235.410 107.758 C 235.704 108.263,237.417 110.538,237.804 110.939 C 238.274 111.424,237.712 110.501,236.527 108.844 C 235.567 107.501,234.862 106.816,235.410 107.758 M196.276 108.614 C 187.611 109.381,178.155 115.911,174.194 123.863 C 171.753 128.763,171.234 130.970,171.212 136.540 C 171.193 141.228,171.319 141.965,172.951 146.721 C 179.625 166.175,207.631 170.555,220.602 154.172 C 222.362 151.949,224.827 147.765,224.544 147.481 C 224.465 147.403,223.985 148.161,223.478 149.166 C 222.011 152.073,219.055 155.798,216.887 157.474 C 215.791 158.321,214.825 159.097,214.740 159.199 C 214.655 159.301,213.607 159.935,212.413 160.608 C 197.638 168.926,178.553 161.480,173.173 145.299 C 169.720 134.917,172.697 123.380,180.605 116.488 C 181.032 116.116,181.800 115.439,182.312 114.984 C 191.891 106.470,212.154 108.350,219.389 118.425 C 219.918 119.161,220.540 119.953,220.773 120.185 C 223.160 122.573,225.653 128.637,226.213 133.419 C 226.431 135.290,226.454 135.336,226.491 133.999 C 226.528 132.702,225.855 129.349,225.040 126.765 C 224.491 125.024,222.418 120.954,221.583 119.979 C 221.126 119.444,220.444 118.563,220.068 118.021 C 216.041 112.212,204.991 107.843,196.276 108.614 M238.780 112.801 C 239.257 113.654,239.792 114.492,239.968 114.663 C 240.144 114.833,239.898 114.275,239.420 113.421 C 238.943 112.568,238.408 111.730,238.232 111.559 C 238.056 111.389,238.302 111.947,238.780 112.801 M240.212 115.283 C 240.212 115.454,240.480 116.082,240.807 116.680 C 241.134 117.277,241.401 117.626,241.401 117.455 C 241.401 117.285,241.134 116.656,240.807 116.059 C 240.480 115.462,240.212 115.112,240.212 115.283 M311.715 117.620 C 303.418 118.503,298.101 128.386,301.860 135.937 C 308.090 148.454,326.881 144.362,326.881 130.489 C 326.881 122.381,320.205 116.716,311.715 117.620 M192.916 118.426 C 180.506 123.001,175.938 137.614,183.662 148.022 C 190.826 157.674,205.739 158.090,213.442 148.852 C 215.040 146.935,217.210 142.598,217.387 140.966 C 217.457 140.324,217.438 140.078,217.345 140.419 C 213.799 153.490,199.761 159.225,188.877 152.048 C 174.281 142.425,179.851 119.933,197.207 118.409 C 202.668 117.929,208.220 119.899,212.013 123.662 C 214.149 125.780,214.743 126.544,215.638 128.317 C 216.155 129.341,216.583 129.990,216.590 129.761 C 216.596 129.531,215.963 128.172,215.183 126.740 C 213.010 122.754,209.676 120.117,204.261 118.103 C 201.997 117.262,195.578 117.444,192.916 118.426 M316.835 118.386 C 317.261 118.630,317.925 118.835,318.309 118.841 C 318.693 118.847,319.007 118.991,319.007 119.162 C 319.007 119.333,319.161 119.472,319.350 119.472 C 319.806 119.472,322.068 121.261,323.041 122.391 C 326.854 126.820,326.938 133.392,323.244 138.277 C 322.250 139.593,320.383 141.099,319.015 141.688 C 316.686 142.692,315.855 142.879,313.732 142.879 C 310.382 142.879,307.883 141.840,305.522 139.464 C 297.585 131.476,302.779 118.129,313.887 117.973 C 315.253 117.954,316.347 118.107,316.835 118.386 M230.576 126.863 C 230.571 127.087,230.712 127.543,230.890 127.876 C 231.068 128.209,231.404 129.701,231.636 131.192 C 231.956 133.248,232.065 133.576,232.088 132.551 C 232.104 131.807,231.896 130.341,231.624 129.292 C 231.110 127.305,230.593 126.109,230.576 126.863 M216.777 130.954 C 217.307 133.211,217.468 133.634,217.487 132.816 C 217.497 132.389,217.300 131.621,217.050 131.109 C 216.663 130.318,216.622 130.294,216.777 130.954 M245.276 136.540 C 245.276 139.185,245.324 140.268,245.382 138.945 C 245.440 137.622,245.440 135.458,245.382 134.135 C 245.324 132.812,245.276 133.894,245.276 136.540 M96.459 132.923 C 92.772 134.561,91.951 138.850,94.782 141.680 L 96.468 143.367 98.662 143.367 L 100.855 143.367 102.372 141.893 C 106.731 137.656,101.991 130.465,96.459 132.923 M101.389 134.330 C 102.207 135.383,102.225 136.283,101.441 136.890 C 100.043 137.972,98.352 138.712,97.275 138.712 C 96.412 138.712,96.199 138.833,96.199 139.322 C 96.199 140.533,95.102 140.662,94.489 139.522 C 93.970 138.559,93.967 138.429,94.446 137.469 C 94.727 136.906,94.957 136.168,94.957 135.830 C 94.957 134.619,97.411 133.112,97.464 134.290 C 97.484 134.723,97.525 134.738,97.666 134.368 C 98.071 133.305,100.573 133.279,101.389 134.330 M217.642 136.695 C 217.637 139.574,217.658 139.678,217.924 138.140 C 218.096 137.140,218.098 135.908,217.929 135.037 C 217.682 133.770,217.647 133.975,217.642 136.695 M232.217 136.540 C 232.217 137.649,232.274 138.103,232.342 137.548 C 232.411 136.994,232.411 136.086,232.342 135.531 C 232.274 134.977,232.217 135.431,232.217 136.540 M226.274 139.178 C 226.244 140.031,226.071 141.261,225.890 141.911 C 225.710 142.562,225.620 143.260,225.692 143.463 C 225.929 144.136,226.572 140.321,226.450 138.961 L 226.330 137.626 226.274 139.178 M103.336 138.384 C 103.336 138.544,103.196 138.762,103.026 138.867 C 102.855 138.973,102.715 139.325,102.715 139.651 C 102.715 140.882,100.226 142.752,98.608 142.736 C 96.059 142.712,96.042 141.144,98.579 140.131 C 99.403 139.803,100.147 139.451,100.233 139.350 C 101.032 138.407,103.336 137.689,103.336 138.384 M231.886 141.040 C 231.889 141.722,231.953 141.965,232.027 141.579 C 232.101 141.193,232.098 140.634,232.021 140.338 C 231.943 140.041,231.882 140.357,231.886 141.040 M271.063 142.562 C 270.209 143.126,269.232 143.911,268.891 144.306 L 268.270 145.024 269.294 144.280 C 270.618 143.320,270.898 143.725,270.677 146.279 C 270.487 148.485,270.456 148.548,269.829 148.028 C 269.188 147.496,269.230 147.734,270.112 149.644 C 270.527 150.544,271.091 151.839,271.366 152.521 C 271.640 153.204,271.777 153.413,271.670 152.987 C 270.990 150.262,271.397 143.669,272.336 142.203 C 272.891 141.337,272.934 141.325,271.063 142.562 M225.043 145.142 C 224.512 146.916,224.609 147.505,225.169 145.906 C 225.428 145.169,225.589 144.416,225.527 144.232 C 225.466 144.048,225.248 144.458,225.043 145.142 M288.751 147.091 C 288.308 147.281,288.656 147.364,289.966 147.379 C 290.976 147.391,291.744 147.350,291.673 147.287 C 291.337 146.991,289.303 146.855,288.751 147.091 M286.185 148.208 C 285.210 148.976,284.059 150.725,284.342 151.009 C 284.417 151.083,284.660 150.705,284.883 150.168 C 285.105 149.630,285.843 148.788,286.523 148.296 C 287.202 147.804,287.632 147.403,287.479 147.405 C 287.325 147.406,286.743 147.768,286.185 148.208 M292.972 148.153 C 294.628 149.278,295.208 150.380,295.438 152.832 L 295.642 155.004 295.688 153.189 C 295.752 150.633,293.792 147.401,292.177 147.401 C 292.005 147.401,292.363 147.740,292.972 148.153 M229.065 150.362 C 228.545 151.504,228.644 151.747,229.207 150.710 C 229.469 150.225,229.626 149.771,229.555 149.700 C 229.484 149.629,229.264 149.927,229.065 150.362 M283.988 153.004 C 283.949 154.427,284.100 154.978,284.854 156.167 C 285.602 157.346,287.665 159.009,287.665 158.433 C 287.665 158.348,287.259 158.068,286.764 157.812 C 285.426 157.120,284.436 155.303,284.221 153.142 L 284.036 151.280 283.988 153.004 M271.882 154.228 C 271.882 154.484,272.002 154.973,272.149 155.314 C 272.317 155.705,272.416 155.763,272.416 155.469 C 272.416 155.213,272.296 154.725,272.149 154.383 C 271.981 153.992,271.882 153.935,271.882 154.228 M294.207 156.678 C 293.624 157.464,293.386 157.910,293.679 157.669 C 294.314 157.146,295.537 155.472,295.379 155.342 C 295.318 155.291,294.790 155.892,294.207 156.678 M272.521 156.555 C 272.521 156.897,272.633 157.525,272.770 157.952 C 272.966 158.566,273.018 158.599,273.018 158.107 C 273.018 157.766,272.906 157.137,272.770 156.711 C 272.573 156.096,272.521 156.064,272.521 156.555 M291.854 158.429 C 291.342 158.663,291.141 158.861,291.407 158.869 C 291.673 158.877,292.162 158.678,292.493 158.427 C 293.229 157.871,293.071 157.871,291.854 158.429 M273.483 162.917 C 273.483 163.856,273.541 164.240,273.612 163.770 C 273.684 163.301,273.684 162.533,273.612 162.064 C 273.541 161.594,273.483 161.978,273.483 162.917 M273.800 166.641 C 273.800 167.750,273.856 168.204,273.925 167.649 C 273.994 167.095,273.994 166.187,273.925 165.632 C 273.856 165.078,273.800 165.531,273.800 166.641 M273.483 170.365 C 273.483 171.303,273.541 171.687,273.612 171.218 C 273.684 170.749,273.684 169.981,273.612 169.511 C 273.541 169.042,273.483 169.426,273.483 170.365 M272.967 173.976 C 272.857 174.776,272.827 175.491,272.900 175.564 C 272.974 175.637,273.130 175.049,273.249 174.258 C 273.368 173.466,273.398 172.751,273.316 172.669 C 273.234 172.587,273.077 173.175,272.967 173.976 M269.717 184.497 C 269.197 185.639,269.296 185.882,269.858 184.845 C 270.121 184.360,270.278 183.906,270.207 183.835 C 270.136 183.764,269.915 184.062,269.717 184.497 M189.626 184.174 C 189.626 184.344,189.826 184.833,190.070 185.260 C 190.314 185.687,190.513 185.896,190.513 185.725 C 190.513 185.555,190.314 185.066,190.070 184.639 C 189.826 184.213,189.626 184.003,189.626 184.174 M268.270 187.432 C 268.005 187.944,267.858 188.363,267.944 188.363 C 268.029 188.363,268.316 187.944,268.580 187.432 C 268.845 186.920,268.992 186.501,268.907 186.501 C 268.821 186.501,268.535 186.920,268.270 187.432 M264.552 193.251 C 263.886 194.061,263.662 194.445,264.055 194.104 C 264.748 193.501,266.096 191.777,265.874 191.777 C 265.813 191.777,265.219 192.440,264.552 193.251 M261.899 196.509 C 261.133 197.436,260.924 197.804,261.416 197.362 C 262.268 196.597,263.623 194.880,263.375 194.880 C 263.304 194.880,262.640 195.613,261.899 196.509 M258.185 199.898 C 257.075 200.936,256.726 201.362,257.409 200.844 C 258.588 199.950,260.626 197.968,260.337 197.996 C 260.263 198.004,259.294 198.859,258.185 199.898 M254.627 202.674 C 252.997 203.899,252.844 204.102,254.094 203.384 C 254.974 202.878,256.359 201.664,255.983 201.728 C 255.914 201.740,255.304 202.165,254.627 202.674 M250.290 205.285 C 249.958 205.536,249.827 205.741,249.998 205.741 C 250.168 205.741,250.579 205.536,250.910 205.285 C 251.242 205.035,251.373 204.830,251.202 204.830 C 251.032 204.830,250.621 205.035,250.290 205.285 M247.013 206.812 C 246.587 207.051,245.679 207.459,244.996 207.719 C 244.131 208.048,243.961 208.196,244.435 208.207 C 244.809 208.216,245.201 208.084,245.306 207.913 C 245.412 207.742,245.696 207.603,245.938 207.603 C 246.180 207.603,246.835 207.324,247.394 206.983 C 248.537 206.286,248.214 206.140,247.013 206.812 M228.317 210.624 C 229.213 210.687,230.679 210.687,231.575 210.624 C 232.471 210.562,231.738 210.510,229.946 210.510 C 228.154 210.510,227.420 210.562,228.317 210.624 M353.819 258.022 C 352.000 259.024,351.574 261.856,352.524 266.621 C 352.985 268.935,352.578 277.671,351.866 280.740 C 351.071 284.169,354.490 285.680,356.153 282.636 C 356.760 281.524,357.313 260.600,356.777 259.002 C 356.371 257.790,355.039 257.349,353.819 258.022 M43.247 258.237 C 41.734 258.970,41.337 262.245,42.222 266.698 C 42.667 268.936,42.245 277.739,41.548 280.740 C 40.753 284.169,44.172 285.680,45.835 282.636 C 46.791 280.884,46.857 259.187,45.908 258.417 C 45.164 257.814,44.249 257.752,43.247 258.237 M127.075 258.175 C 124.803 258.426,121.146 259.811,120.360 260.717 C 118.648 262.691,121.007 264.666,123.515 263.357 C 126.396 261.854,126.463 262.031,125.812 269.396 C 124.575 283.399,124.910 285.544,128.034 283.614 C 129.416 282.759,129.710 281.990,129.725 279.188 C 129.740 276.307,130.543 266.639,130.967 264.245 C 131.353 262.061,131.520 261.919,133.718 261.913 C 136.597 261.905,138.846 259.253,136.871 258.196 C 136.224 257.850,130.130 257.837,127.075 258.175 M249.651 258.082 C 248.632 258.207,245.095 258.980,243.134 259.507 C 239.858 260.386,236.732 262.401,236.112 264.031 C 235.607 265.358,238.933 269.349,242.311 271.471 C 245.860 273.700,248.254 276.190,248.254 277.653 C 248.254 279.931,242.407 280.530,240.041 278.494 C 237.851 276.609,234.584 280.564,236.728 282.504 C 240.622 286.028,250.145 284.120,252.314 279.381 C 253.969 275.762,252.657 273.301,246.815 269.072 C 240.962 264.835,241.142 263.688,247.789 262.848 C 252.981 262.193,255.278 260.292,253.023 258.517 C 252.238 257.900,251.697 257.830,249.651 258.082 M307.651 258.176 C 306.042 258.827,305.573 262.003,306.459 266.249 C 307.017 268.923,306.865 274.413,306.102 279.169 C 305.465 283.142,306.380 284.888,308.672 284.074 C 310.629 283.379,310.773 282.474,310.879 270.227 C 310.990 257.329,310.869 256.875,307.651 258.176 M45.531 258.745 C 46.127 259.124,46.226 279.989,45.638 281.458 C 44.068 285.387,41.391 284.056,42.334 279.816 C 42.942 277.085,43.090 266.438,42.544 264.703 C 41.397 261.056,43.274 257.312,45.531 258.745 M136.706 258.823 C 137.489 260.090,135.390 261.598,132.844 261.598 C 132.009 261.598,131.206 261.771,131.039 261.986 C 130.339 262.885,129.478 269.960,129.142 277.568 L 128.937 282.212 127.883 282.921 C 125.388 284.600,125.222 282.504,126.645 267.284 C 127.174 261.631,126.879 261.178,123.666 262.703 C 122.174 263.411,120.587 263.197,120.456 262.271 C 120.355 261.558,121.151 260.357,121.723 260.357 C 121.885 260.357,122.456 260.164,122.994 259.929 C 125.645 258.769,127.111 258.533,131.789 258.514 C 134.787 258.502,136.577 258.614,136.706 258.823 M252.652 259.009 C 254.108 260.326,252.832 261.240,248.317 262.115 C 243.080 263.130,242.879 263.183,242.281 263.704 C 240.931 264.880,242.252 266.552,247.664 270.516 C 253.432 274.742,253.880 279.067,248.875 282.211 C 244.654 284.863,235.516 283.403,236.842 280.289 C 237.706 278.260,238.641 277.882,239.791 279.095 C 240.968 280.337,245.146 280.721,247.114 279.768 C 250.175 278.287,249.380 275.920,244.686 272.534 C 240.186 269.288,236.462 265.676,236.462 264.557 C 236.462 263.139,240.362 260.800,244.220 259.904 C 245.500 259.607,247.246 259.179,248.099 258.954 C 250.289 258.377,251.976 258.397,252.652 259.009 M310.244 269.670 C 310.325 280.579,310.319 280.705,309.624 282.083 C 308.827 283.664,307.856 284.027,306.853 283.119 C 306.187 282.516,306.186 282.537,306.903 278.045 C 307.157 276.453,307.208 273.903,307.064 269.977 C 306.701 260.084,306.697 260.252,307.311 259.316 C 307.783 258.597,308.057 258.475,309.018 258.555 L 310.163 258.650 310.244 269.670 M356.182 269.356 C 356.291 281.956,356.020 283.631,353.877 283.631 C 352.425 283.631,352.086 282.460,352.678 279.479 C 353.199 276.851,353.186 267.377,352.655 262.905 C 352.318 260.067,353.272 258.377,355.110 258.555 L 356.090 258.650 356.182 269.356 M157.033 260.415 C 156.261 261.244,156.232 261.984,156.932 263.053 C 158.120 264.866,158.702 277.551,157.642 278.510 C 155.422 280.519,159.911 283.626,162.844 282.111 C 163.140 281.958,163.987 281.582,164.727 281.277 C 170.644 278.830,173.301 270.022,169.447 265.632 C 167.189 263.060,165.609 261.598,165.087 261.598 C 164.917 261.598,164.779 261.486,164.779 261.350 C 164.779 259.936,158.217 259.144,157.033 260.415 M163.397 261.181 C 166.419 262.660,169.870 266.589,170.663 269.452 C 171.702 273.202,168.754 278.614,164.445 280.867 C 160.901 282.720,155.839 281.014,158.293 278.793 C 159.373 277.816,158.720 264.610,157.499 262.747 C 155.947 260.379,159.715 259.378,163.397 261.181 M23.596 261.346 C 23.013 261.973,22.963 262.423,22.961 267.165 C 22.960 271.598,22.882 272.421,22.399 273.154 L 21.838 274.005 20.830 271.828 C 18.169 266.085,14.666 265.900,12.619 271.395 C 12.002 273.050,10.934 275.228,10.506 275.702 C 9.584 276.725,8.579 272.190,8.853 268.243 C 9.072 265.101,8.580 263.179,7.541 263.115 C 4.299 262.916,3.877 263.649,3.890 269.441 C 3.901 274.467,4.109 275.513,5.764 278.857 C 8.263 283.912,11.747 282.709,15.071 275.644 C 16.260 273.116,16.374 273.169,18.471 277.201 C 20.976 282.020,25.008 281.390,26.463 275.952 C 26.929 274.210,27.495 274.277,27.767 276.106 C 28.197 278.987,29.631 281.231,32.029 282.777 C 33.590 283.783,38.296 283.552,39.434 282.413 C 40.959 280.889,40.141 278.363,38.399 279.214 C 36.127 280.323,34.152 280.277,33.702 279.103 C 33.525 278.642,35.836 276.755,37.548 275.964 C 37.804 275.846,38.154 275.634,38.324 275.494 C 40.550 273.669,40.497 273.750,40.475 272.210 C 40.398 266.799,32.848 263.723,29.166 267.601 C 28.021 268.807,27.824 268.624,28.015 266.526 C 28.419 262.066,25.794 258.988,23.596 261.346 M362.071 261.144 C 360.406 262.062,360.111 263.828,361.408 265.124 C 362.455 266.172,363.580 266.167,364.684 265.109 C 366.858 263.027,364.672 259.710,362.071 261.144 M26.361 261.653 C 28.146 263.568,27.417 273.118,25.154 277.459 C 23.208 281.192,21.097 280.786,18.632 276.206 C 16.451 272.154,16.146 272.149,14.151 276.120 C 11.116 282.164,8.549 283.013,6.349 278.699 C 3.274 272.668,3.459 263.460,6.656 263.460 C 8.003 263.460,8.223 264.176,8.225 268.551 C 8.226 272.902,8.710 275.515,9.674 276.388 C 10.628 277.251,10.925 276.842,13.425 271.218 C 14.252 269.359,15.615 267.804,16.420 267.804 C 17.586 267.804,19.981 270.630,20.630 272.770 C 21.792 276.605,24.490 272.515,23.628 268.225 C 22.586 263.036,24.149 259.278,26.361 261.653 M364.757 262.086 C 365.337 262.666,365.325 262.516,364.896 263.746 C 364.030 266.230,360.742 265.277,361.382 262.728 C 361.491 262.296,361.810 261.881,362.093 261.806 C 363.214 261.509,364.293 261.622,364.757 262.086 M56.633 263.668 C 54.885 264.594,52.042 267.087,50.855 268.735 C 47.632 273.211,48.680 280.016,52.884 281.910 C 58.190 284.301,62.621 283.239,63.933 279.264 C 64.731 276.847,63.363 276.486,60.531 278.367 L 58.645 279.620 57.053 279.065 C 51.432 277.106,52.265 271.111,58.583 268.041 C 61.161 266.789,62.181 265.246,61.310 263.917 C 60.701 262.987,58.173 262.852,56.633 263.668 M207.613 263.785 C 198.512 268.860,197.638 280.605,206.206 282.690 C 211.089 283.878,214.595 282.496,215.225 279.134 C 215.652 276.859,214.603 276.615,211.763 278.328 L 209.750 279.542 208.181 278.989 C 202.869 277.118,203.501 271.255,209.319 268.420 C 212.269 266.984,213.405 265.282,212.387 263.827 C 211.760 262.932,209.184 262.909,207.613 263.785 M261.808 263.649 C 255.472 267.084,252.349 274.463,255.247 279.150 C 257.886 283.419,264.706 284.586,267.965 281.326 C 268.747 280.545,268.752 280.544,269.363 281.155 C 270.747 282.539,272.634 281.754,273.856 279.286 C 274.795 277.390,276.842 274.856,277.170 275.184 C 277.336 275.350,277.583 277.106,277.719 279.087 C 278.020 283.472,278.397 284.251,280.216 284.251 C 282.437 284.251,282.693 283.037,281.818 276.649 C 280.781 269.085,278.755 267.777,274.708 272.058 C 273.364 273.480,273.246 273.106,273.494 268.207 C 273.727 263.607,273.577 263.150,271.835 263.150 C 269.868 263.150,269.516 263.987,269.491 268.725 C 269.460 274.582,269.112 277.114,268.337 277.114 C 267.995 277.114,266.825 277.677,265.735 278.365 L 263.754 279.616 262.164 279.063 C 259.316 278.073,258.031 275.898,258.644 273.106 C 258.910 271.897,261.643 268.869,262.711 268.601 C 265.385 267.930,267.409 265.410,266.449 263.945 C 265.827 262.995,263.310 262.835,261.808 263.649 M60.222 263.781 C 61.780 264.615,60.851 266.252,58.029 267.646 C 54.758 269.263,52.754 271.857,52.754 274.476 C 52.754 278.871,57.273 281.292,60.865 278.821 C 62.881 277.434,63.305 277.432,63.305 278.810 C 63.305 283.222,54.248 283.787,50.946 279.582 C 49.463 277.693,48.936 273.553,49.929 271.595 C 50.078 271.302,50.390 270.649,50.623 270.144 C 52.178 266.775,58.271 262.737,60.222 263.781 M211.690 263.974 C 212.919 265.086,211.940 266.403,208.592 268.143 C 205.631 269.681,204.099 271.860,204.123 274.497 C 204.145 276.927,205.718 279.286,207.316 279.286 C 207.624 279.286,207.963 279.426,208.068 279.597 C 208.502 280.299,210.553 279.911,212.172 278.821 C 214.153 277.487,214.740 277.435,214.740 278.597 C 214.740 282.172,208.874 283.736,204.329 281.373 C 199.522 278.873,199.642 271.576,204.566 267.017 C 207.880 263.948,210.449 262.851,211.690 263.974 M265.610 264.003 C 266.850 265.012,266.011 266.324,263.239 267.713 C 257.244 270.715,255.982 276.828,260.878 279.144 C 263.069 280.181,264.091 280.118,266.119 278.821 C 267.982 277.629,268.146 277.580,268.634 278.068 C 269.579 279.012,267.150 281.813,264.917 282.355 C 259.230 283.736,254.439 279.750,254.847 273.979 C 255.220 268.706,262.779 261.700,265.610 264.003 M272.674 263.848 C 272.812 264.061,272.925 266.287,272.925 268.794 C 272.925 274.457,273.137 274.847,275.036 272.680 C 278.282 268.976,279.682 269.429,280.821 274.551 C 282.190 280.707,281.539 284.878,279.426 283.494 C 278.516 282.898,278.422 282.489,278.263 278.410 C 278.157 275.700,278.040 275.109,277.503 274.573 L 276.869 273.939 275.518 275.664 C 274.774 276.612,273.894 277.920,273.562 278.570 C 271.875 281.867,269.645 282.186,269.637 279.131 C 269.616 271.521,270.179 264.608,270.864 264.053 C 271.713 263.367,272.318 263.298,272.674 263.848 M68.037 265.253 C 62.958 270.368,64.338 279.286,70.209 279.286 C 71.636 279.286,72.656 278.454,74.850 275.499 C 75.365 274.806,75.380 274.850,75.393 277.153 C 75.423 282.294,77.334 284.360,79.705 281.818 C 80.510 280.954,80.884 280.278,82.823 276.183 L 83.778 274.166 83.782 277.677 C 83.787 281.903,83.981 282.389,85.670 282.389 C 87.516 282.389,88.289 281.706,89.271 279.202 C 90.394 276.339,92.262 272.715,92.642 272.658 C 93.291 272.563,93.470 276.931,92.946 280.095 C 91.995 285.842,91.987 285.385,93.050 285.934 C 95.260 287.078,96.661 285.907,97.479 282.234 C 98.305 278.524,98.032 268.737,97.071 267.578 C 95.945 266.222,91.985 267.614,90.322 269.949 C 89.459 271.161,89.188 271.155,88.941 269.916 C 88.287 266.650,87.692 265.943,85.597 265.943 C 84.748 265.943,83.017 267.714,81.966 269.657 C 80.754 271.898,80.212 272.087,80.474 270.175 C 80.978 266.498,77.097 265.096,75.706 268.453 L 75.322 269.381 74.673 268.104 C 72.758 264.332,70.089 263.186,68.037 265.253 M161.517 264.398 C 161.010 265.217,161.457 277.001,162.037 278.123 C 163.404 280.764,168.451 274.959,168.132 271.112 C 167.856 267.780,162.675 262.523,161.517 264.398 M142.380 264.696 C 140.546 265.829,138.181 271.108,138.486 273.386 C 139.632 281.929,149.263 280.467,149.263 271.750 C 149.263 267.196,145.153 262.984,142.380 264.696 M287.199 264.726 C 285.396 265.675,283.089 271.079,283.429 273.560 C 284.361 280.360,290.615 281.280,293.473 275.037 C 295.806 269.942,291.315 262.560,287.199 264.726 M298.507 264.789 C 297.758 265.373,295.480 268.866,295.249 269.784 C 295.136 270.234,294.920 270.680,294.768 270.774 C 293.410 271.613,295.743 277.488,297.953 278.798 C 302.046 281.224,306.820 274.991,305.158 269.391 C 304.041 265.627,300.539 263.204,298.507 264.789 M326.452 265.710 C 320.878 269.052,319.465 275.116,323.229 279.548 C 326.568 283.480,333.351 282.067,335.920 276.904 C 336.921 274.892,337.243 270.711,336.458 269.926 C 336.247 269.715,336.074 269.351,336.074 269.118 C 336.074 268.462,334.500 266.551,333.157 265.578 C 331.352 264.270,328.769 264.321,326.452 265.710 M72.270 265.807 C 75.742 268.728,75.859 273.876,72.534 277.386 C 70.579 279.449,68.510 279.228,66.727 276.766 C 64.748 274.034,64.794 271.666,66.898 267.898 C 68.681 264.706,70.240 264.099,72.270 265.807 M145.793 265.504 C 147.951 267.015,149.232 270.958,148.459 273.711 C 146.907 279.244,142.455 280.347,139.825 275.850 C 137.242 271.435,142.140 262.945,145.793 265.504 M163.737 265.519 C 168.089 267.584,168.689 273.775,164.863 277.135 C 162.566 279.152,162.431 278.891,161.991 271.609 C 161.561 264.486,161.561 264.486,163.737 265.519 M177.657 265.322 C 177.552 265.493,177.199 265.632,176.874 265.632 C 175.893 265.632,174.170 266.604,173.831 267.348 C 172.959 269.260,175.343 270.938,177.411 269.869 C 177.895 269.618,178.846 269.387,179.525 269.355 C 181.800 269.246,181.896 269.282,181.789 270.209 C 181.693 271.050,181.652 271.066,179.020 271.246 C 169.629 271.889,169.339 283.320,178.713 283.320 C 179.683 283.320,180.176 283.529,180.915 284.251 C 182.986 286.275,183.978 284.777,184.616 278.663 C 184.785 277.043,185.153 274.682,185.434 273.416 C 186.614 268.107,184.500 265.012,179.696 265.012 C 178.680 265.012,177.763 265.151,177.657 265.322 M290.661 265.662 C 294.173 267.832,294.472 273.799,291.248 277.368 C 287.563 281.446,282.077 275.199,284.553 269.745 C 286.567 265.307,288.258 264.177,290.661 265.662 M301.927 265.519 C 305.254 267.484,305.894 273.091,303.199 276.661 C 298.965 282.269,292.876 275.056,296.450 268.665 C 298.471 265.051,299.821 264.275,301.927 265.519 M331.903 265.597 C 339.452 269.026,336.624 281.148,328.274 281.148 C 320.344 281.148,319.529 269.397,327.219 265.941 C 329.675 264.837,330.153 264.802,331.903 265.597 M103.476 266.217 C 99.308 268.110,98.162 274.147,100.956 279.484 C 103.383 284.118,112.335 285.103,112.335 280.736 C 112.335 279.043,111.759 278.810,109.535 279.599 C 107.941 280.165,107.492 280.215,106.749 279.907 C 104.886 279.135,105.050 278.896,109.369 276.082 C 112.861 273.807,113.219 273.246,112.544 271.103 C 111.292 267.131,106.796 264.709,103.476 266.217 M183.279 266.403 C 184.988 267.523,185.620 270.500,184.829 273.701 C 184.555 274.810,184.119 277.393,183.861 279.441 C 183.220 284.520,182.635 285.506,181.281 283.786 C 180.895 283.295,180.346 283.004,179.785 282.992 C 169.827 282.791,169.884 272.324,179.846 271.621 C 182.120 271.461,182.438 271.364,182.593 270.786 C 183.194 268.549,181.466 267.944,177.912 269.147 C 175.132 270.087,174.414 269.860,174.404 268.041 C 174.393 266.095,180.959 264.883,183.279 266.403 M219.559 266.127 C 213.735 268.259,214.074 279.076,220.082 282.798 C 221.668 283.781,226.364 283.537,227.487 282.413 C 229.088 280.812,228.016 277.786,226.362 279.234 C 225.075 280.359,221.541 280.106,221.579 278.890 C 221.591 278.484,223.151 277.345,225.075 276.336 C 226.851 275.406,228.705 273.556,228.703 272.716 C 228.692 268.335,223.584 264.654,219.559 266.127 M384.959 266.127 C 379.149 268.254,379.489 279.085,385.482 282.798 C 387.067 283.781,391.763 283.537,392.887 282.413 C 394.487 280.812,393.416 277.786,391.761 279.234 C 391.049 279.857,388.841 280.246,388.132 279.872 C 386.518 279.022,386.765 278.561,389.796 276.761 C 392.486 275.162,394.104 273.641,394.102 272.713 C 394.092 268.335,388.982 264.654,384.959 266.127 M36.439 267.211 C 38.346 268.233,40.008 270.652,40.024 272.429 C 40.031 273.166,37.842 275.535,37.109 275.586 C 36.346 275.638,33.044 278.248,32.954 278.869 C 32.786 280.038,34.841 281.037,36.429 280.558 C 39.397 279.661,39.920 279.780,39.547 281.267 C 39.105 283.028,34.827 283.594,32.310 282.224 C 27.781 279.759,26.282 270.180,30.016 267.565 C 31.772 266.335,34.523 266.184,36.439 267.211 M87.742 267.403 C 87.956 267.689,88.130 268.509,88.130 269.226 C 88.130 270.030,88.350 270.799,88.703 271.236 L 89.276 271.944 90.890 270.225 C 92.975 268.005,94.194 267.340,95.672 267.617 C 97.128 267.890,97.237 268.438,97.264 275.562 C 97.293 283.097,96.592 285.496,94.344 285.560 C 92.736 285.606,92.613 285.216,93.277 282.168 C 93.679 280.324,93.860 278.354,93.836 276.081 C 93.767 269.568,92.273 270.516,88.444 279.504 C 86.513 284.038,83.645 282.566,84.374 277.414 C 85.096 272.312,84.051 272.162,81.752 277.036 C 79.759 281.261,79.107 282.079,77.730 282.079 C 76.375 282.079,76.101 281.000,75.880 274.787 C 75.658 268.543,75.948 267.649,78.200 267.649 L 79.597 267.649 79.752 269.977 C 79.903 272.242,79.965 272.354,80.980 272.196 C 81.143 272.170,81.652 271.486,82.111 270.675 C 83.534 268.159,84.447 266.913,84.980 266.760 C 85.851 266.511,87.335 266.856,87.742 267.403 M109.279 267.588 C 111.363 269.177,112.379 271.316,111.920 273.147 C 111.799 273.628,110.652 274.586,108.468 276.027 C 104.863 278.408,104.514 279.013,106.048 280.220 C 106.955 280.934,107.621 280.927,110.084 280.179 C 112.409 279.474,112.629 281.599,110.330 282.560 C 104.418 285.030,98.468 277.893,100.359 270.601 C 101.335 266.838,106.159 265.208,109.279 267.588 M225.083 267.588 C 229.127 270.672,228.962 273.600,224.618 275.864 C 221.151 277.671,220.413 278.766,221.797 280.050 C 222.771 280.953,223.604 281.032,225.184 280.372 C 227.322 279.479,228.504 280.139,227.525 281.679 C 226.743 282.909,222.657 283.418,220.853 282.510 C 215.311 279.718,214.192 269.007,219.217 266.847 C 220.593 266.255,223.881 266.671,225.083 267.588 M390.483 267.588 C 394.792 270.875,394.445 273.319,389.233 276.416 C 385.984 278.346,385.648 279.266,387.772 280.410 C 388.788 280.957,388.898 280.959,390.347 280.444 C 392.453 279.696,393.174 279.737,393.168 280.605 C 393.154 282.661,388.745 283.849,386.239 282.472 C 380.652 279.403,379.574 269.015,384.617 266.847 C 385.992 266.255,389.280 266.671,390.483 267.588 M187.244 267.965 L 186.463 268.746 186.560 274.474 C 186.652 279.918,186.691 280.236,187.348 280.892 C 188.681 282.224,190.068 281.014,191.505 277.269 C 193.360 272.433,193.824 272.522,194.013 277.754 C 194.185 282.511,194.550 283.257,196.526 282.887 C 198.274 282.559,198.319 282.385,197.985 277.145 C 197.431 268.447,195.325 265.808,191.789 269.381 L 190.535 270.647 190.535 269.536 C 190.535 267.395,188.693 266.515,187.244 267.965 M337.947 268.405 C 337.251 269.768,337.205 278.548,337.885 280.268 C 338.909 282.863,341.184 281.212,342.775 276.720 C 344.312 272.378,344.571 272.502,345.024 277.791 C 345.483 283.144,345.896 283.753,348.317 282.650 C 349.747 281.999,349.271 272.918,347.624 269.409 C 346.750 267.548,344.448 267.550,342.836 269.414 L 341.679 270.753 341.669 269.647 C 341.648 267.110,339.050 266.242,337.947 268.405 M368.419 267.392 C 367.381 267.809,367.106 269.261,367.106 274.321 C 367.106 280.623,367.886 282.442,369.995 281.061 C 370.687 280.607,370.962 280.150,371.906 277.890 C 374.328 272.086,374.221 272.108,374.605 277.323 C 375.002 282.692,376.195 284.247,378.472 282.357 C 379.520 281.487,378.521 271.672,377.143 269.305 C 376.174 267.642,374.122 267.642,372.620 269.305 L 371.518 270.524 371.328 269.336 C 371.067 267.701,369.783 266.843,368.419 267.392 M361.467 268.222 C 360.140 269.120,359.689 271.144,359.672 276.272 C 359.656 281.117,359.930 281.769,361.984 281.769 C 363.825 281.769,363.918 281.542,364.083 276.649 C 364.184 273.641,364.392 271.857,364.759 270.851 C 365.660 268.380,363.630 266.759,361.467 268.222 M189.606 268.272 C 189.850 268.566,189.937 269.257,189.838 270.129 C 189.591 272.324,190.229 272.494,191.592 270.596 C 194.969 265.896,197.287 269.018,197.457 278.498 L 197.517 281.898 196.659 282.206 C 195.140 282.749,194.858 282.087,194.558 277.262 C 194.173 271.074,193.544 270.919,191.219 276.442 C 189.554 280.398,188.745 281.280,187.673 280.310 C 186.870 279.583,186.838 269.254,187.635 268.372 C 188.259 267.683,189.082 267.641,189.606 268.272 M340.454 268.301 C 340.889 268.695,340.967 269.105,340.828 270.277 C 340.618 272.051,341.175 272.676,341.948 271.534 C 345.692 266.005,347.849 267.904,348.463 277.269 C 348.764 281.867,348.639 282.398,347.264 282.385 C 346.061 282.373,345.895 281.897,345.651 277.764 C 345.248 270.941,344.449 270.797,341.958 277.095 C 340.579 280.583,339.777 281.393,338.734 280.350 C 338.327 279.943,338.247 278.945,338.247 274.321 C 338.247 267.932,338.695 266.710,340.454 268.301 M370.147 268.177 C 370.352 268.382,370.520 269.359,370.520 270.349 C 370.520 272.497,370.764 272.571,372.101 270.830 C 375.899 265.884,378.284 269.525,378.279 280.261 C 378.277 282.721,375.511 283.497,375.467 281.050 C 375.411 277.989,374.896 272.988,374.607 272.698 C 374.025 272.117,371.761 275.275,371.761 276.667 C 371.761 277.360,370.055 280.514,369.631 280.605 C 367.904 280.978,367.740 280.335,367.824 273.516 C 367.891 268.136,368.563 266.592,370.147 268.177 M364.316 268.894 C 364.630 269.272,364.613 269.617,364.228 270.678 C 363.632 272.319,363.314 275.266,363.378 278.549 C 363.432 281.273,362.823 282.012,361.229 281.158 C 360.060 280.533,360.001 271.239,361.153 269.279 C 361.732 268.294,363.627 268.063,364.316 268.894 M69.613 269.064 C 68.700 269.409,67.339 271.477,67.339 272.519 C 67.339 274.371,70.274 275.711,71.456 274.399 C 73.121 272.552,71.650 268.294,69.613 269.064 M299.212 269.221 C 296.630 271.030,297.168 274.942,300.000 274.942 C 302.478 274.942,303.066 270.313,300.745 269.071 C 299.960 268.651,300.037 268.643,299.212 269.221 M142.511 269.744 C 140.417 271.979,141.225 274.942,143.929 274.942 C 145.218 274.942,145.849 274.082,145.849 272.328 C 145.849 269.471,144.062 268.088,142.511 269.744 M287.034 269.991 C 285.921 271.554,285.867 273.192,286.896 274.146 C 288.707 275.823,290.768 274.873,290.768 272.360 C 290.768 269.274,288.548 267.865,287.034 269.991 M327.763 269.530 C 326.216 270.614,325.058 273.886,325.592 275.668 C 327.411 281.741,334.433 277.168,332.777 270.989 C 332.352 269.403,329.238 268.497,327.763 269.530 M32.039 269.735 C 30.385 270.533,30.509 274.411,32.202 274.836 C 34.062 275.302,37.147 272.590,36.701 270.882 C 36.367 269.607,33.677 268.946,32.039 269.735 M70.819 269.899 C 72.568 271.907,71.359 274.890,69.138 274.046 C 67.495 273.421,68.241 269.356,69.998 269.356 C 70.189 269.356,70.559 269.600,70.819 269.899 M103.844 270.174 C 102.478 271.540,102.951 274.942,104.507 274.942 C 106.640 274.942,109.191 272.643,108.797 271.075 C 108.363 269.345,105.241 268.777,103.844 270.174 M144.912 270.585 C 146.260 273.227,144.681 275.362,142.505 273.838 C 141.584 273.193,141.620 271.960,142.602 270.514 C 143.606 269.038,144.131 269.054,144.912 270.585 M219.870 270.054 C 217.804 271.855,219.108 275.405,221.565 274.669 C 224.533 273.780,225.833 270.904,223.755 269.830 C 222.416 269.137,220.816 269.230,219.870 270.054 M289.842 270.691 C 291.005 273.321,289.494 275.288,287.424 273.838 C 286.478 273.176,286.522 271.710,287.525 270.394 C 288.578 269.014,289.132 269.085,289.842 270.691 M300.549 269.594 C 302.029 270.659,301.828 274.321,300.291 274.321 C 298.147 274.321,297.451 272.070,299.043 270.284 C 299.923 269.296,300.053 269.236,300.549 269.594 M330.954 270.068 C 333.867 271.714,331.947 278.045,328.536 278.045 C 325.624 278.045,325.377 272.222,328.195 270.006 C 329.224 269.196,329.420 269.201,330.954 270.068 M385.269 270.054 C 383.708 271.416,384.306 274.942,386.099 274.942 C 387.419 274.942,389.644 273.414,390.113 272.186 C 390.971 269.941,387.268 268.312,385.269 270.054 M35.027 270.171 C 35.877 270.341,35.997 270.491,35.997 271.384 C 35.997 273.633,31.961 275.192,31.506 273.120 C 30.965 270.659,32.219 269.609,35.027 270.171 M107.012 270.169 C 109.583 270.683,107.761 274.011,104.909 274.011 C 103.815 274.011,103.446 273.157,103.777 271.392 C 104.021 270.091,104.921 269.751,107.012 270.169 M223.211 270.263 C 225.376 271.086,223.520 274.011,220.833 274.011 C 219.840 274.011,219.283 273.055,219.555 271.817 C 219.929 270.111,221.290 269.533,223.211 270.263 M389.383 270.708 C 390.454 271.779,388.429 274.011,386.387 274.011 C 384.680 274.011,384.311 270.654,385.964 270.174 C 386.890 269.906,388.893 270.219,389.383 270.708 M180.252 274.354 C 180.019 274.502,179.385 274.624,178.841 274.627 C 174.088 274.650,173.324 279.089,177.891 280.147 C 180.670 280.790,181.252 280.304,181.992 276.726 C 182.360 274.946,181.395 273.630,180.252 274.354 M181.336 276.183 C 181.221 278.932,180.892 279.432,179.135 279.535 C 174.644 279.796,174.089 275.592,178.558 275.160 C 181.182 274.907,181.386 274.982,181.336 276.183 " stroke="none" fill="#ada7c1" fill-rule="evenodd"></path></g></svg>